<svg xmlns="http://www.w3.org/2000/svg" width="167.425" height="71.816" viewBox="0 0 167.425 71.816"><g transform="translate(-178.103 -4177.418)"><path d="M186.59,4225.876h3.555a3.237,3.237,0,0,1,2.249.725,2.322,2.322,0,0,1,.8,1.741,2.019,2.019,0,0,1-1.814,2.032,2.239,2.239,0,0,1,1.451.8,2.344,2.344,0,0,1,.58,1.524,2.207,2.207,0,0,1-.8,1.741,3.625,3.625,0,0,1-2.249.725h-3.7v-9.285Zm1.6,1.233v2.757h1.886a1.842,1.842,0,0,0,1.161-.363,1.4,1.4,0,0,0,0-2.031,1.842,1.842,0,0,0-1.161-.363Zm0,6.892h2.031a2.078,2.078,0,0,0,1.234-.363,1.578,1.578,0,0,0,0-2.176,1.706,1.706,0,0,0-1.234-.436h-2.031Zm8.85-2.539v3.772h-1.523v-9.358h3.192a3.592,3.592,0,0,1,2.466.8,2.487,2.487,0,0,1,.871,1.959,2.737,2.737,0,0,1-.581,1.668,2.946,2.946,0,0,1-1.741,1.016l2.467,3.844H200.3l-2.322-3.772h-.943Zm0-4.353v3.119h1.669a1.772,1.772,0,0,0,1.3-.435,1.762,1.762,0,0,0,0-2.321,1.772,1.772,0,0,0-1.3-.435h-1.669Zm7.327,8.125v-9.358h1.523v9.358Zm3.482-8.125v-1.233h6.529v1.161h-2.467v8.124h-1.523v-8.052Zm8.415,8.125v-9.358h1.523v9.358Zm6.891-8.2a1.786,1.786,0,0,0-1.088.362,1.22,1.22,0,0,0-.435,1.016,1.1,1.1,0,0,0,.508,1.016,3.153,3.153,0,0,0,1.233.507,10.721,10.721,0,0,1,1.451.363,2.3,2.3,0,0,1,1.233.8,2.347,2.347,0,0,1,.508,1.6,2.677,2.677,0,0,1-.871,1.886,3.131,3.131,0,0,1-2.321.8,4.221,4.221,0,0,1-2.394-.653,2.3,2.3,0,0,1-.943-1.886H221.7a1.632,1.632,0,0,0,.436,1.016,1.4,1.4,0,0,0,1.16.362,1.705,1.705,0,0,0,1.233-.435,1.274,1.274,0,0,0,.436-.943,1.156,1.156,0,0,0-.291-.871,1.506,1.506,0,0,0-.725-.435c-.29-.072-.58-.217-.943-.29a6.106,6.106,0,0,1-1.088-.29,2.264,2.264,0,0,1-.943-.435,3.476,3.476,0,0,1-.726-.726,2.227,2.227,0,0,1-.29-1.233,2.483,2.483,0,0,1,.871-1.959,3.358,3.358,0,0,1,2.249-.725,3.6,3.6,0,0,1,2.248.653,2.4,2.4,0,0,1,.943,1.886h-1.6a1.264,1.264,0,0,0-.435-.871A1.307,1.307,0,0,0,223.151,4227.037Zm11.534-1.161h1.524v9.358h-1.524V4231.1h-4.352v4.135h-1.524v-9.358h1.524v3.99h4.352Zm13.493,0v1.161h-3.627v2.829h3.192v1.16h-3.192V4234h3.627v1.16h-5.151v-9.285Zm5.3,0a5.351,5.351,0,0,1,3.627,1.233,4.585,4.585,0,0,1,1.379,3.41,4.329,4.329,0,0,1-1.379,3.409,5.222,5.222,0,0,1-3.627,1.233h-3.046v-9.285Zm-1.45,8.2h1.523a3.337,3.337,0,0,0,2.539-.943,3.6,3.6,0,0,0,.87-2.539,3.148,3.148,0,0,0-3.409-3.482h-1.523Zm8.342-2.249v-5.948h1.523v5.948a2.135,2.135,0,0,0,.581,1.6,2.536,2.536,0,0,0,3.046,0,2.135,2.135,0,0,0,.581-1.6v-5.948h1.523v5.948a3.242,3.242,0,0,1-1.088,2.612,4.354,4.354,0,0,1-5.223,0A3.069,3.069,0,0,1,260.365,4231.824ZM270.883,4234a4.907,4.907,0,0,1,0-6.819,5.075,5.075,0,0,1,6.094-.653,4.042,4.042,0,0,1,1.668,2.1h-1.813a2.545,2.545,0,0,0-2.467-1.379,2.959,2.959,0,0,0-2.321.943,3.928,3.928,0,0,0,0,4.933,2.957,2.957,0,0,0,2.321.943,2.478,2.478,0,0,0,2.467-1.378h1.813a4.238,4.238,0,0,1-1.668,2.031,4.812,4.812,0,0,1-2.684.725,5.807,5.807,0,0,1-3.41-1.45Zm16.25,1.233-.653-1.886h-3.918l-.652,1.886h-1.6l3.337-9.358h1.741l3.336,9.358Zm-4.208-3.119h3.047l-1.523-4.353-1.524,4.353Zm7.182-5.006v-1.233h6.528v1.161h-2.466v8.124h-1.523v-8.052Zm8.415,8.125v-9.358h1.523v9.358Zm8.2.072a4.653,4.653,0,0,1-3.41-1.378,4.907,4.907,0,0,1,0-6.819,4.829,4.829,0,0,1,3.41-1.378,4.539,4.539,0,0,1,3.409,1.378,4.907,4.907,0,0,1,0,6.819A4.539,4.539,0,0,1,306.719,4235.306Zm0-1.378a2.957,2.957,0,0,0,2.321-.943,3.928,3.928,0,0,0,0-4.933,3.329,3.329,0,0,0-4.643,0,3.932,3.932,0,0,0,0,4.933A3.065,3.065,0,0,0,306.719,4233.928Zm12.84-8.052h1.523v9.358h-1.523l-4.571-6.964v6.964h-1.523v-9.358h1.523l4.571,6.964Zm10.228,9.358-.653-1.886h-3.917l-.653,1.886h-1.6l3.337-9.358h1.741l3.337,9.358Zm-4.135-3.119H328.7l-1.524-4.353-1.523,4.353Zm7.617-6.239h1.523V4234h3.119v1.16H333.2v-9.285Zm-152.047,14.943a1.784,1.784,0,0,0-1.088.363,1.219,1.219,0,0,0-.435,1.016,1.1,1.1,0,0,0,.508,1.015,3.14,3.14,0,0,0,1.233.508,10.649,10.649,0,0,1,1.451.363,2.294,2.294,0,0,1,1.233.8,2.344,2.344,0,0,1,.508,1.6,2.677,2.677,0,0,1-.871,1.886,3.131,3.131,0,0,1-2.321.8,4.221,4.221,0,0,1-2.394-.653,2.3,2.3,0,0,1-.943-1.886h1.668a1.627,1.627,0,0,0,.436,1.015,1.4,1.4,0,0,0,1.16.363,1.71,1.71,0,0,0,1.234-.435,1.278,1.278,0,0,0,.435-.943,1.16,1.16,0,0,0-.29-.871,1.521,1.521,0,0,0-.726-.435c-.29-.072-.58-.218-.943-.29s-.653-.29-1.015-.363a2.24,2.24,0,0,1-.943-.435,3.436,3.436,0,0,1-.726-.725,2.222,2.222,0,0,1-.29-1.234,2.482,2.482,0,0,1,.87-1.958,3.357,3.357,0,0,1,2.249-.726,3.6,3.6,0,0,1,2.249.653,2.4,2.4,0,0,1,.943,1.886h-1.668a1.264,1.264,0,0,0-.436-.87A1.477,1.477,0,0,0,181.222,4240.819Zm5.586,4.788v-5.948h1.523v5.948a2.137,2.137,0,0,0,.581,1.6,2.538,2.538,0,0,0,3.046,0,2.137,2.137,0,0,0,.581-1.6v-5.948h1.523v5.948a3.243,3.243,0,0,1-1.088,2.612,4.356,4.356,0,0,1-5.223,0A3.073,3.073,0,0,1,186.808,4245.607Zm15.306-5.15a2.484,2.484,0,0,1,.871,1.958,2.683,2.683,0,0,1-.8,1.959,3.47,3.47,0,0,1-2.467.8h-1.668v3.772h-1.524v-9.285h3.192A3.4,3.4,0,0,1,202.114,4240.457Zm-4.062,3.554h1.668a1.773,1.773,0,0,0,1.306-.435,1.766,1.766,0,0,0,0-2.321,1.774,1.774,0,0,0-1.306-.436h-1.668Zm12.477-3.554a2.483,2.483,0,0,1,.87,1.958,2.679,2.679,0,0,1-.8,1.959,3.465,3.465,0,0,1-2.466.8h-1.668v3.772h-1.524v-9.285h3.192A3.524,3.524,0,0,1,210.529,4240.457Zm-4.135,3.554h1.669a1.772,1.772,0,0,0,1.3-.435,1.766,1.766,0,0,0,0-2.321,1.772,1.772,0,0,0-1.3-.436h-1.669Zm6.891-4.352h1.524v8.124h3.119v1.161h-4.715v-9.285Zm6.312,9.358v-9.358h1.523v9.358Zm9.14-9.358v1.16H225.11v2.83H228.3v1.16H225.11v2.974h3.627v1.161h-5.151v-9.285Zm3.772,5.586v3.772h-1.523v-9.358h3.191a3.6,3.6,0,0,1,2.467.8,2.483,2.483,0,0,1,.87,1.958,2.738,2.738,0,0,1-.58,1.669,2.948,2.948,0,0,1-1.741,1.015l2.466,3.845h-1.886l-2.321-3.772h-.943Zm0-4.353v3.119h1.668a1.773,1.773,0,0,0,1.306-.435,1.766,1.766,0,0,0,0-2.321,1.774,1.774,0,0,0-1.306-.436h-1.668Zm10.3-.073a1.784,1.784,0,0,0-1.088.363,1.22,1.22,0,0,0-.436,1.016,1.1,1.1,0,0,0,.508,1.015,3.153,3.153,0,0,0,1.233.508,10.648,10.648,0,0,1,1.451.363,2.287,2.287,0,0,1,1.233.8,2.344,2.344,0,0,1,.508,1.6,2.676,2.676,0,0,1-.87,1.886,3.135,3.135,0,0,1-2.322.8,4.215,4.215,0,0,1-2.393-.653,2.3,2.3,0,0,1-.943-1.886h1.668a1.631,1.631,0,0,0,.435,1.015,1.405,1.405,0,0,0,1.161.363,1.706,1.706,0,0,0,1.233-.435,1.278,1.278,0,0,0,.435-.943,1.156,1.156,0,0,0-.29-.871,1.513,1.513,0,0,0-.725-.435c-.29-.072-.581-.218-.943-.29a6.043,6.043,0,0,1-1.088-.29,2.242,2.242,0,0,1-.943-.436,3.411,3.411,0,0,1-.726-.725,2.229,2.229,0,0,1-.29-1.233,2.486,2.486,0,0,1,.87-1.959,3.357,3.357,0,0,1,2.249-.725,3.6,3.6,0,0,1,2.249.653,2.4,2.4,0,0,1,.943,1.886h-1.668a1.264,1.264,0,0,0-.436-.871A1.1,1.1,0,0,0,242.81,4240.819Zm16.322,8.2-.653-1.886h-3.918l-.652,1.886H252.24l3.337-9.358h1.741l3.337,9.358Zm-4.208-3.12h3.047l-1.523-4.352Zm10.519-5.078a1.782,1.782,0,0,0-1.088.363,1.217,1.217,0,0,0-.436,1.016,1.1,1.1,0,0,0,.508,1.015,3.153,3.153,0,0,0,1.233.508,10.648,10.648,0,0,1,1.451.363,2.287,2.287,0,0,1,1.233.8,2.344,2.344,0,0,1,.508,1.6,2.676,2.676,0,0,1-.87,1.886,3.135,3.135,0,0,1-2.322.8,4.221,4.221,0,0,1-2.394-.653,2.3,2.3,0,0,1-.943-1.886h1.669a1.626,1.626,0,0,0,.435,1.015,1.405,1.405,0,0,0,1.161.363,1.706,1.706,0,0,0,1.233-.435,1.278,1.278,0,0,0,.435-.943,1.156,1.156,0,0,0-.29-.871,1.518,1.518,0,0,0-.725-.435c-.291-.072-.581-.218-.943-.29a6.074,6.074,0,0,1-1.089-.29,2.253,2.253,0,0,1-.943-.436,3.43,3.43,0,0,1-.725-.725,2.221,2.221,0,0,1-.29-1.233,2.486,2.486,0,0,1,.87-1.959,3.357,3.357,0,0,1,2.249-.725,3.6,3.6,0,0,1,2.249.653,2.4,2.4,0,0,1,.943,1.886h-1.669a1.263,1.263,0,0,0-.435-.871c-.145-.362-.508-.508-1.015-.508Zm8.56,0a1.787,1.787,0,0,0-1.089.363,1.219,1.219,0,0,0-.435,1.016,1.1,1.1,0,0,0,.508,1.015,3.146,3.146,0,0,0,1.233.508,10.648,10.648,0,0,1,1.451.363,2.291,2.291,0,0,1,1.233.8,2.344,2.344,0,0,1,.508,1.6,2.673,2.673,0,0,1-.871,1.886,3.131,3.131,0,0,1-2.321.8,4.221,4.221,0,0,1-2.394-.653,2.3,2.3,0,0,1-.943-1.886h1.669a1.626,1.626,0,0,0,.435,1.015,1.405,1.405,0,0,0,1.161.363,1.707,1.707,0,0,0,1.233-.435,1.278,1.278,0,0,0,.435-.943,1.156,1.156,0,0,0-.29-.871,1.518,1.518,0,0,0-.725-.435c-.291-.072-.581-.218-.944-.29a6.086,6.086,0,0,1-1.088-.29,2.248,2.248,0,0,1-.943-.436,3.429,3.429,0,0,1-.725-.725,2.22,2.22,0,0,1-.29-1.233,2.486,2.486,0,0,1,.87-1.959,3.357,3.357,0,0,1,2.249-.725,3.6,3.6,0,0,1,2.249.653,2.4,2.4,0,0,1,.943,1.886h-1.669a1.263,1.263,0,0,0-.435-.871,1.1,1.1,0,0,0-1.015-.508Zm9.865,8.27a4.651,4.651,0,0,1-3.409-1.378,4.9,4.9,0,0,1,0-6.819,4.828,4.828,0,0,1,3.409-1.378,4.541,4.541,0,0,1,3.41,1.378,4.907,4.907,0,0,1,0,6.819A4.653,4.653,0,0,1,283.868,4249.089Zm0-1.378a2.962,2.962,0,0,0,2.322-.943,3.932,3.932,0,0,0,0-4.933,3.329,3.329,0,0,0-4.643,0,3.928,3.928,0,0,0,0,4.933A2.959,2.959,0,0,0,283.868,4247.711Zm7.544.072a4.906,4.906,0,0,1,0-6.818,5.074,5.074,0,0,1,6.094-.653,4.034,4.034,0,0,1,1.668,2.1h-1.813a2.544,2.544,0,0,0-2.467-1.378,2.959,2.959,0,0,0-2.321.943,3.932,3.932,0,0,0,0,4.933,2.959,2.959,0,0,0,2.321.943,2.478,2.478,0,0,0,2.467-1.378h1.813a4.234,4.234,0,0,1-1.668,2.031,4.808,4.808,0,0,1-2.684.725,5.441,5.441,0,0,1-3.41-1.451Zm9.866,1.234v-9.358H302.8v9.358Zm10.228,0-.652-1.886h-3.918l-.653,1.886h-1.6l3.336-9.358h1.741l3.337,9.358Zm-4.134-3.12h3.046l-1.523-4.352-1.523,4.352Zm7.109-5v-1.233h6.528v1.16h-2.466v8.125H317.02v-8.052Zm8.487,8.125v-9.358h1.523v9.358Zm8.2.072a4.651,4.651,0,0,1-3.409-1.378,4.9,4.9,0,0,1,0-6.819,4.828,4.828,0,0,1,3.409-1.378,4.541,4.541,0,0,1,3.41,1.378,4.907,4.907,0,0,1,0,6.819A4.541,4.541,0,0,1,331.165,4249.089Zm0-1.378a2.959,2.959,0,0,0,2.321-.943,3.928,3.928,0,0,0,0-4.933,3.328,3.328,0,0,0-4.642,0,3.928,3.928,0,0,0,0,4.933A3.064,3.064,0,0,0,331.165,4247.711Zm12.84-8.052h1.523v9.358h-1.523l-4.57-6.964v6.964h-1.6v-9.358h1.523l4.57,6.964v-6.964Z" fill="#fff"/><rect width="0.725" height="34.965" transform="translate(294.387 4178.144)" fill="#fff"/><path d="M218.508,4213.036a11.09,11.09,0,0,1-8.414-3.337,13.71,13.71,0,0,1,.072-17.845,11.257,11.257,0,0,1,8.488-3.337,11.43,11.43,0,0,1,8.414,3.192,11.311,11.311,0,0,1,3.265,8.415,11.171,11.171,0,0,1-.073,1.6.79.79,0,0,1-.8.725h-17.41a.071.071,0,0,0-.072.073,6.736,6.736,0,0,0,2.031,4.642,6.413,6.413,0,0,0,4.57,1.741,5.753,5.753,0,0,0,5.441-2.974.646.646,0,0,1,.58-.363h4.28a.465.465,0,0,1,.435.581,10.74,10.74,0,0,1-3.7,4.787,11.475,11.475,0,0,1-7.11,2.1Zm4.716-18.643a6.589,6.589,0,0,0-4.643-1.741,6.411,6.411,0,0,0-4.57,1.741,7.109,7.109,0,0,0-2.1,4.57.25.25,0,0,0,.073.145h12.985a.07.07,0,0,0,.072-.072A5.771,5.771,0,0,0,223.224,4194.393ZM234.1,4195.7a6.352,6.352,0,0,1,2.539-5.078,10.209,10.209,0,0,1,6.674-2.1,9.978,9.978,0,0,1,6.6,2.031,7.3,7.3,0,0,1,2.539,4.933.556.556,0,0,1-.581.653h-3.844a.617.617,0,0,1-.581-.508,3.963,3.963,0,0,0-1.16-2.249,4.483,4.483,0,0,0-3.12-1.015,4.987,4.987,0,0,0-3.119.87,2.858,2.858,0,0,0-1.088,2.322,2.509,2.509,0,0,0,1.451,2.248,10.877,10.877,0,0,0,3.482,1.234c1.378.29,2.756.58,4.135.943a7.645,7.645,0,0,1,3.482,2.031,5.61,5.61,0,0,1,1.451,3.99,6.041,6.041,0,0,1-2.612,5.078,10.953,10.953,0,0,1-6.746,1.958,10.731,10.731,0,0,1-6.674-1.958,7.218,7.218,0,0,1-2.757-4.933.556.556,0,0,1,.581-.653h3.917a.614.614,0,0,1,.58.508,3.655,3.655,0,0,0,1.233,2.248,4.809,4.809,0,0,0,3.192,1.016,5.364,5.364,0,0,0,3.192-.87,2.73,2.73,0,0,0,1.161-2.322,2.7,2.7,0,0,0-1.451-2.321,10.9,10.9,0,0,0-3.482-1.233c-1.378-.29-2.757-.581-4.135-.943a7.538,7.538,0,0,1-3.482-1.959,5.506,5.506,0,0,1-1.378-3.917Zm34.457,17.337a11.969,11.969,0,0,0,7.254-2.249.547.547,0,0,1,.58-.072c.8.435,3.047,1.6,4.135,2.176a.4.4,0,0,0,.581-.363l-.073-11.1v-.8a12.263,12.263,0,1,0-12.477,12.4Zm-.363-19.586a7.389,7.389,0,1,1-6.746,6.746A7.314,7.314,0,0,1,268.2,4193.45Zm-76.531-4.86a11.969,11.969,0,0,0-7.254,2.249.547.547,0,0,1-.58.072c-.8-.435-3.047-1.6-4.135-2.176a.4.4,0,0,0-.58.363l.072,11.1v.8a12.263,12.263,0,1,0,12.477-12.4Zm.363,19.586a7.389,7.389,0,1,1,6.746-6.746A7.313,7.313,0,0,1,192.031,4208.176Z" fill="#fff"/><path d="M179.119,4178.144v7.689a.646.646,0,0,0,.362.58l4.57,2.394v-10.663a.727.727,0,0,0-.725-.726h-3.41A.746.746,0,0,0,179.119,4178.144Zm140.512,27.783.58.653c.073.145.218.145.363.145a.4.4,0,0,0,.363-.218l.435-.725c5.005-8.342,12.187-15.161,21.98-20.674a.071.071,0,0,0,.073-.073v-.145l-.871-1.523a.264.264,0,0,0-.217-.073l-.653.363c-9.141,5.295-16.032,11.607-21.037,19.368a.984.984,0,0,1-.291.218c-.145,0-.217-.072-.362-.145a52.655,52.655,0,0,0-8.923-7.617H311c-.073,0-.073,0-.145.073L309.838,4197a.138.138,0,0,0,.073.217,49.412,49.412,0,0,1,9.72,8.7Z" fill="#f08017"/><path d="M313.393,4195.771a32.161,32.161,0,0,1,5.875,4.933l.508.58a.555.555,0,0,0,.363.146c.145,0,.217-.073.363-.146l.435-.652c5.15-7.182,10.736-12.187,19.3-17.41.508-.29.943-.581,1.378-.8a.349.349,0,0,0,.145-.436l-.8-1.378c0-.072-.072-.072-.145-.145H340.6c-9.141,5.368-15.017,10.446-20.312,17.41a.548.548,0,0,1-.29.145c-.145,0-.29,0-.363-.145a52.341,52.341,0,0,0-6.021-4.643l-.145-.072-.653-.435a.179.179,0,0,0-.29.072l-.58.8c-.073.073-.073.145-.145.218-.073.145-.145.217-.218.362v.146c0,.072,0,.072.073.145l1.741,1.305Z" fill="#f08017"/><path d="M321.3,4212.964l.507-1.161c4.28-9.648,11.9-17.482,23.214-24.011.145-.073.145-.218.072-.363l-.072-.072c-.291-.436-.508-.943-.8-1.379-.073-.072-.146-.145-.218-.072l-.145.072c-10.736,6.239-18.208,13.565-22.851,22.561a.724.724,0,0,1-.362.29.63.63,0,0,1-.436-.218,53.676,53.676,0,0,0-11.026-10.663h-.072c-.073,0-.073,0-.146.072l-1.015,1.451a.179.179,0,0,0,.072.29c3.773,2.612,9.068,7.544,11.9,12.26l.653,1.088a.4.4,0,0,0,.363.217.876.876,0,0,0,.363-.362Z" fill="#f08017"/><path d="M319.921,4193.232a.489.489,0,0,1-.725.073c-1.669-1.233-3.772-2.612-4.643-3.192-.072,0-.072-.072-.145,0-.072,0-.072.073-.145.073l-.87,1.378c-.073.145-.073.29.072.363,1.233.8,3.99,2.684,5.658,3.989l.363.291a1.041,1.041,0,0,0,.435.145.4.4,0,0,0,.363-.218l.29-.435c4.643-6.021,11.171-11.389,19.369-16.1a.351.351,0,0,0,.145-.436l-.726-1.305c-.072-.073-.145-.145-.217-.145h-.218A71.847,71.847,0,0,0,319.921,4193.232Z" fill="#f08017"/></g></svg>