<svg xmlns="http://www.w3.org/2000/svg" width="201.665" height="60.979" viewBox="0 0 201.665 60.979"><g transform="translate(-465.244 -2813.456)" opacity="0.6"><path d="M490.406,2813.456l-5.274,10.9-9.077,9.535-.684-12.179,6-2.744Z" fill="#fff" opacity="0.5"/><ellipse cx="23.759" cy="0.97" rx="23.759" ry="0.97" transform="translate(468.792 2872.496)" fill="#2f404a" opacity="0.2"/><path d="M475.371,2821.712l-3.095,11.365-7.032,19.074,10.807-18.279v-.01Z" fill="#112533"/><path d="M509.021,2814.509l-18.615-1.052-12.953,8.625-1.4,11.791-10.807,18.279,11.669,16.388,10.917-4.743,17.739-.276,13.447-27.9Z" fill="#80909c"/><path d="M509.021,2814.509l-18.615-1.052-5.3,10.764,5.759,23.474,9.4.272Z" fill="#112533" opacity="0.4"/><path d="M465.244,2852.15l11.669,16.388,8.749-8.395Z" fill="#112533" opacity="0.4"/><path d="M500.27,2848.029l5.3,15.49,13.447-27.9Z" fill="#112533"/><path d="M485.667,2860.174l-8.753,8.364,10.894-4.678,17.762-.341Z" fill="#112533"/><path d="M505.548,2863.465l-19.881-3.291,14.6-12.207Z" fill="#112533" opacity="0.4"/><path d="M485.558,2860.212l14.707-12.245-9.4-.272Z" fill="#112533"/><ellipse cx="23.759" cy="0.97" rx="23.759" ry="0.97" transform="translate(468.792 2872.496)" fill="#2f404a" opacity="0.12"/><path d="M538.869,2835.541a5.86,5.86,0,0,1,3.33,5.738c0,4.816-3.719,6.942-8.465,6.942h-9a.542.542,0,0,1-.6-.6V2824.03a.541.541,0,0,1,.6-.6h8.713c5.277,0,8.394,1.983,8.394,6.8a5.1,5.1,0,0,1-2.976,5.03A.148.148,0,0,0,538.869,2835.541Zm-9.739-7.615v5.454a.188.188,0,0,0,.212.213h4.109c2.231,0,3.506-1.1,3.506-2.9,0-1.842-1.275-2.975-3.506-2.975h-4.109A.187.187,0,0,0,529.13,2827.926Zm8.075,12.857c0-1.948-1.275-3.117-3.507-3.117h-4.356a.2.2,0,0,0-.212.213v5.808a.187.187,0,0,0,.212.213h4.392C535.93,2843.9,537.205,2842.731,537.205,2840.783Z" fill="#112533"/><path d="M544.254,2847.618V2824.03a.541.541,0,0,1,.6-.6h3.789a.542.542,0,0,1,.6.6v23.588a.543.543,0,0,1-.6.6h-3.789A.542.542,0,0,1,544.254,2847.618Z" fill="#112533"/><path d="M562.635,2830.016h3.79a.541.541,0,0,1,.6.6v17a.542.542,0,0,1-.6.6h-3.79a.543.543,0,0,1-.6-.6v-.956c0-.177-.141-.212-.247-.07a5.081,5.081,0,0,1-4.357,1.877,5.789,5.789,0,0,1-6.163-6.2v-11.653a.542.542,0,0,1,.6-.6h3.755a.542.542,0,0,1,.6.6v10.413c0,1.877,1.062,3.187,2.869,3.187a2.849,2.849,0,0,0,2.939-2.62v-10.98A.542.542,0,0,1,562.635,2830.016Z" fill="#112533"/><path d="M581.478,2842.66c.284-.319.567-.354.851-.071l2.018,1.948a.58.58,0,0,1,.071.85,8.843,8.843,0,0,1-6.977,3.117c-4.463,0-7.332-2.479-8.288-6.233a12.363,12.363,0,0,1-.425-3.294,12.806,12.806,0,0,1,.39-3.471,7.89,7.89,0,0,1,7.933-5.809c4.782,0,7.367,3.046,8.146,7.828.107.779.178,1.664.213,2.585a.542.542,0,0,1-.6.6H573.935a.188.188,0,0,0-.213.213,5.713,5.713,0,0,0,.248,1.1c.5,1.453,1.948,2.267,3.931,2.267A4.7,4.7,0,0,0,581.478,2842.66Zm-7.437-6.552a4.657,4.657,0,0,0-.213.885c-.035.142.036.213.177.213h6.021c.142,0,.213-.071.177-.213a3.446,3.446,0,0,0-.141-.744,3.02,3.02,0,0,0-3.082-2.231A2.844,2.844,0,0,0,574.041,2836.108Z" fill="#112533"/><path d="M586.331,2843.191v-.177a.543.543,0,0,1,.6-.6h3.577c.389,0,.6.071.6.213v.247c0,1.028,1.239,1.877,3.01,1.877,1.629,0,2.692-.708,2.692-1.664,0-1.417-2.692-1.381-5.313-2.444-2.408-.814-4.994-2.019-4.994-5.171,0-3.542,3.046-5.7,7.438-5.7,4.569,0,7.579,2.373,7.579,5.738,0,.248-.212.425-.6.425h-3.471c-.389,0-.6-.071-.6-.213v-.212c0-1.028-1.062-1.842-2.868-1.842-1.523,0-2.692.567-2.692,1.594,0,1.416,2.479,1.523,5.1,2.337,2.8.815,5.454,2.054,5.454,5.313,0,3.577-3.116,5.561-7.685,5.561C589.342,2848.469,586.331,2846.273,586.331,2843.191Z" fill="#112533"/><path d="M612.931,2834.018h-3.188a.188.188,0,0,0-.212.213v7.331c0,1.523.6,2.267,2.018,2.267h.992a.541.541,0,0,1,.6.6v3.046a.6.6,0,0,1-.6.637c-.673.036-1.31.071-1.948.071-3.612,0-5.844-.85-5.879-4.675v-9.279a.188.188,0,0,0-.213-.213H602.7a.542.542,0,0,1-.6-.6v-2.8a.541.541,0,0,1,.6-.6H604.5a.188.188,0,0,0,.213-.213v-4a.541.541,0,0,1,.6-.6h3.613a.542.542,0,0,1,.6.6v4a.188.188,0,0,0,.212.213h3.188a.542.542,0,0,1,.6.6v2.8A.542.542,0,0,1,612.931,2834.018Z" fill="#112533"/><path d="M614.738,2842.7a12.894,12.894,0,0,1-.5-3.612,12.324,12.324,0,0,1,.531-3.754c1.063-3.471,4-5.6,8.04-5.6a7.819,7.819,0,0,1,7.862,5.561,12.387,12.387,0,0,1,.532,3.719,14.286,14.286,0,0,1-.461,3.577,8.4,8.4,0,0,1-16.008.106Zm11.156-1.133a8.981,8.981,0,0,0,.283-2.479,10.053,10.053,0,0,0-.283-2.515,3.245,3.245,0,0,0-6.34,0,10.053,10.053,0,0,0-.283,2.515,9.951,9.951,0,0,0,.283,2.479,3.22,3.22,0,0,0,6.34,0Z" fill="#112533"/><path d="M648.633,2836.179v11.439a.543.543,0,0,1-.6.6h-3.79a.543.543,0,0,1-.6-.6v-10.412a2.883,2.883,0,0,0-2.869-3.188,2.916,2.916,0,0,0-2.94,3.188v10.412a.542.542,0,0,1-.6.6h-3.79a.542.542,0,0,1-.6-.6v-17a.541.541,0,0,1,.6-.6h3.79a.541.541,0,0,1,.6.6v.991c0,.178.107.249.213.107a4.957,4.957,0,0,1,4.286-1.984C646.047,2829.732,648.633,2832.141,648.633,2836.179Z" fill="#112533"/><path d="M662.978,2842.66c.283-.319.566-.354.85-.071l2.018,1.948a.581.581,0,0,1,.072.85,8.846,8.846,0,0,1-6.978,3.117c-4.463,0-7.332-2.479-8.288-6.233a12.366,12.366,0,0,1-.425-3.294,12.845,12.845,0,0,1,.39-3.471,7.891,7.891,0,0,1,7.933-5.809c4.782,0,7.368,3.046,8.147,7.828.106.779.177,1.664.212,2.585a.541.541,0,0,1-.6.6H655.434a.188.188,0,0,0-.213.213,5.7,5.7,0,0,0,.248,1.1c.5,1.453,1.948,2.267,3.932,2.267A4.7,4.7,0,0,0,662.978,2842.66Zm-7.438-6.552a4.657,4.657,0,0,0-.213.885c-.035.142.036.213.178.213h6.02c.142,0,.213-.071.178-.213a3.5,3.5,0,0,0-.142-.744,3.019,3.019,0,0,0-3.081-2.231A2.845,2.845,0,0,0,655.54,2836.108Z" fill="#112533"/><path d="M531.182,2852.537v3.09h-.772a2.883,2.883,0,0,0-.665-1.81,2.555,2.555,0,0,0-1.938-.622,3.237,3.237,0,0,0-1.245.214,2.077,2.077,0,0,0-.808.565,2.5,2.5,0,0,0-.458.973,7.119,7.119,0,0,0-.214,1.245c-.034.415-.05.936-.05,1.566q0,1,.035,1.573a7.183,7.183,0,0,0,.194,1.231,2.215,2.215,0,0,0,.457.987,2.3,2.3,0,0,0,.859.55,3.722,3.722,0,0,0,1.373.222,2.26,2.26,0,0,0,1.823-.629,2.834,2.834,0,0,0,.565-1.746l.844.043a6.383,6.383,0,0,1-.214,1.309,3.009,3.009,0,0,1-.5.987,2.03,2.03,0,0,1-.973.673,4.7,4.7,0,0,1-1.544.221,6.6,6.6,0,0,1-1.538-.157,2.668,2.668,0,0,1-1.08-.508,3.333,3.333,0,0,1-.7-.772,3.19,3.19,0,0,1-.408-1.095,9.966,9.966,0,0,1-.178-1.316q-.043-.643-.043-1.573a15.887,15.887,0,0,1,.136-2.3,5.247,5.247,0,0,1,.529-1.659,2.393,2.393,0,0,1,1.166-1.109,4.811,4.811,0,0,1,1.974-.35,2.751,2.751,0,0,1,2.6,1.258v-1.058Z" fill="#112533"/><path d="M542.511,2852.537l3.233,9.727h.672v.715H543.87v-.715h.844l-.873-2.661h-4.062l-.872,2.661h.858v.715h-2.546v-.715h.658l3.247-9.727Zm-2.446,6.222h3.505l-1.76-5.321Z" fill="#112533"/><path d="M554.813,2859.046v3.218h1.144v.715h-3.032v-.715h.858v-9.012h-.858v-.715h3.719a4.657,4.657,0,0,1,1.673.257,1.862,1.862,0,0,1,.959.759,3.147,3.147,0,0,1,.4,1,6.478,6.478,0,0,1,.1,1.244,8.234,8.234,0,0,1-.05.987,3.392,3.392,0,0,1-.236.873,1.857,1.857,0,0,1-.515.736,2.622,2.622,0,0,1-.922.465,4.738,4.738,0,0,1-1.409.187Zm1.831-.844a3.119,3.119,0,0,0,1.123-.172,1.231,1.231,0,0,0,.643-.537,2.276,2.276,0,0,0,.272-.736,5.811,5.811,0,0,0,.064-.959,5.931,5.931,0,0,0-.064-.965,2.274,2.274,0,0,0-.272-.744,1.225,1.225,0,0,0-.643-.536,3.1,3.1,0,0,0-1.123-.172h-1.831v4.821Z" fill="#112533"/><path d="M566.928,2852.537h3.033v.715h-1v9.012h1v.715h-3.033v-.715h1v-9.012h-1Z" fill="#112533"/><path d="M583.149,2854.8v-1.416H580.76v8.883H581.9v.715h-3.318v-.715h1.144v-8.883h-2.389v1.416h-.8v-2.26h7.41v2.26Z" fill="#112533"/><path d="M594.392,2852.537l3.233,9.727h.672v.715h-2.546v-.715h.844l-.873-2.661H591.66l-.873,2.661h.859v.715H589.1v-.715h.658l3.247-9.727Zm-2.446,6.222h3.5l-1.759-5.321Z" fill="#112533"/><path d="M604.8,2852.537h3.033v.715h-1.145v8.883h3.419v-1.416h.8v2.26H604.8v-.715h.859v-9.012H604.8Z" fill="#112533"/><path d="M490.406,2813.456l-5.274,10.9-9.077,9.535-.684-12.179,6-2.744Z" fill="#a8b7bf"/></g></svg>