<svg xmlns="http://www.w3.org/2000/svg" xmlns:xlink="http://www.w3.org/1999/xlink" width="157.935" height="90" viewBox="0 0 157.935 90"><defs><linearGradient id="a" x1="0.018" y1="0.982" x2="0.982" y2="0.018" gradientUnits="objectBoundingBox"><stop offset="0" stop-color="#4fb8a4"/><stop offset="0.463" stop-color="#38a8ad"/><stop offset="0.936" stop-color="#0e93b5"/><stop offset="1" stop-color="#0c91b5"/></linearGradient></defs><g transform="translate(-180 -4317.628)"><path d="M268.637,4346.827v3.295h-1.186v-8.809h2.6a4.889,4.889,0,0,1,1.454.194,2.794,2.794,0,0,1,1.024.55,2.221,2.221,0,0,1,.605.861,3.031,3.031,0,0,1,.2,1.124,2.872,2.872,0,0,1-.215,1.125,2.421,2.421,0,0,1-.63.879,2.927,2.927,0,0,1-1.03.575,4.415,4.415,0,0,1-1.408.206Zm0-.947h1.414a2.737,2.737,0,0,0,.9-.135,1.85,1.85,0,0,0,.654-.378,1.557,1.557,0,0,0,.4-.581,1.987,1.987,0,0,0,.135-.744,1.691,1.691,0,0,0-.519-1.315,2.267,2.267,0,0,0-1.571-.473h-1.414Z" fill="#fff"/><path d="M278.264,4349.176a2.464,2.464,0,0,0,.977-.185,2.061,2.061,0,0,0,.729-.516,2.275,2.275,0,0,0,.454-.793,3.128,3.128,0,0,0,.157-1.015v-5.354h1.187v5.354a4.012,4.012,0,0,1-.243,1.414,3.277,3.277,0,0,1-.7,1.128,3.171,3.171,0,0,1-1.1.747,4.085,4.085,0,0,1-2.926,0,3.2,3.2,0,0,1-1.107-.747,3.237,3.237,0,0,1-.7-1.128,4.012,4.012,0,0,1-.243-1.414v-5.354h1.186v5.348a3.125,3.125,0,0,0,.157,1.015,2.259,2.259,0,0,0,.455.793,2.072,2.072,0,0,0,.731.519A2.448,2.448,0,0,0,278.264,4349.176Z" fill="#fff"/><path d="M283.815,4350.122v-8.809h2.809a5.361,5.361,0,0,1,1.4.16,2.708,2.708,0,0,1,.965.455,1.794,1.794,0,0,1,.559.722,2.441,2.441,0,0,1,.182.962,1.94,1.94,0,0,1-.1.627,1.849,1.849,0,0,1-.307.56,2.195,2.195,0,0,1-.517.461,2.864,2.864,0,0,1-.728.332,2.722,2.722,0,0,1,1.457.694,1.82,1.82,0,0,1,.492,1.328,2.482,2.482,0,0,1-.206,1.021,2.21,2.21,0,0,1-.6.793,2.82,2.82,0,0,1-.971.513,4.356,4.356,0,0,1-1.313.181Zm1.192-4.862h1.574a3.04,3.04,0,0,0,.873-.111,1.765,1.765,0,0,0,.612-.307,1.208,1.208,0,0,0,.359-.477,1.566,1.566,0,0,0,.117-.611,1.351,1.351,0,0,0-.467-1.138,2.366,2.366,0,0,0-1.451-.362h-1.617Zm0,.848v3.068h1.906a2.891,2.891,0,0,0,.876-.117,1.632,1.632,0,0,0,.6-.329,1.287,1.287,0,0,0,.348-.5,1.8,1.8,0,0,0,.11-.643,1.325,1.325,0,0,0-.482-1.079,2.271,2.271,0,0,0-1.46-.4Z" fill="#fff"/><path d="M292.962,4349.12h3.811v1h-5v-8.809h1.193Z" fill="#fff"/><path d="M299.5,4350.122H298.31v-8.809H299.5Z" fill="#fff"/><path d="M306.375,4342.69a.464.464,0,0,1-.117.138.259.259,0,0,1-.16.047.425.425,0,0,1-.242-.1,3.867,3.867,0,0,0-.351-.231,2.9,2.9,0,0,0-.51-.23,2.18,2.18,0,0,0-.722-.1,2.132,2.132,0,0,0-.707.108,1.512,1.512,0,0,0-.514.292,1.2,1.2,0,0,0-.31.433,1.371,1.371,0,0,0-.1.538,1,1,0,0,0,.181.612,1.574,1.574,0,0,0,.479.415,3.677,3.677,0,0,0,.676.3q.379.126.775.261c.264.091.523.192.775.3a2.724,2.724,0,0,1,.676.427,1.94,1.94,0,0,1,.479.633,2.105,2.105,0,0,1,.182.922,2.979,2.979,0,0,1-.2,1.085,2.5,2.5,0,0,1-.575.882,2.679,2.679,0,0,1-.928.59,3.4,3.4,0,0,1-1.251.216,3.815,3.815,0,0,1-1.558-.311,3.656,3.656,0,0,1-1.2-.839l.344-.566a.442.442,0,0,1,.12-.113.276.276,0,0,1,.157-.046.491.491,0,0,1,.3.138,4.635,4.635,0,0,0,.415.3,3.177,3.177,0,0,0,.6.3,2.38,2.38,0,0,0,.864.138,2.261,2.261,0,0,0,.756-.117,1.593,1.593,0,0,0,.562-.329,1.416,1.416,0,0,0,.354-.507,1.694,1.694,0,0,0,.123-.658,1.11,1.11,0,0,0-.181-.654,1.507,1.507,0,0,0-.477-.428,3.375,3.375,0,0,0-.673-.292l-.775-.246a7.778,7.778,0,0,1-.774-.292,2.485,2.485,0,0,1-.673-.43,1.968,1.968,0,0,1-.477-.661,2.539,2.539,0,0,1,0-1.884,2.318,2.318,0,0,1,.526-.774,2.532,2.532,0,0,1,.851-.541,3.111,3.111,0,0,1,1.165-.2,3.734,3.734,0,0,1,1.346.233,3.087,3.087,0,0,1,1.064.677Z" fill="#fff"/><path d="M315.522,4350.122h-1.2v-4.008h-4.746v4.008h-1.2v-8.809h1.2v3.928h4.746v-3.928h1.2Z" fill="#fff"/><path d="M319.088,4350.122h-1.193v-8.809h1.193Z" fill="#fff"/><path d="M322.3,4341.353a.624.624,0,0,1,.175.163l5.1,6.639c-.012-.107-.021-.21-.025-.31s-.006-.2-.006-.292v-6.24h1.045v8.809h-.6a.517.517,0,0,1-.237-.049.605.605,0,0,1-.187-.166l-5.1-6.633c.008.1.014.2.018.3s.006.189.006.271v6.276h-1.045v-8.809h.615A.537.537,0,0,1,322.3,4341.353Z" fill="#fff"/><path d="M334.671,4349.255a5.994,5.994,0,0,0,.655-.033,4.259,4.259,0,0,0,.562-.1,3.766,3.766,0,0,0,.5-.163,5.013,5.013,0,0,0,.467-.218V4346.8h-1.364a.261.261,0,0,1-.188-.067.222.222,0,0,1-.071-.166v-.676h2.7v3.381a4.9,4.9,0,0,1-.691.418,4.7,4.7,0,0,1-.769.3,5.536,5.536,0,0,1-.876.178,8.157,8.157,0,0,1-1.014.059,4.587,4.587,0,0,1-1.758-.329,4.064,4.064,0,0,1-1.377-.922,4.174,4.174,0,0,1-.9-1.424,4.994,4.994,0,0,1-.322-1.825,5.121,5.121,0,0,1,.316-1.838,3.953,3.953,0,0,1,2.324-2.342,5.07,5.07,0,0,1,1.865-.326,5.708,5.708,0,0,1,.972.077,4.537,4.537,0,0,1,.833.221,3.906,3.906,0,0,1,.71.35,4.369,4.369,0,0,1,.608.464l-.338.541a.311.311,0,0,1-.27.166.427.427,0,0,1-.215-.067c-.1-.058-.218-.127-.345-.209a2.986,2.986,0,0,0-.464-.237,3.726,3.726,0,0,0-.645-.194,4.252,4.252,0,0,0-.882-.08,3.573,3.573,0,0,0-1.347.243,2.841,2.841,0,0,0-1.026.695,3.076,3.076,0,0,0-.652,1.094,4.294,4.294,0,0,0-.227,1.442,4.383,4.383,0,0,0,.236,1.49,3.141,3.141,0,0,0,.667,1.11,2.883,2.883,0,0,0,1.021.7A3.433,3.433,0,0,0,334.671,4349.255Z" fill="#fff"/><path d="M270.273,4330.175a.266.266,0,0,1-.062.074.143.143,0,0,1-.086.025.227.227,0,0,1-.129-.056,2.1,2.1,0,0,0-.187-.123,1.427,1.427,0,0,0-.272-.123,1.169,1.169,0,0,0-.385-.056,1.14,1.14,0,0,0-.376.058.809.809,0,0,0-.274.155.646.646,0,0,0-.165.231.739.739,0,0,0-.056.287.527.527,0,0,0,.1.326.826.826,0,0,0,.255.221,1.965,1.965,0,0,0,.361.159c.134.045.272.091.412.139s.279.1.413.162a1.437,1.437,0,0,1,.36.228,1.037,1.037,0,0,1,.256.337,1.131,1.131,0,0,1,.1.492,1.583,1.583,0,0,1-.105.578,1.322,1.322,0,0,1-.307.47,1.426,1.426,0,0,1-.494.314,1.819,1.819,0,0,1-.667.115,2.042,2.042,0,0,1-.83-.165,1.971,1.971,0,0,1-.641-.447l.184-.3a.232.232,0,0,1,.064-.06.144.144,0,0,1,.083-.025.258.258,0,0,1,.157.074,2.559,2.559,0,0,0,.222.162,1.639,1.639,0,0,0,.321.162,1.26,1.26,0,0,0,.46.074,1.2,1.2,0,0,0,.4-.063.838.838,0,0,0,.3-.175.766.766,0,0,0,.188-.27.9.9,0,0,0,.065-.351.588.588,0,0,0-.1-.348.8.8,0,0,0-.254-.228,1.819,1.819,0,0,0-.359-.156l-.413-.131a4.085,4.085,0,0,1-.412-.155,1.344,1.344,0,0,1-.359-.23,1.051,1.051,0,0,1-.254-.352,1.358,1.358,0,0,1,0-1,1.243,1.243,0,0,1,.28-.413,1.353,1.353,0,0,1,.454-.288,1.657,1.657,0,0,1,.621-.108,1.984,1.984,0,0,1,.717.125,1.658,1.658,0,0,1,.567.36Z" fill="#fff"/><path d="M274.636,4329.441v.534h-1.517v4.161h-.635v-4.161h-1.523v-.534Z" fill="#fff"/><path d="M276.1,4332.177v1.959h-.632v-4.7H276.8a2.856,2.856,0,0,1,.77.091,1.457,1.457,0,0,1,.535.26,1.039,1.039,0,0,1,.313.411,1.443,1.443,0,0,1,.023,1,1.207,1.207,0,0,1-.228.388,1.338,1.338,0,0,1-.363.293,1.815,1.815,0,0,1-.487.184.668.668,0,0,1,.21.2l1.369,1.864h-.563a.279.279,0,0,1-.256-.135l-1.218-1.677a.362.362,0,0,0-.121-.113.441.441,0,0,0-.2-.034Zm0-.462h.666a1.613,1.613,0,0,0,.489-.067,1,1,0,0,0,.354-.19.782.782,0,0,0,.214-.293.965.965,0,0,0,.073-.377.749.749,0,0,0-.277-.632,1.341,1.341,0,0,0-.824-.213h-.7Z" fill="#fff"/><path d="M283.582,4334.136h-.491a.213.213,0,0,1-.138-.043.25.25,0,0,1-.078-.108l-.439-1.133H280.33l-.439,1.133a.268.268,0,0,1-.079.1.211.211,0,0,1-.138.046h-.491l1.877-4.7h.645Zm-3.076-1.743h1.753l-.737-1.91a3.582,3.582,0,0,1-.141-.442c-.024.09-.048.172-.07.247s-.046.142-.067.2Z" fill="#fff"/><path d="M287.038,4329.441v.534h-1.516v4.161h-.636v-4.161h-1.523v-.534Z" fill="#fff"/><path d="M290.7,4329.441v.518h-2.254v1.559h1.825v.5h-1.825v1.6H290.7v.518H287.8v-4.7Z" fill="#fff"/><path d="M293.8,4333.674a3.076,3.076,0,0,0,.349-.018,2.205,2.205,0,0,0,.3-.054,2.057,2.057,0,0,0,.266-.087c.083-.034.166-.073.249-.116v-1.036h-.728a.137.137,0,0,1-.1-.036.117.117,0,0,1-.037-.088v-.36h1.441v1.8a2.542,2.542,0,0,1-.368.223,2.512,2.512,0,0,1-.41.159,2.947,2.947,0,0,1-.467.1,4.322,4.322,0,0,1-.54.031,2.441,2.441,0,0,1-.937-.175,2.159,2.159,0,0,1-.734-.492,2.23,2.23,0,0,1-.48-.758,2.679,2.679,0,0,1-.172-.973,2.715,2.715,0,0,1,.169-.979,2.1,2.1,0,0,1,1.238-1.248,2.7,2.7,0,0,1,.994-.174,3.064,3.064,0,0,1,.518.041,2.449,2.449,0,0,1,.444.118,2.112,2.112,0,0,1,.378.187,2.335,2.335,0,0,1,.325.247l-.181.288a.166.166,0,0,1-.144.089.228.228,0,0,1-.114-.036c-.055-.031-.116-.068-.184-.112a1.715,1.715,0,0,0-.247-.126,1.975,1.975,0,0,0-.344-.1,2.3,2.3,0,0,0-.47-.043,1.914,1.914,0,0,0-.718.13,1.508,1.508,0,0,0-.547.37,1.649,1.649,0,0,0-.347.583,2.283,2.283,0,0,0-.121.768,2.334,2.334,0,0,0,.126.795,1.692,1.692,0,0,0,.355.591,1.532,1.532,0,0,0,.544.37A1.834,1.834,0,0,0,293.8,4333.674Z" fill="#fff"/><path d="M298.425,4332.268v1.868h-.632v-1.868l-1.72-2.827h.557a.2.2,0,0,1,.134.043.392.392,0,0,1,.085.1l1.075,1.825a2.221,2.221,0,0,1,.109.216c.03.067.057.134.081.2.024-.068.05-.136.078-.2a2.016,2.016,0,0,1,.108-.212l1.072-1.825a.415.415,0,0,1,.08-.1.187.187,0,0,1,.133-.048h.563Z" fill="#fff"/><path d="M305.808,4332.177v1.959h-.632v-4.7H306.5a2.856,2.856,0,0,1,.77.091,1.45,1.45,0,0,1,.535.26,1.049,1.049,0,0,1,.313.411,1.443,1.443,0,0,1,.023,1,1.207,1.207,0,0,1-.228.388,1.338,1.338,0,0,1-.363.293,1.8,1.8,0,0,1-.487.184.668.668,0,0,1,.21.2l1.369,1.864h-.563a.279.279,0,0,1-.256-.135l-1.218-1.677a.362.362,0,0,0-.121-.113.441.441,0,0,0-.2-.034Zm0-.462h.665a1.616,1.616,0,0,0,.49-.067,1,1,0,0,0,.354-.19.807.807,0,0,0,.215-.293.965.965,0,0,0,.072-.377.749.749,0,0,0-.277-.632,1.341,1.341,0,0,0-.824-.213h-.695Z" fill="#fff"/><path d="M312.321,4329.441v.518h-2.254v1.559h1.825v.5h-1.825v1.6h2.254v.518h-2.893v-4.7Z" fill="#fff"/><path d="M315.737,4330.175a.236.236,0,0,1-.062.074.14.14,0,0,1-.085.025.232.232,0,0,1-.13-.056,2.222,2.222,0,0,0-.186-.123,1.457,1.457,0,0,0-.272-.123,1.169,1.169,0,0,0-.385-.056,1.142,1.142,0,0,0-.377.058.8.8,0,0,0-.273.155.649.649,0,0,0-.166.231.739.739,0,0,0-.055.287.533.533,0,0,0,.1.326.842.842,0,0,0,.256.221,1.985,1.985,0,0,0,.36.159l.413.139c.141.048.278.1.412.162a1.444,1.444,0,0,1,.361.228,1.035,1.035,0,0,1,.255.337,1.116,1.116,0,0,1,.1.492,1.583,1.583,0,0,1-.105.578,1.333,1.333,0,0,1-.306.47,1.421,1.421,0,0,1-.495.314,1.809,1.809,0,0,1-.666.115,2.044,2.044,0,0,1-.831-.165,1.967,1.967,0,0,1-.64-.447l.183-.3a.247.247,0,0,1,.064-.06.145.145,0,0,1,.084-.025.26.26,0,0,1,.157.074,2.691,2.691,0,0,0,.221.162,1.668,1.668,0,0,0,.321.162,1.264,1.264,0,0,0,.46.074,1.2,1.2,0,0,0,.4-.063.838.838,0,0,0,.3-.175.741.741,0,0,0,.188-.27.9.9,0,0,0,.066-.351.581.581,0,0,0-.1-.348.787.787,0,0,0-.254-.228,1.809,1.809,0,0,0-.358-.156l-.413-.131a4.011,4.011,0,0,1-.413-.155,1.359,1.359,0,0,1-.359-.23,1.062,1.062,0,0,1-.253-.352,1.346,1.346,0,0,1,0-1,1.228,1.228,0,0,1,.28-.413,1.348,1.348,0,0,1,.453-.288,1.661,1.661,0,0,1,.621-.108,1.993,1.993,0,0,1,.718.125,1.645,1.645,0,0,1,.566.36Z" fill="#fff"/><path d="M319.8,4329.441v.518h-2.254v1.559h1.825v.5h-1.825v1.6H319.8v.518H316.9v-4.7Z" fill="#fff"/><path d="M324.67,4334.136h-.491a.208.208,0,0,1-.137-.043.252.252,0,0,1-.079-.108l-.439-1.133h-2.106l-.439,1.133a.268.268,0,0,1-.079.1.211.211,0,0,1-.138.046h-.491l1.877-4.7h.645Zm-3.076-1.743h1.753l-.737-1.91a3.593,3.593,0,0,1-.141-.442c-.024.09-.047.172-.07.247s-.046.142-.067.2Z" fill="#fff"/><path d="M326.059,4332.177v1.959h-.632v-4.7h1.327a2.848,2.848,0,0,1,.769.091,1.454,1.454,0,0,1,.536.26,1.049,1.049,0,0,1,.313.411,1.443,1.443,0,0,1,.023,1,1.225,1.225,0,0,1-.228.388,1.338,1.338,0,0,1-.363.293,1.815,1.815,0,0,1-.487.184.668.668,0,0,1,.21.2l1.369,1.864h-.563a.279.279,0,0,1-.256-.135l-1.218-1.677a.365.365,0,0,0-.122-.113.434.434,0,0,0-.2-.034Zm0-.462h.665a1.615,1.615,0,0,0,.49-.067,1,1,0,0,0,.354-.19.793.793,0,0,0,.214-.293.965.965,0,0,0,.072-.377.749.749,0,0,0-.276-.632,1.343,1.343,0,0,0-.824-.213h-.7Z" fill="#fff"/><path d="M332.837,4333.166a.131.131,0,0,1,.1.043l.249.272a2.005,2.005,0,0,1-.7.52,2.381,2.381,0,0,1-.991.187,2.335,2.335,0,0,1-.921-.175,2.019,2.019,0,0,1-.7-.492,2.2,2.2,0,0,1-.452-.758,2.836,2.836,0,0,1-.161-.973,2.678,2.678,0,0,1,.172-.973,2.234,2.234,0,0,1,.483-.76,2.183,2.183,0,0,1,.746-.493,2.554,2.554,0,0,1,.958-.175,2.139,2.139,0,0,1,1.559.6l-.206.292a.231.231,0,0,1-.053.054.143.143,0,0,1-.085.021.166.166,0,0,1-.09-.031l-.113-.077c-.044-.03-.1-.063-.154-.1a1.3,1.3,0,0,0-.21-.1,1.617,1.617,0,0,0-.281-.077,1.938,1.938,0,0,0-.37-.032,1.794,1.794,0,0,0-.69.13,1.541,1.541,0,0,0-.539.368,1.679,1.679,0,0,0-.352.583,2.228,2.228,0,0,0-.126.77,2.265,2.265,0,0,0,.126.783,1.742,1.742,0,0,0,.344.582,1.449,1.449,0,0,0,.516.362,1.647,1.647,0,0,0,.642.124,2.581,2.581,0,0,0,.377-.025,1.516,1.516,0,0,0,.309-.077,1.316,1.316,0,0,0,.266-.132,2.245,2.245,0,0,0,.247-.192A.166.166,0,0,1,332.837,4333.166Z" fill="#fff"/><path d="M337.921,4334.136h-.639V4332h-2.529v2.136h-.639v-4.7h.639v2.094h2.529v-2.094h.639Z" fill="#fff"/><rect width="73.31" height="73.31" transform="translate(180 4336.896) rotate(-15.238)" fill="url(#a)"/><path d="M202.776,4365.144a6.392,6.392,0,0,1-.423,2.349,5.554,5.554,0,0,1-1.189,1.871,5.372,5.372,0,0,1-1.843,1.233,6.657,6.657,0,0,1-4.775,0,5.4,5.4,0,0,1-1.851-1.233,5.533,5.533,0,0,1-1.193-1.871,6.737,6.737,0,0,1,0-4.7,5.54,5.54,0,0,1,1.193-1.871,5.4,5.4,0,0,1,1.851-1.233,6.254,6.254,0,0,1,2.39-.443,6.167,6.167,0,0,1,2.385.447,5.462,5.462,0,0,1,1.843,1.233,5.525,5.525,0,0,1,1.189,1.867A6.4,6.4,0,0,1,202.776,4365.144Zm-2.2,0a5.394,5.394,0,0,0-.251-1.7,3.617,3.617,0,0,0-.722-1.281,3.125,3.125,0,0,0-1.145-.806,4.294,4.294,0,0,0-3.044,0,3.146,3.146,0,0,0-1.153.806,3.6,3.6,0,0,0-.73,1.281,5.8,5.8,0,0,0,0,3.407,3.57,3.57,0,0,0,.73,1.277,3.156,3.156,0,0,0,1.153.8,4.273,4.273,0,0,0,3.044,0,3.135,3.135,0,0,0,1.145-.8,3.586,3.586,0,0,0,.722-1.277A5.388,5.388,0,0,0,200.574,4365.144Z" fill="#fff"/><path d="M206.686,4366.4v4.508H204.54v-11.537h3.518a7.358,7.358,0,0,1,2.023.243,3.852,3.852,0,0,1,1.38.682,2.637,2.637,0,0,1,.79,1.049,3.667,3.667,0,0,1,.08,2.446,3.16,3.16,0,0,1-.495.942,3.314,3.314,0,0,1-.8.742,4.181,4.181,0,0,1-1.081.51,2.123,2.123,0,0,1,.7.662l2.889,4.261h-1.931a.936.936,0,0,1-.475-.112.954.954,0,0,1-.331-.319l-2.426-3.694a.848.848,0,0,0-.3-.295,1.04,1.04,0,0,0-.483-.088Zm0-1.54h1.34a3.327,3.327,0,0,0,1.058-.151,2.055,2.055,0,0,0,.742-.419,1.672,1.672,0,0,0,.434-.635,2.184,2.184,0,0,0,.144-.805,1.641,1.641,0,0,0-.578-1.349,2.768,2.768,0,0,0-1.768-.471h-1.372Z" fill="#fff"/><path d="M217.338,4370.912h-2.155v-11.537h2.155Z" fill="#fff"/><path d="M227.207,4359.375v1.707h-5.114v3.2h4.029v1.651h-4.029v3.264h5.114v1.715h-7.276v-11.537Z" fill="#fff"/><path d="M231.213,4369.141h4.62v1.771h-6.766v-11.537h2.146Z" fill="#fff"/><path d="M207.714,4376.477a.593.593,0,0,1-.2.248.511.511,0,0,1-.275.072.7.7,0,0,1-.359-.124c-.133-.083-.29-.174-.471-.275a3.892,3.892,0,0,0-.634-.276,2.679,2.679,0,0,0-.858-.123,2.555,2.555,0,0,0-.778.107,1.655,1.655,0,0,0-.559.3,1.206,1.206,0,0,0-.339.458,1.521,1.521,0,0,0-.111.587,1.016,1.016,0,0,0,.227.678,1.9,1.9,0,0,0,.6.463,5.624,5.624,0,0,0,.854.343q.479.152.978.323a9.251,9.251,0,0,1,.977.4,3.407,3.407,0,0,1,.854.574,2.6,2.6,0,0,1,.6.85,2.944,2.944,0,0,1,.228,1.221,3.984,3.984,0,0,1-.268,1.464,3.375,3.375,0,0,1-.782,1.189,3.68,3.68,0,0,1-1.256.8,4.638,4.638,0,0,1-1.7.291,5.479,5.479,0,0,1-1.085-.108,5.609,5.609,0,0,1-1.025-.307,5.309,5.309,0,0,1-.918-.479,4.5,4.5,0,0,1-.762-.622l.622-1.029a.789.789,0,0,1,.212-.188.521.521,0,0,1,.275-.075.761.761,0,0,1,.431.163q.231.163.547.363a4.176,4.176,0,0,0,.742.363,2.868,2.868,0,0,0,1.025.164,2.1,2.1,0,0,0,1.42-.435,1.562,1.562,0,0,0,.5-1.249,1.165,1.165,0,0,0-.227-.742,1.864,1.864,0,0,0-.6-.483,4.6,4.6,0,0,0-.854-.331q-.479-.135-.973-.295a8.372,8.372,0,0,1-.974-.383,3.164,3.164,0,0,1-.853-.582,2.669,2.669,0,0,1-.6-.9,3.432,3.432,0,0,1-.227-1.328,3.173,3.173,0,0,1,.985-2.29,3.616,3.616,0,0,1,1.185-.742,4.307,4.307,0,0,1,1.6-.28,5.4,5.4,0,0,1,1.883.319,4.265,4.265,0,0,1,1.468.894Z" fill="#fff"/><path d="M221.159,4380.148a6.657,6.657,0,0,1-.16,1.48,6.053,6.053,0,0,1-.458,1.32,5.5,5.5,0,0,1-.731,1.129,5.21,5.21,0,0,1-.981.906l2.928,3.191h-1.771a2.146,2.146,0,0,1-.69-.1,1.354,1.354,0,0,1-.563-.383l-1.691-1.867a6.125,6.125,0,0,1-.834.167,6.882,6.882,0,0,1-.89.056,6.248,6.248,0,0,1-2.389-.443,5.415,5.415,0,0,1-1.851-1.232,5.539,5.539,0,0,1-1.193-1.872,6.737,6.737,0,0,1,0-4.7,5.525,5.525,0,0,1,1.193-1.871,5.4,5.4,0,0,1,1.851-1.233,6.248,6.248,0,0,1,2.389-.443,6.159,6.159,0,0,1,2.386.447,5.454,5.454,0,0,1,1.843,1.233,5.518,5.518,0,0,1,1.189,1.867A6.4,6.4,0,0,1,221.159,4380.148Zm-2.2,0a5.365,5.365,0,0,0-.252-1.7,3.6,3.6,0,0,0-.722-1.28,3.094,3.094,0,0,0-1.145-.806,4.28,4.28,0,0,0-3.044,0,3.131,3.131,0,0,0-1.153.806,3.64,3.64,0,0,0-.73,1.28,5.819,5.819,0,0,0,0,3.407,3.6,3.6,0,0,0,.73,1.277,3.168,3.168,0,0,0,1.153.8,4.294,4.294,0,0,0,3.044,0,3.13,3.13,0,0,0,1.145-.8,3.556,3.556,0,0,0,.722-1.277A5.359,5.359,0,0,0,218.957,4380.148Z" fill="#fff"/><path d="M227.494,4384.185a2.836,2.836,0,0,0,1.113-.207,2.333,2.333,0,0,0,.83-.583,2.548,2.548,0,0,0,.519-.91,3.759,3.759,0,0,0,.179-1.2v-6.91h2.147v6.91a5.324,5.324,0,0,1-.332,1.9A4.3,4.3,0,0,1,231,4384.7a4.355,4.355,0,0,1-1.508.989,5.783,5.783,0,0,1-3.99,0,4.22,4.22,0,0,1-2.453-2.5,5.323,5.323,0,0,1-.331-1.9v-6.91h2.146v6.9a3.732,3.732,0,0,0,.18,1.2,2.613,2.613,0,0,0,.514.914,2.274,2.274,0,0,0,.826.587A2.836,2.836,0,0,0,227.494,4384.185Z" fill="#fff"/><path d="M244.194,4385.916h-1.659a.722.722,0,0,1-.459-.139.8.8,0,0,1-.26-.347l-.861-2.354h-4.78l-.861,2.354a.764.764,0,0,1-.252.335.705.705,0,0,1-.458.151h-1.668l4.532-11.537h2.194Zm-7.468-4.356H240.4l-1.4-3.838c-.064-.17-.134-.371-.212-.6s-.152-.483-.227-.754q-.111.406-.219.758c-.072.234-.143.439-.212.614Z" fill="#fff"/><path d="M247.6,4381.408v4.508h-2.146v-11.537h3.518a7.353,7.353,0,0,1,2.023.243,3.877,3.877,0,0,1,1.38.682,2.623,2.623,0,0,1,.79,1.05,3.664,3.664,0,0,1,.08,2.445,3.169,3.169,0,0,1-.495.942,3.336,3.336,0,0,1-.8.742,4.157,4.157,0,0,1-1.082.51,2.127,2.127,0,0,1,.7.663l2.888,4.26h-1.931a.954.954,0,0,1-.475-.111.987.987,0,0,1-.331-.319l-2.425-3.695a.863.863,0,0,0-.3-.295,1.052,1.052,0,0,0-.482-.088Zm0-1.54h1.341a3.324,3.324,0,0,0,1.057-.151,2.04,2.04,0,0,0,.742-.419,1.686,1.686,0,0,0,.435-.634,2.214,2.214,0,0,0,.143-.806,1.642,1.642,0,0,0-.578-1.349,2.768,2.768,0,0,0-1.768-.47H247.6Z" fill="#fff"/><path d="M263.112,4374.379v1.707H258v3.2h4.029v1.652H258v3.263h5.114v1.715h-7.277v-11.537Z" fill="#fff"/><rect width="32.759" height="0.34" transform="translate(267.504 4337.63)" fill="#fff"/><rect width="32.759" height="0.34" transform="translate(305.121 4337.63)" fill="#fff"/></g></svg>