<svg xmlns="http://www.w3.org/2000/svg" xmlns:xlink="http://www.w3.org/1999/xlink" width="175.484" height="100" viewBox="0 0 175.484 100"><defs><linearGradient id="a" x1="0.018" y1="0.982" x2="0.982" y2="0.018" gradientUnits="objectBoundingBox"><stop offset="0" stop-color="#4fb8a4"/><stop offset="0.463" stop-color="#38a8ad"/><stop offset="0.936" stop-color="#0e93b5"/><stop offset="1" stop-color="#0c91b5"/></linearGradient></defs><g transform="translate(-131.336 -3167.771)"><path d="M229.822,3200.214v3.661H228.5v-9.787h2.889a5.4,5.4,0,0,1,1.615.215,3.088,3.088,0,0,1,1.137.611,2.46,2.46,0,0,1,.673.956,3.366,3.366,0,0,1,.222,1.25,3.191,3.191,0,0,1-.239,1.25,2.687,2.687,0,0,1-.7.977,3.244,3.244,0,0,1-1.144.638,4.908,4.908,0,0,1-1.564.229Zm0-1.052h1.571a3.05,3.05,0,0,0,1-.15,2.043,2.043,0,0,0,.728-.42,1.743,1.743,0,0,0,.444-.645,2.213,2.213,0,0,0,.15-.827,1.878,1.878,0,0,0-.577-1.462,2.524,2.524,0,0,0-1.745-.525h-1.571Z" fill="#1f2e2e"/><path d="M240.518,3202.824a2.746,2.746,0,0,0,1.086-.205,2.269,2.269,0,0,0,.809-.574,2.511,2.511,0,0,0,.506-.881,3.487,3.487,0,0,0,.174-1.127v-5.949h1.318v5.949a4.486,4.486,0,0,1-.269,1.571,3.683,3.683,0,0,1-.772,1.253,3.531,3.531,0,0,1-1.226.83,4.556,4.556,0,0,1-3.252,0,3.562,3.562,0,0,1-1.229-.83,3.629,3.629,0,0,1-.775-1.253,4.464,4.464,0,0,1-.27-1.571v-5.949h1.318v5.942a3.487,3.487,0,0,0,.174,1.127,2.512,2.512,0,0,0,.506.881,2.31,2.31,0,0,0,.813.577A2.717,2.717,0,0,0,240.518,3202.824Z" fill="#1f2e2e"/><path d="M246.686,3203.875v-9.787h3.121a5.992,5.992,0,0,1,1.554.177,3.042,3.042,0,0,1,1.073.505,2,2,0,0,1,.621.8,2.72,2.72,0,0,1,.2,1.069,2.176,2.176,0,0,1-.113.7,2.015,2.015,0,0,1-.342.621,2.4,2.4,0,0,1-.573.513,3.177,3.177,0,0,1-.81.368,3.025,3.025,0,0,1,1.619.772,2.025,2.025,0,0,1,.546,1.476,2.752,2.752,0,0,1-.228,1.133,2.433,2.433,0,0,1-.67.882,3.13,3.13,0,0,1-1.079.57,4.856,4.856,0,0,1-1.458.2Zm1.325-5.4h1.748a3.4,3.4,0,0,0,.97-.123,1.956,1.956,0,0,0,.68-.342,1.342,1.342,0,0,0,.4-.529,1.757,1.757,0,0,0,.129-.68,1.5,1.5,0,0,0-.519-1.263,2.621,2.621,0,0,0-1.612-.4h-1.8Zm0,.942v3.409h2.117a3.242,3.242,0,0,0,.974-.13,1.827,1.827,0,0,0,.669-.366,1.414,1.414,0,0,0,.386-.56,2,2,0,0,0,.123-.714,1.469,1.469,0,0,0-.536-1.2,2.519,2.519,0,0,0-1.623-.441Z" fill="#1f2e2e"/><path d="M256.849,3202.762h4.235v1.113h-5.56v-9.787h1.325Z" fill="#1f2e2e"/><path d="M264.117,3203.875h-1.326v-9.787h1.326Z" fill="#1f2e2e"/><path d="M271.753,3195.617a.527.527,0,0,1-.13.154.291.291,0,0,1-.178.051.467.467,0,0,1-.269-.116,4.633,4.633,0,0,0-.39-.256,3.21,3.21,0,0,0-.567-.256,2.444,2.444,0,0,0-.8-.116,2.393,2.393,0,0,0-.786.119,1.671,1.671,0,0,0-.57.325,1.319,1.319,0,0,0-.345.481,1.54,1.54,0,0,0-.116.6,1.108,1.108,0,0,0,.2.68,1.748,1.748,0,0,0,.533.461,4.1,4.1,0,0,0,.751.331c.281.093.567.19.861.29s.581.213.861.338a3.062,3.062,0,0,1,.751.475,2.156,2.156,0,0,1,.533.7,2.343,2.343,0,0,1,.2,1.024,3.324,3.324,0,0,1-.218,1.206,2.793,2.793,0,0,1-.639.98,3,3,0,0,1-1.031.656,3.805,3.805,0,0,1-1.39.239,4.244,4.244,0,0,1-1.732-.345,4.06,4.06,0,0,1-1.335-.933l.382-.628a.505.505,0,0,1,.134-.126.3.3,0,0,1,.174-.052.546.546,0,0,1,.328.154,5.28,5.28,0,0,0,.461.338,3.471,3.471,0,0,0,.669.338,2.631,2.631,0,0,0,.96.154,2.507,2.507,0,0,0,.84-.13,1.774,1.774,0,0,0,.625-.365,1.577,1.577,0,0,0,.393-.564,1.881,1.881,0,0,0,.136-.731,1.228,1.228,0,0,0-.2-.727,1.681,1.681,0,0,0-.53-.475,3.722,3.722,0,0,0-.748-.324l-.86-.273a8.793,8.793,0,0,1-.861-.325,2.8,2.8,0,0,1-.748-.478,2.2,2.2,0,0,1-.529-.734,2.81,2.81,0,0,1,0-2.094,2.58,2.58,0,0,1,.584-.86,2.813,2.813,0,0,1,.946-.6,3.448,3.448,0,0,1,1.294-.226,4.141,4.141,0,0,1,1.5.26,3.437,3.437,0,0,1,1.182.751Z" fill="#1f2e2e"/><path d="M281.916,3203.875h-1.332v-4.453h-5.273v4.453h-1.332v-9.787h1.332v4.364h5.273v-4.364h1.332Z" fill="#1f2e2e"/><path d="M285.878,3203.875h-1.325v-9.787h1.325Z" fill="#1f2e2e"/><path d="M289.447,3194.132a.686.686,0,0,1,.194.181l5.669,7.377q-.02-.178-.027-.345c0-.112-.007-.22-.007-.325v-6.932h1.161v9.787h-.669a.577.577,0,0,1-.263-.054.662.662,0,0,1-.208-.185l-5.663-7.37c.009.114.016.226.021.335s.007.21.007.3v6.973H288.5v-9.787h.683A.59.59,0,0,1,289.447,3194.132Z" fill="#1f2e2e"/><path d="M303.193,3202.912a6.521,6.521,0,0,0,.727-.037,4.61,4.61,0,0,0,.625-.113,4.167,4.167,0,0,0,.553-.181c.173-.071.346-.151.519-.242v-2.159H304.1a.288.288,0,0,1-.208-.075.242.242,0,0,1-.079-.184v-.752h3.006v3.757a5.348,5.348,0,0,1-.769.464,5.135,5.135,0,0,1-.854.332,6.2,6.2,0,0,1-.973.2,9.17,9.17,0,0,1-1.127.065,5.074,5.074,0,0,1-1.953-.366,4.492,4.492,0,0,1-1.53-1.024,4.642,4.642,0,0,1-1-1.582,5.546,5.546,0,0,1-.359-2.028,5.672,5.672,0,0,1,.352-2.042,4.388,4.388,0,0,1,2.582-2.6,5.658,5.658,0,0,1,2.073-.362,6.4,6.4,0,0,1,1.079.086,5.049,5.049,0,0,1,.926.246,4.312,4.312,0,0,1,.789.389,4.771,4.771,0,0,1,.676.516l-.376.6a.344.344,0,0,1-.3.184.482.482,0,0,1-.239-.075q-.171-.1-.383-.232a3.237,3.237,0,0,0-.516-.263,4.029,4.029,0,0,0-.717-.215,4.656,4.656,0,0,0-.98-.089,3.987,3.987,0,0,0-1.5.269,3.172,3.172,0,0,0-1.14.772,3.4,3.4,0,0,0-.724,1.216,4.766,4.766,0,0,0-.253,1.6,4.837,4.837,0,0,0,.263,1.656,3.49,3.49,0,0,0,.741,1.233,3.2,3.2,0,0,0,1.134.772A3.8,3.8,0,0,0,303.193,3202.912Z" fill="#1f2e2e"/><path d="M231.639,3181.712a.278.278,0,0,1-.069.082.155.155,0,0,1-.1.027.245.245,0,0,1-.143-.062,2.462,2.462,0,0,0-.208-.136,1.712,1.712,0,0,0-.3-.137,1.309,1.309,0,0,0-.428-.061,1.276,1.276,0,0,0-.418.063.886.886,0,0,0-.3.173.705.705,0,0,0-.184.257.817.817,0,0,0-.062.318.583.583,0,0,0,.108.362.921.921,0,0,0,.283.246,2.207,2.207,0,0,0,.4.177c.149.049.3.1.458.154s.31.114.459.181a1.614,1.614,0,0,1,.4.252,1.144,1.144,0,0,1,.284.375,1.242,1.242,0,0,1,.108.546,1.757,1.757,0,0,1-.117.643,1.477,1.477,0,0,1-.34.522,1.6,1.6,0,0,1-.55.35,2.039,2.039,0,0,1-.74.127,2.253,2.253,0,0,1-.923-.184,2.158,2.158,0,0,1-.712-.5l.2-.335a.283.283,0,0,1,.071-.067.17.17,0,0,1,.093-.027.288.288,0,0,1,.175.082c.065.054.147.114.245.18a1.944,1.944,0,0,0,.357.18,1.4,1.4,0,0,0,.511.082,1.35,1.35,0,0,0,.448-.069.948.948,0,0,0,.333-.2.842.842,0,0,0,.209-.3,1,1,0,0,0,.073-.39.656.656,0,0,0-.107-.387.9.9,0,0,0-.282-.253,1.974,1.974,0,0,0-.4-.173l-.458-.146a4.54,4.54,0,0,1-.459-.173,1.5,1.5,0,0,1-.4-.254,1.191,1.191,0,0,1-.282-.392,1.5,1.5,0,0,1,0-1.115,1.385,1.385,0,0,1,.312-.459,1.507,1.507,0,0,1,.5-.32,1.844,1.844,0,0,1,.689-.12,2.216,2.216,0,0,1,.8.138,1.835,1.835,0,0,1,.629.4Z" fill="#1f2e2e"/><path d="M236.487,3180.9v.593H234.8v4.623H234.1v-4.623H232.4v-.593Z" fill="#1f2e2e"/><path d="M238.114,3183.936v2.177h-.7V3180.9h1.474a3.2,3.2,0,0,1,.855.1,1.635,1.635,0,0,1,.6.289,1.164,1.164,0,0,1,.348.457,1.531,1.531,0,0,1,.113.6,1.508,1.508,0,0,1-.087.517,1.365,1.365,0,0,1-.254.431,1.532,1.532,0,0,1-.4.326,2.013,2.013,0,0,1-.541.2.752.752,0,0,1,.233.222l1.521,2.071h-.626a.308.308,0,0,1-.284-.15L239,3184.1a.4.4,0,0,0-.134-.126.5.5,0,0,0-.219-.038Zm0-.513h.739a1.786,1.786,0,0,0,.544-.075,1.111,1.111,0,0,0,.394-.211.872.872,0,0,0,.238-.326,1.067,1.067,0,0,0,.08-.418.833.833,0,0,0-.308-.7,1.491,1.491,0,0,0-.915-.236h-.772Z" fill="#1f2e2e"/><path d="M246.428,3186.113h-.546a.232.232,0,0,1-.153-.048.29.29,0,0,1-.088-.12l-.487-1.259h-2.341l-.488,1.259a.276.276,0,0,1-.087.117.232.232,0,0,1-.153.051h-.546l2.086-5.216h.717Zm-3.418-1.937h1.947l-.819-2.122a4.061,4.061,0,0,1-.156-.491c-.027.1-.053.191-.079.275s-.05.157-.074.22Z" fill="#1f2e2e"/><path d="M250.267,3180.9v.593h-1.685v4.623h-.706v-4.623h-1.692v-.593Z" fill="#1f2e2e"/><path d="M254.333,3180.9v.575h-2.5v1.732h2.027v.554h-2.027v1.78h2.5v.575h-3.214V3180.9Z" fill="#1f2e2e"/><path d="M257.783,3185.6a3.332,3.332,0,0,0,.388-.02,2.4,2.4,0,0,0,.333-.06,2.117,2.117,0,0,0,.3-.1c.092-.038.184-.081.277-.129v-1.151h-.808a.154.154,0,0,1-.112-.04.132.132,0,0,1-.041-.1v-.4h1.6v2a2.914,2.914,0,0,1-.409.247,2.814,2.814,0,0,1-.455.177,3.363,3.363,0,0,1-.519.1,4.859,4.859,0,0,1-.6.035,2.706,2.706,0,0,1-1.041-.195,2.4,2.4,0,0,1-.816-.546,2.472,2.472,0,0,1-.533-.842,2.968,2.968,0,0,1-.191-1.081,3.036,3.036,0,0,1,.187-1.089,2.409,2.409,0,0,1,.535-.842,2.373,2.373,0,0,1,.841-.544,3.006,3.006,0,0,1,1.105-.193,3.446,3.446,0,0,1,.575.045,2.684,2.684,0,0,1,.493.131,2.242,2.242,0,0,1,.42.208,2.542,2.542,0,0,1,.361.274l-.2.321a.186.186,0,0,1-.161.1.255.255,0,0,1-.127-.04c-.061-.034-.128-.075-.2-.124a1.8,1.8,0,0,0-.275-.14,2.218,2.218,0,0,0-.382-.115,2.556,2.556,0,0,0-.522-.047,2.112,2.112,0,0,0-.8.144,1.686,1.686,0,0,0-.608.411,1.843,1.843,0,0,0-.386.648,2.818,2.818,0,0,0,.006,1.736,1.845,1.845,0,0,0,.395.657,1.679,1.679,0,0,0,.6.411A2.024,2.024,0,0,0,257.783,3185.6Z" fill="#1f2e2e"/><path d="M262.919,3184.038v2.075h-.7v-2.075l-1.911-3.141h.619a.224.224,0,0,1,.149.047.454.454,0,0,1,.094.117l1.194,2.027a2.3,2.3,0,0,1,.122.24c.033.075.063.149.089.222.027-.075.056-.15.088-.225a1.824,1.824,0,0,1,.12-.237l1.19-2.027a.48.48,0,0,1,.089-.111.206.206,0,0,1,.148-.053h.626Z" fill="#1f2e2e"/><path d="M271.123,3183.936v2.177h-.7V3180.9h1.474a3.2,3.2,0,0,1,.855.1,1.635,1.635,0,0,1,.6.289,1.163,1.163,0,0,1,.348.457,1.531,1.531,0,0,1,.113.6,1.484,1.484,0,0,1-.088.517,1.344,1.344,0,0,1-.253.431,1.521,1.521,0,0,1-.4.326,1.994,1.994,0,0,1-.54.2.752.752,0,0,1,.233.222l1.521,2.071h-.626a.308.308,0,0,1-.284-.15l-1.354-1.863a.4.4,0,0,0-.134-.126.5.5,0,0,0-.219-.038Zm0-.513h.739a1.786,1.786,0,0,0,.544-.075,1.1,1.1,0,0,0,.393-.211.874.874,0,0,0,.239-.326,1.067,1.067,0,0,0,.08-.418.833.833,0,0,0-.308-.7,1.491,1.491,0,0,0-.915-.236h-.772Z" fill="#1f2e2e"/><path d="M278.359,3180.9v.575h-2.5v1.732h2.027v.554h-2.027v1.78h2.5v.575h-3.214V3180.9Z" fill="#1f2e2e"/><path d="M282.155,3181.712a.278.278,0,0,1-.069.082.155.155,0,0,1-.1.027.245.245,0,0,1-.143-.062,2.461,2.461,0,0,0-.208-.136,1.68,1.68,0,0,0-.3-.137,1.309,1.309,0,0,0-.428-.061,1.276,1.276,0,0,0-.418.063.886.886,0,0,0-.3.173.718.718,0,0,0-.184.257.817.817,0,0,0-.062.318.583.583,0,0,0,.108.362.914.914,0,0,0,.284.246,2.165,2.165,0,0,0,.4.177c.149.049.3.1.458.154s.31.114.459.181a1.615,1.615,0,0,1,.4.252,1.143,1.143,0,0,1,.284.375,1.242,1.242,0,0,1,.108.546,1.757,1.757,0,0,1-.117.643,1.477,1.477,0,0,1-.34.522,1.586,1.586,0,0,1-.55.35,2.04,2.04,0,0,1-.74.127,2.253,2.253,0,0,1-.923-.184,2.158,2.158,0,0,1-.712-.5l.2-.335a.283.283,0,0,1,.071-.067.17.17,0,0,1,.093-.027.288.288,0,0,1,.175.082c.065.054.147.114.245.18a1.943,1.943,0,0,0,.357.18,1.4,1.4,0,0,0,.512.082,1.348,1.348,0,0,0,.447-.069.948.948,0,0,0,.333-.2.858.858,0,0,0,.21-.3,1.018,1.018,0,0,0,.072-.39.657.657,0,0,0-.107-.387.9.9,0,0,0-.282-.253,1.95,1.95,0,0,0-.4-.173l-.458-.146a4.543,4.543,0,0,1-.459-.173,1.5,1.5,0,0,1-.4-.254,1.191,1.191,0,0,1-.282-.392,1.5,1.5,0,0,1,0-1.115,1.385,1.385,0,0,1,.312-.459,1.517,1.517,0,0,1,.5-.32,1.844,1.844,0,0,1,.689-.12,2.216,2.216,0,0,1,.8.138,1.835,1.835,0,0,1,.629.4Z" fill="#1f2e2e"/><path d="M286.665,3180.9v.575h-2.5v1.732h2.027v.554h-2.027v1.78h2.5v.575h-3.214V3180.9Z" fill="#1f2e2e"/><path d="M292.081,3186.113h-.546a.234.234,0,0,1-.153-.048.279.279,0,0,1-.087-.12l-.488-1.259h-2.34l-.488,1.259a.285.285,0,0,1-.087.117.236.236,0,0,1-.153.051h-.546l2.085-5.216h.717Zm-3.418-1.937h1.948l-.819-2.122a3.875,3.875,0,0,1-.157-.491q-.041.149-.078.275c-.026.083-.051.157-.075.22Z" fill="#1f2e2e"/><path d="M293.624,3183.936v2.177h-.7V3180.9H294.4a3.2,3.2,0,0,1,.855.1,1.635,1.635,0,0,1,.6.289,1.164,1.164,0,0,1,.348.457,1.531,1.531,0,0,1,.113.6,1.508,1.508,0,0,1-.088.517,1.344,1.344,0,0,1-.253.431,1.521,1.521,0,0,1-.4.326,1.994,1.994,0,0,1-.54.2.752.752,0,0,1,.233.222l1.521,2.071h-.626a.308.308,0,0,1-.284-.15l-1.354-1.863a.4.4,0,0,0-.134-.126.5.5,0,0,0-.219-.038Zm0-.513h.739a1.786,1.786,0,0,0,.544-.075,1.1,1.1,0,0,0,.393-.211.874.874,0,0,0,.239-.326,1.067,1.067,0,0,0,.08-.418.833.833,0,0,0-.308-.7,1.491,1.491,0,0,0-.915-.236h-.772Z" fill="#1f2e2e"/><path d="M301.155,3185.035a.143.143,0,0,1,.105.048l.277.3a2.239,2.239,0,0,1-.777.578,2.639,2.639,0,0,1-1.1.208,2.593,2.593,0,0,1-1.023-.195,2.242,2.242,0,0,1-.782-.546,2.469,2.469,0,0,1-.5-.842,3.146,3.146,0,0,1-.178-1.081,2.96,2.96,0,0,1,.191-1.081,2.45,2.45,0,0,1,.537-.845,2.4,2.4,0,0,1,.828-.548,2.834,2.834,0,0,1,1.065-.194,2.376,2.376,0,0,1,1.732.662l-.229.324a.276.276,0,0,1-.058.06.162.162,0,0,1-.1.024.184.184,0,0,1-.1-.035l-.126-.085c-.048-.034-.105-.071-.171-.11a1.558,1.558,0,0,0-.233-.109,1.9,1.9,0,0,0-.313-.085,2.163,2.163,0,0,0-.411-.035,1.984,1.984,0,0,0-.766.144,1.712,1.712,0,0,0-.6.409,1.87,1.87,0,0,0-.391.648,2.461,2.461,0,0,0-.14.856,2.494,2.494,0,0,0,.14.869,1.908,1.908,0,0,0,.382.646,1.593,1.593,0,0,0,.573.4,1.838,1.838,0,0,0,.714.138,2.915,2.915,0,0,0,.418-.027,1.666,1.666,0,0,0,.344-.086,1.476,1.476,0,0,0,.3-.147,2.407,2.407,0,0,0,.275-.213A.181.181,0,0,1,301.155,3185.035Z" fill="#1f2e2e"/><path d="M306.8,3186.113h-.71v-2.373h-2.81v2.373h-.71V3180.9h.71v2.326h2.81V3180.9h.71Z" fill="#1f2e2e"/><rect width="81.455" height="81.455" transform="translate(131.336 3189.18) rotate(-15.238)" fill="url(#a)"/><path d="M156.643,3220.566a7.116,7.116,0,0,1-.47,2.611,6.182,6.182,0,0,1-1.321,2.079,5.976,5.976,0,0,1-2.048,1.369,7.4,7.4,0,0,1-5.306,0,6.023,6.023,0,0,1-2.057-1.369,6.161,6.161,0,0,1-1.325-2.079,7.487,7.487,0,0,1,0-5.222,6.149,6.149,0,0,1,1.325-2.079,6.025,6.025,0,0,1,2.057-1.37,6.941,6.941,0,0,1,2.655-.492,6.852,6.852,0,0,1,2.651.5,6.067,6.067,0,0,1,2.048,1.369,6.134,6.134,0,0,1,1.321,2.075A7.111,7.111,0,0,1,156.643,3220.566Zm-2.447,0a5.97,5.97,0,0,0-.279-1.893,4.006,4.006,0,0,0-.8-1.423,3.458,3.458,0,0,0-1.273-.9,4.752,4.752,0,0,0-3.382,0,3.5,3.5,0,0,0-1.281.9,4.007,4.007,0,0,0-.811,1.423,6.447,6.447,0,0,0,0,3.785,3.962,3.962,0,0,0,.811,1.419,3.522,3.522,0,0,0,1.281.891,4.77,4.77,0,0,0,3.382,0,3.483,3.483,0,0,0,1.273-.891,3.962,3.962,0,0,0,.8-1.419A5.969,5.969,0,0,0,154.2,3220.566Z" fill="#fff"/><path d="M160.987,3221.966v5.009H158.6v-12.819h3.91a8.178,8.178,0,0,1,2.247.27,4.289,4.289,0,0,1,1.534.758,2.934,2.934,0,0,1,.878,1.166,4.081,4.081,0,0,1,.088,2.717,3.55,3.55,0,0,1-.549,1.047,3.709,3.709,0,0,1-.887.824,4.6,4.6,0,0,1-1.2.567,2.381,2.381,0,0,1,.78.736l3.209,4.734h-2.145a1.047,1.047,0,0,1-.528-.124,1.081,1.081,0,0,1-.368-.354l-2.7-4.1a.939.939,0,0,0-.332-.328,1.164,1.164,0,0,0-.536-.1Zm0-1.711h1.489a3.7,3.7,0,0,0,1.175-.168,2.267,2.267,0,0,0,.825-.465,1.884,1.884,0,0,0,.483-.705,2.449,2.449,0,0,0,.159-.9,1.822,1.822,0,0,0-.642-1.5,3.077,3.077,0,0,0-1.964-.523h-1.525Z" fill="#fff"/><path d="M172.822,3226.975h-2.393v-12.819h2.393Z" fill="#fff"/><path d="M183.789,3214.156v1.9h-5.683v3.555h4.477v1.835h-4.477v3.626h5.683v1.906H175.7v-12.819Z" fill="#fff"/><path d="M188.239,3225.007h5.133v1.968h-7.518v-12.819h2.385Z" fill="#fff"/><path d="M162.13,3233.159a.662.662,0,0,1-.226.275.572.572,0,0,1-.306.08.776.776,0,0,1-.4-.138q-.222-.137-.523-.306a4.328,4.328,0,0,0-.705-.306,2.987,2.987,0,0,0-.953-.137,2.788,2.788,0,0,0-.864.12,1.81,1.81,0,0,0-.621.332,1.337,1.337,0,0,0-.377.51,1.686,1.686,0,0,0-.124.652,1.135,1.135,0,0,0,.253.753,2.1,2.1,0,0,0,.669.514,6.261,6.261,0,0,0,.949.382c.355.112.716.231,1.086.359a10.388,10.388,0,0,1,1.086.443,3.734,3.734,0,0,1,.948.638,2.9,2.9,0,0,1,.67.944,3.292,3.292,0,0,1,.253,1.357,4.416,4.416,0,0,1-.3,1.626,3.746,3.746,0,0,1-.868,1.321,4.083,4.083,0,0,1-1.4.887,5.135,5.135,0,0,1-1.888.324,6.069,6.069,0,0,1-1.206-.12,6.405,6.405,0,0,1-1.139-.341,5.956,5.956,0,0,1-1.019-.532,4.989,4.989,0,0,1-.847-.692l.691-1.144a.9.9,0,0,1,.235-.208.578.578,0,0,1,.306-.084.846.846,0,0,1,.479.182c.171.121.374.255.607.4a4.639,4.639,0,0,0,.825.4,3.166,3.166,0,0,0,1.139.182,2.337,2.337,0,0,0,1.578-.483,1.736,1.736,0,0,0,.559-1.387,1.293,1.293,0,0,0-.253-.825,2.05,2.05,0,0,0-.669-.536,4.958,4.958,0,0,0-.949-.368q-.532-.152-1.082-.328a9.206,9.206,0,0,1-1.081-.426,3.49,3.49,0,0,1-.949-.647,2.931,2.931,0,0,1-.669-1,3.792,3.792,0,0,1-.253-1.476,3.524,3.524,0,0,1,1.1-2.545,4.034,4.034,0,0,1,1.317-.824,4.788,4.788,0,0,1,1.782-.311,5.991,5.991,0,0,1,2.092.355,4.726,4.726,0,0,1,1.631.993Z" fill="#fff"/><path d="M177.068,3237.237a7.461,7.461,0,0,1-.177,1.645,6.694,6.694,0,0,1-.51,1.467,6.141,6.141,0,0,1-.811,1.254,5.765,5.765,0,0,1-1.091,1.007l3.254,3.546h-1.968a2.383,2.383,0,0,1-.767-.116,1.483,1.483,0,0,1-.625-.425l-1.879-2.075a6.945,6.945,0,0,1-.927.187,7.68,7.68,0,0,1-.988.062,6.947,6.947,0,0,1-2.656-.492,6.015,6.015,0,0,1-2.056-1.37,6.136,6.136,0,0,1-1.326-2.079,7.487,7.487,0,0,1,0-5.222,6.135,6.135,0,0,1,1.326-2.079,6.026,6.026,0,0,1,2.056-1.37,6.947,6.947,0,0,1,2.656-.492,6.851,6.851,0,0,1,2.65.5,5.988,5.988,0,0,1,3.369,3.444A7.112,7.112,0,0,1,177.068,3237.237Zm-2.447,0a5.98,5.98,0,0,0-.279-1.893,4.016,4.016,0,0,0-.8-1.423,3.463,3.463,0,0,0-1.272-.9,4.772,4.772,0,0,0-3.383,0,3.5,3.5,0,0,0-1.281.9,4.032,4.032,0,0,0-.811,1.423,6.451,6.451,0,0,0,0,3.786,3.984,3.984,0,0,0,.811,1.418,3.521,3.521,0,0,0,1.281.891,4.755,4.755,0,0,0,3.383,0,3.487,3.487,0,0,0,1.272-.891,3.968,3.968,0,0,0,.8-1.418A5.978,5.978,0,0,0,174.621,3237.237Z" fill="#fff"/><path d="M184.107,3241.723a3.142,3.142,0,0,0,1.237-.231,2.565,2.565,0,0,0,.922-.647,2.818,2.818,0,0,0,.576-1.01,4.164,4.164,0,0,0,.2-1.33v-7.678h2.385v7.678a5.923,5.923,0,0,1-.368,2.114,4.713,4.713,0,0,1-2.735,2.775,6.416,6.416,0,0,1-4.433,0,4.695,4.695,0,0,1-2.726-2.775,5.9,5.9,0,0,1-.368-2.114v-7.678h2.385v7.669a4.16,4.16,0,0,0,.2,1.33,2.917,2.917,0,0,0,.572,1.015,2.491,2.491,0,0,0,.918.651A3.137,3.137,0,0,0,184.107,3241.723Z" fill="#fff"/><path d="M202.663,3243.647h-1.844a.809.809,0,0,1-.51-.155.883.883,0,0,1-.288-.386l-.957-2.615h-5.311l-.957,2.615a.844.844,0,0,1-.28.372.781.781,0,0,1-.509.169h-1.853l5.035-12.82h2.438Zm-8.3-4.841h4.087l-1.56-4.264c-.071-.189-.15-.412-.235-.669s-.17-.537-.253-.838q-.125.452-.244.842t-.235.683Z" fill="#fff"/><path d="M206.448,3238.638v5.009h-2.384v-12.82h3.909a8.182,8.182,0,0,1,2.248.271,4.284,4.284,0,0,1,1.533.758,2.923,2.923,0,0,1,.878,1.165,4.093,4.093,0,0,1,.089,2.718,3.569,3.569,0,0,1-.55,1.046,3.685,3.685,0,0,1-.887.824,4.626,4.626,0,0,1-1.2.568,2.337,2.337,0,0,1,.78.736l3.21,4.734h-2.146a1.051,1.051,0,0,1-.527-.124,1.073,1.073,0,0,1-.368-.355l-2.695-4.1a.957.957,0,0,0-.333-.328,1.162,1.162,0,0,0-.536-.1Zm0-1.711h1.49a3.666,3.666,0,0,0,1.174-.169,2.271,2.271,0,0,0,.825-.465,1.86,1.86,0,0,0,.483-.705,2.442,2.442,0,0,0,.16-.895,1.824,1.824,0,0,0-.643-1.5,3.079,3.079,0,0,0-1.964-.523h-1.525Z" fill="#fff"/><path d="M223.683,3230.827v1.9H218v3.556h4.477v1.835H218v3.626h5.683v1.906H215.6v-12.82Z" fill="#fff"/><rect width="36.398" height="0.378" transform="translate(228.562 3189.996)" fill="#1f2e2e"/><rect width="36.398" height="0.378" transform="translate(270.359 3189.996)" fill="#1f2e2e"/></g></svg>