<svg xmlns="http://www.w3.org/2000/svg" xmlns:xlink="http://www.w3.org/1999/xlink" width="200" height="239.48" viewBox="0 0 200 239.48"><defs><linearGradient id="a" x1="0.018" y1="0.982" x2="0.982" y2="0.018" gradientUnits="objectBoundingBox"><stop offset="0" stop-color="#4fb8a4"/><stop offset="0.463" stop-color="#38a8ad"/><stop offset="0.936" stop-color="#0e93b5"/><stop offset="1" stop-color="#0c91b5"/></linearGradient></defs><g transform="translate(-179.37 -138.562)"><rect width="151.191" height="151.191" transform="translate(179.37 178.299) rotate(-15.238)" fill="url(#a)"/><path d="M226.343,236.555a13.2,13.2,0,0,1-.872,4.846,11.5,11.5,0,0,1-2.452,3.859,11.107,11.107,0,0,1-3.8,2.542,13.735,13.735,0,0,1-9.848,0,11.174,11.174,0,0,1-3.818-2.542,11.424,11.424,0,0,1-2.46-3.859,13.9,13.9,0,0,1,0-9.692,11.414,11.414,0,0,1,2.46-3.859,11.176,11.176,0,0,1,3.818-2.543,12.9,12.9,0,0,1,4.928-.913,12.71,12.71,0,0,1,4.92.922,11.265,11.265,0,0,1,3.8,2.542,11.4,11.4,0,0,1,2.452,3.851A13.192,13.192,0,0,1,226.343,236.555Zm-4.542,0a11.1,11.1,0,0,0-.518-3.514,7.442,7.442,0,0,0-1.49-2.641,6.421,6.421,0,0,0-2.361-1.662,8.841,8.841,0,0,0-6.278,0,6.492,6.492,0,0,0-2.378,1.662,7.484,7.484,0,0,0-1.505,2.641,11.976,11.976,0,0,0,0,7.027,7.386,7.386,0,0,0,1.505,2.633,6.532,6.532,0,0,0,2.378,1.654,8.841,8.841,0,0,0,6.278,0,6.46,6.46,0,0,0,2.361-1.654,7.345,7.345,0,0,0,1.49-2.633A11.1,11.1,0,0,0,221.8,236.555Z" fill="#fff"/><path d="M234.406,239.155v9.3h-4.427V224.657h7.257a15.19,15.19,0,0,1,4.172.5,7.956,7.956,0,0,1,2.846,1.407,5.428,5.428,0,0,1,1.629,2.164,7.574,7.574,0,0,1,.165,5.044,6.591,6.591,0,0,1-1.02,1.942,6.9,6.9,0,0,1-1.646,1.53,8.613,8.613,0,0,1-2.23,1.053,4.377,4.377,0,0,1,1.449,1.366l5.956,8.787h-3.982a1.95,1.95,0,0,1-.979-.23,2,2,0,0,1-.683-.659l-5-7.619a1.768,1.768,0,0,0-.617-.608,2.16,2.16,0,0,0-1-.181Zm0-3.176h2.764a6.839,6.839,0,0,0,2.181-.313,4.212,4.212,0,0,0,1.53-.864,3.473,3.473,0,0,0,.9-1.308,4.532,4.532,0,0,0,.3-1.662,3.381,3.381,0,0,0-1.193-2.781,5.709,5.709,0,0,0-3.645-.971h-2.83Z" fill="#fff"/><path d="M256.374,248.452h-4.443V224.657h4.443Z" fill="#fff"/><path d="M276.729,224.657v3.522H266.181v6.6h8.31v3.407h-8.31v6.73h10.548v3.538H261.721V224.657Z" fill="#fff"/><path d="M284.989,244.8h9.528v3.653H280.563V224.657h4.426Z" fill="#fff"/><path d="M236.527,259.929a1.215,1.215,0,0,1-.42.51,1.051,1.051,0,0,1-.567.148,1.433,1.433,0,0,1-.741-.255q-.411-.255-.971-.567a7.88,7.88,0,0,0-1.308-.568,5.5,5.5,0,0,0-1.769-.255,5.2,5.2,0,0,0-1.6.222,3.4,3.4,0,0,0-1.152.617,2.457,2.457,0,0,0-.7.946,3.1,3.1,0,0,0-.231,1.21,2.1,2.1,0,0,0,.469,1.4,3.915,3.915,0,0,0,1.243.955,11.59,11.59,0,0,0,1.76.708q.988.312,2.016.666a19.41,19.41,0,0,1,2.016.823,6.984,6.984,0,0,1,1.761,1.184,5.4,5.4,0,0,1,1.242,1.753,6.079,6.079,0,0,1,.469,2.518,8.211,8.211,0,0,1-.551,3.019,6.963,6.963,0,0,1-1.613,2.452,7.572,7.572,0,0,1-2.592,1.645,9.526,9.526,0,0,1-3.505.6,11.311,11.311,0,0,1-2.238-.222,11.718,11.718,0,0,1-2.114-.634,11.017,11.017,0,0,1-1.893-.987,9.34,9.34,0,0,1-1.571-1.283l1.283-2.123a1.639,1.639,0,0,1,.437-.387,1.065,1.065,0,0,1,.567-.156,1.57,1.57,0,0,1,.889.337q.477.337,1.127.749a8.658,8.658,0,0,0,1.53.749,5.916,5.916,0,0,0,2.115.337,4.34,4.34,0,0,0,2.929-.9,3.22,3.22,0,0,0,1.037-2.575,2.4,2.4,0,0,0-.469-1.53,3.792,3.792,0,0,0-1.243-1,9.279,9.279,0,0,0-1.76-.683q-.989-.279-2.008-.609a17.083,17.083,0,0,1-2.007-.79,6.471,6.471,0,0,1-1.761-1.2,5.463,5.463,0,0,1-1.243-1.851,7.071,7.071,0,0,1-.468-2.74,6.548,6.548,0,0,1,2.032-4.723,7.471,7.471,0,0,1,2.443-1.53,8.894,8.894,0,0,1,3.308-.576,11.113,11.113,0,0,1,3.883.658,8.769,8.769,0,0,1,3.028,1.843Z" fill="#fff"/><path d="M264.254,267.5a13.831,13.831,0,0,1-.329,3.052,12.483,12.483,0,0,1-.946,2.724,11.389,11.389,0,0,1-1.506,2.328,10.721,10.721,0,0,1-2.024,1.868l6.039,6.582h-3.653a4.449,4.449,0,0,1-1.423-.214,2.779,2.779,0,0,1-1.16-.79l-3.489-3.851a12.7,12.7,0,0,1-1.719.346,14.112,14.112,0,0,1-1.835.115,12.888,12.888,0,0,1-4.929-.913,11.17,11.17,0,0,1-3.817-2.542,11.409,11.409,0,0,1-2.46-3.859,13.9,13.9,0,0,1,0-9.692,11.4,11.4,0,0,1,2.46-3.859,11.172,11.172,0,0,1,3.817-2.543,12.907,12.907,0,0,1,4.929-.913,12.71,12.71,0,0,1,4.92.922,11.26,11.26,0,0,1,3.8,2.542,11.4,11.4,0,0,1,2.452,3.851A13.192,13.192,0,0,1,264.254,267.5Zm-4.541,0a11.071,11.071,0,0,0-.519-3.514,7.432,7.432,0,0,0-1.489-2.641,6.428,6.428,0,0,0-2.361-1.662,8.841,8.841,0,0,0-6.278,0,6.483,6.483,0,0,0-2.378,1.662,7.445,7.445,0,0,0-1.505,2.641,11.976,11.976,0,0,0,0,7.027,7.357,7.357,0,0,0,1.505,2.633,6.509,6.509,0,0,0,2.378,1.653,8.841,8.841,0,0,0,6.278,0,6.454,6.454,0,0,0,2.361-1.653,7.343,7.343,0,0,0,1.489-2.633A11.069,11.069,0,0,0,259.713,267.5Z" fill="#fff"/><path d="M277.32,275.825a5.826,5.826,0,0,0,2.295-.428,4.782,4.782,0,0,0,1.712-1.2,5.246,5.246,0,0,0,1.069-1.876,7.72,7.72,0,0,0,.371-2.468V255.6h4.426v14.251a10.989,10.989,0,0,1-.683,3.924,8.867,8.867,0,0,1-1.966,3.11,8.966,8.966,0,0,1-3.11,2.041,11.927,11.927,0,0,1-8.228,0,8.718,8.718,0,0,1-5.06-5.151,10.967,10.967,0,0,1-.683-3.924V255.6h4.426v14.234a7.722,7.722,0,0,0,.371,2.469,5.4,5.4,0,0,0,1.061,1.884,4.663,4.663,0,0,0,1.7,1.209A5.834,5.834,0,0,0,277.32,275.825Z" fill="#fff"/><path d="M311.761,279.4h-3.423a1.5,1.5,0,0,1-.946-.288,1.635,1.635,0,0,1-.535-.716l-1.777-4.854h-9.856l-1.778,4.854a1.551,1.551,0,0,1-.518.691,1.454,1.454,0,0,1-.946.313h-3.439l9.346-23.795h4.526Zm-15.4-8.985h7.586l-2.9-7.915q-.2-.527-.436-1.242t-.469-1.555q-.231.838-.453,1.563t-.436,1.267Z" fill="#fff"/><path d="M318.787,270.1v9.3h-4.426V255.6h7.257a15.177,15.177,0,0,1,4.171.5,7.969,7.969,0,0,1,2.847,1.407,5.446,5.446,0,0,1,1.629,2.164,7.581,7.581,0,0,1,.164,5.044,6.59,6.59,0,0,1-1.02,1.942,6.893,6.893,0,0,1-1.645,1.53,8.613,8.613,0,0,1-2.23,1.053,4.374,4.374,0,0,1,1.448,1.366l5.957,8.787h-3.982a1.938,1.938,0,0,1-.979-.231,1.982,1.982,0,0,1-.683-.658l-5-7.619a1.752,1.752,0,0,0-.617-.608,2.158,2.158,0,0,0-.995-.181Zm0-3.176h2.765a6.836,6.836,0,0,0,2.18-.313,4.208,4.208,0,0,0,1.531-.864,3.46,3.46,0,0,0,.9-1.308,4.515,4.515,0,0,0,.3-1.662,3.379,3.379,0,0,0-1.192-2.781,5.711,5.711,0,0,0-3.645-.971h-2.831Z" fill="#fff"/><path d="M350.776,255.6v3.522H340.229v6.6h8.31v3.407h-8.31v6.73h10.547V279.4H335.769V255.6Z" fill="#fff"/><path d="M233.812,370.514l1.869,6.855-2.468.673-5-18.327,5.41-1.475a10.522,10.522,0,0,1,3.134-.422,6.029,6.029,0,0,1,2.442.564,4.783,4.783,0,0,1,1.748,1.447A6.555,6.555,0,0,1,242,362.056a6.2,6.2,0,0,1,.19,2.463,5.228,5.228,0,0,1-.812,2.186,6.325,6.325,0,0,1-1.816,1.78,9.551,9.551,0,0,1-2.812,1.227Zm-.537-1.97,2.942-.8a5.947,5.947,0,0,0,1.8-.792,3.981,3.981,0,0,0,1.147-1.158,3.387,3.387,0,0,0,.5-1.435,4.263,4.263,0,0,0-.141-1.624,3.645,3.645,0,0,0-1.827-2.443,4.887,4.887,0,0,0-3.536-.093l-2.942.8Z" fill="#1f2e2e"/><path d="M255.172,369.938A5.3,5.3,0,0,0,257.1,369a4.418,4.418,0,0,0,1.223-1.487,4.876,4.876,0,0,0,.5-1.908,6.746,6.746,0,0,0-.249-2.2l-3.037-11.139,2.468-.673,3.037,11.139a8.685,8.685,0,0,1,.3,3.08,7.11,7.11,0,0,1-.806,2.741,6.847,6.847,0,0,1-1.872,2.179,8.827,8.827,0,0,1-6.088,1.661,6.916,6.916,0,0,1-2.725-.927,7.011,7.011,0,0,1-2.092-1.951,8.651,8.651,0,0,1-1.307-2.8l-3.038-11.14,2.468-.673,3.035,11.127a6.747,6.747,0,0,0,.9,2.021,4.88,4.88,0,0,0,1.4,1.392,4.486,4.486,0,0,0,1.817.665A5.259,5.259,0,0,0,255.172,369.938Z" fill="#1f2e2e"/><path d="M267.258,368.759l-5-18.327,5.844-1.594a11.569,11.569,0,0,1,3-.461,5.838,5.838,0,0,1,2.267.4,3.87,3.87,0,0,1,1.573,1.185,5.26,5.26,0,0,1,.923,1.9,4.181,4.181,0,0,1,.145,1.362,3.946,3.946,0,0,1-.322,1.338,4.672,4.672,0,0,1-.813,1.252,6.193,6.193,0,0,1-1.327,1.1,5.865,5.865,0,0,1,3.425.619,3.922,3.922,0,0,1,1.776,2.483,5.335,5.335,0,0,1,.151,2.24,4.719,4.719,0,0,1-.8,1.992,6.068,6.068,0,0,1-1.729,1.619,9.408,9.408,0,0,1-2.628,1.122Zm-.277-10.793,3.274-.893a6.6,6.6,0,0,0,1.753-.725,3.8,3.8,0,0,0,1.1-.987,2.59,2.59,0,0,0,.478-1.2,3.387,3.387,0,0,0-.1-1.339,2.913,2.913,0,0,0-1.617-2.1,5.094,5.094,0,0,0-3.224.069l-3.364.917Zm.481,1.765,1.74,6.382,3.965-1.081a6.222,6.222,0,0,0,1.756-.741,3.525,3.525,0,0,0,1.067-1.025,2.75,2.75,0,0,0,.436-1.246,3.844,3.844,0,0,0-.134-1.4,2.85,2.85,0,0,0-1.616-1.971,4.878,4.878,0,0,0-3.262,0Z" fill="#1f2e2e"/><path d="M285.72,361.485l7.929-2.162.569,2.084-10.411,2.839-5-18.327,2.481-.677Z" fill="#1f2e2e"/><path d="M299.9,359.859l-2.481.676-5-18.327,2.482-.676Z" fill="#1f2e2e"/><path d="M309.978,340.5a1.032,1.032,0,0,1-.165.354.556.556,0,0,1-.306.186.916.916,0,0,1-.564-.079,8.154,8.154,0,0,0-.86-.281,6.1,6.1,0,0,0-1.192-.19,4.753,4.753,0,0,0-1.563.192,4.6,4.6,0,0,0-1.409.625,3.231,3.231,0,0,0-.9.9,2.584,2.584,0,0,0-.4,1.077,2.989,2.989,0,0,0,.088,1.179,2.147,2.147,0,0,0,.724,1.169,3.365,3.365,0,0,0,1.234.592,7.849,7.849,0,0,0,1.575.236q.859.048,1.76.1t1.784.194a5.919,5.919,0,0,1,1.65.505,4.21,4.21,0,0,1,1.356,1.046,4.543,4.543,0,0,1,.9,1.815,6.426,6.426,0,0,1,.206,2.369,5.4,5.4,0,0,1-.7,2.161,5.812,5.812,0,0,1-1.6,1.755,7.366,7.366,0,0,1-2.481,1.157,8.228,8.228,0,0,1-3.418.238,7.874,7.874,0,0,1-2.976-1.064l.4-1.372a.97.97,0,0,1,.185-.3.606.606,0,0,1,.3-.185,1.056,1.056,0,0,1,.693.12,10.538,10.538,0,0,0,1.035.4,6.849,6.849,0,0,0,1.426.291,5.132,5.132,0,0,0,1.876-.2,4.873,4.873,0,0,0,1.506-.672,3.445,3.445,0,0,0,.984-1,3.072,3.072,0,0,0,.448-1.256,3.655,3.655,0,0,0-.117-1.438,2.385,2.385,0,0,0-.749-1.259,3.242,3.242,0,0,0-1.234-.619,7.169,7.169,0,0,0-1.566-.225l-1.751-.073a16.43,16.43,0,0,1-1.777-.168,5.432,5.432,0,0,1-1.645-.513,4.25,4.25,0,0,1-1.365-1.1,5.067,5.067,0,0,1-.934-1.937,5.065,5.065,0,0,1,.519-3.892,5.48,5.48,0,0,1,1.464-1.609,6.732,6.732,0,0,1,2.309-1.083,8.034,8.034,0,0,1,2.933-.277,6.685,6.685,0,0,1,2.6.8Z" fill="#1f2e2e"/><path d="M333.225,350.771l-2.494.68-2.274-8.339-9.873,2.692,2.273,8.339-2.493.68-5-18.327,2.494-.68,2.228,8.172,9.874-2.692-2.229-8.172,2.494-.68Z" fill="#1f2e2e"/><path d="M340.643,348.748l-2.481.677-5-18.328,2.481-.676Z" fill="#1f2e2e"/><path d="M342.35,328.682a1.315,1.315,0,0,1,.457.239l14.382,10.918c-.087-.214-.162-.425-.228-.632s-.125-.407-.178-.6l-3.54-12.981,2.174-.593,5,18.327-1.254.342a1.1,1.1,0,0,1-.52.032,1.285,1.285,0,0,1-.484-.239l-14.366-10.908q.114.312.21.616c.064.2.119.389.166.559l3.561,13.058-2.174.593-5-18.327,1.279-.349A1.165,1.165,0,0,1,342.35,328.682Z" fill="#1f2e2e"/><path d="M372.572,338.1a12.506,12.506,0,0,0,1.342-.442,8.831,8.831,0,0,0,1.113-.53,8.239,8.239,0,0,0,.944-.621q.432-.331.848-.719l-1.1-4.042-2.839.774a.558.558,0,0,1-.429-.034.477.477,0,0,1-.241-.3l-.384-1.407,5.628-1.534,1.918,7.034a10.5,10.5,0,0,1-1.2,1.262,10.2,10.2,0,0,1-1.429,1.056,12.04,12.04,0,0,1-1.722.868,17.64,17.64,0,0,1-2.077.7,9.879,9.879,0,0,1-3.844.313,8.735,8.735,0,0,1-3.388-1.137,9.017,9.017,0,0,1-2.681-2.45,10.75,10.75,0,0,1-1.707-3.616,11,11,0,0,1-.384-4,8.519,8.519,0,0,1,3.505-6.191,10.957,10.957,0,0,1,3.7-1.736,12.362,12.362,0,0,1,2.064-.391,9.729,9.729,0,0,1,1.859-.012,8.335,8.335,0,0,1,1.676.326,9.322,9.322,0,0,1,1.529.62l-.4,1.317a.673.673,0,0,1-.469.5.938.938,0,0,1-.486-.019q-.369-.092-.835-.239a6.262,6.262,0,0,0-1.1-.229,8.068,8.068,0,0,0-1.453-.037,9.178,9.178,0,0,0-1.881.334,7.707,7.707,0,0,0-2.663,1.269,6.151,6.151,0,0,0-1.742,2.028,6.643,6.643,0,0,0-.735,2.646,9.289,9.289,0,0,0,.345,3.128,9.4,9.4,0,0,0,1.338,2.967,6.779,6.779,0,0,0,2.017,1.93,6.208,6.208,0,0,0,2.517.867A7.405,7.405,0,0,0,372.572,338.1Z" fill="#1f2e2e"/><path d="M227.768,334.942a.554.554,0,0,1-.087.189.306.306,0,0,1-.164.1.489.489,0,0,1-.3-.042,4.525,4.525,0,0,0-.459-.15,3.288,3.288,0,0,0-.635-.1,2.542,2.542,0,0,0-.833.1,2.484,2.484,0,0,0-.751.333,1.753,1.753,0,0,0-.481.479,1.376,1.376,0,0,0-.213.575,1.581,1.581,0,0,0,.047.627,1.141,1.141,0,0,0,.386.624,1.793,1.793,0,0,0,.657.315,4.235,4.235,0,0,0,.84.126c.305.017.617.035.938.055s.637.055.95.1a3.09,3.09,0,0,1,.879.269,2.234,2.234,0,0,1,.723.557,2.416,2.416,0,0,1,.48.967,3.433,3.433,0,0,1,.11,1.263,2.867,2.867,0,0,1-.371,1.151,3.074,3.074,0,0,1-.85.935,3.925,3.925,0,0,1-1.322.617,4.389,4.389,0,0,1-1.822.127,4.215,4.215,0,0,1-1.586-.567l.211-.731a.517.517,0,0,1,.1-.162.32.32,0,0,1,.16-.1.56.56,0,0,1,.369.064,5.552,5.552,0,0,0,.552.212,3.622,3.622,0,0,0,.76.155,2.746,2.746,0,0,0,1-.107,2.63,2.63,0,0,0,.8-.358,1.873,1.873,0,0,0,.524-.535,1.643,1.643,0,0,0,.238-.669,1.942,1.942,0,0,0-.062-.767,1.275,1.275,0,0,0-.4-.671,1.735,1.735,0,0,0-.658-.329,3.84,3.84,0,0,0-.834-.121l-.933-.038a8.772,8.772,0,0,1-.947-.09,2.884,2.884,0,0,1-.877-.273,2.273,2.273,0,0,1-.728-.589,2.775,2.775,0,0,1-.221-3.106,2.928,2.928,0,0,1,.781-.857,3.577,3.577,0,0,1,1.23-.577,4.277,4.277,0,0,1,1.563-.148,3.549,3.549,0,0,1,1.383.428Z" fill="#1f2e2e"/><path d="M236.43,330.94l.3,1.111-3.156.86,2.36,8.656-1.322.36-2.36-8.655-3.169.864-.3-1.111Z" fill="#1f2e2e"/><path d="M241.028,335.8l1.111,4.076-1.315.358-2.663-9.766,2.76-.753a6.283,6.283,0,0,1,1.653-.249,3.191,3.191,0,0,1,1.262.238,2.245,2.245,0,0,1,.884.678,2.963,2.963,0,0,1,.517,1.063,2.928,2.928,0,0,1,.1,1.013,2.643,2.643,0,0,1-.254.937,2.942,2.942,0,0,1-.589.816,3.887,3.887,0,0,1-.909.657,1.451,1.451,0,0,1,.55.3l3.906,3.1-1.172.32a.6.6,0,0,1-.608-.135l-3.486-2.8a.773.773,0,0,0-.317-.166.933.933,0,0,0-.428.04Zm-.262-.961,1.384-.377a3.458,3.458,0,0,0,.98-.418,2.148,2.148,0,0,0,.629-.6,1.691,1.691,0,0,0,.279-.731,2.057,2.057,0,0,0-.063-.825,1.615,1.615,0,0,0-.935-1.158,2.882,2.882,0,0,0-1.835.024l-1.445.394Z" fill="#1f2e2e"/><path d="M257.7,335.631l-1.022.279a.451.451,0,0,1-.31-.011.56.56,0,0,1-.225-.18l-1.557-2.109-4.382,1.2-.27,2.607a.56.56,0,0,1-.1.263.456.456,0,0,1-.26.173l-1.022.279,1.241-10.831,1.343-.366Zm-7.388-1.881,3.646-.994-2.616-3.555a7.549,7.549,0,0,1-.544-.84c0,.2,0,.385-.007.554s-.014.32-.027.451Z" fill="#1f2e2e"/><path d="M262.232,323.9l.3,1.111-3.155.861,2.36,8.655-1.322.36-2.36-8.655-3.169.864-.3-1.111Z" fill="#1f2e2e"/><path d="M269.845,321.828l.293,1.077-4.689,1.279.885,3.244,3.8-1.035.283,1.036-3.8,1.035.909,3.332,4.689-1.278.294,1.077-6.018,1.641-2.663-9.767Z" fill="#1f2e2e"/><path d="M278.706,328.872a6.772,6.772,0,0,0,.716-.235,4.864,4.864,0,0,0,.593-.283,4.335,4.335,0,0,0,.5-.331q.229-.176.452-.383l-.588-2.154-1.513.413a.3.3,0,0,1-.228-.019.249.249,0,0,1-.128-.162l-.2-.75,3-.818,1.022,3.749a5.586,5.586,0,0,1-.64.672,5.365,5.365,0,0,1-.762.563,6.49,6.49,0,0,1-.917.463,9.487,9.487,0,0,1-1.107.371,5.267,5.267,0,0,1-2.049.167,4.646,4.646,0,0,1-1.8-.606,4.8,4.8,0,0,1-1.429-1.306,5.718,5.718,0,0,1-.909-1.926,5.86,5.86,0,0,1-.2-2.134,4.535,4.535,0,0,1,1.868-3.3,5.848,5.848,0,0,1,1.97-.925,6.587,6.587,0,0,1,1.1-.208,5.215,5.215,0,0,1,.99-.007,4.469,4.469,0,0,1,.893.174,5.02,5.02,0,0,1,.815.331l-.211.7a.357.357,0,0,1-.25.266.493.493,0,0,1-.259-.01c-.131-.032-.279-.075-.444-.127a3.368,3.368,0,0,0-.587-.122,4.27,4.27,0,0,0-.774-.02,4.878,4.878,0,0,0-1,.178,4.1,4.1,0,0,0-1.419.676,3.267,3.267,0,0,0-.928,1.081,3.542,3.542,0,0,0-.392,1.41,4.933,4.933,0,0,0,.184,1.667,5,5,0,0,0,.713,1.581,3.626,3.626,0,0,0,1.075,1.029,3.3,3.3,0,0,0,1.341.461A3.942,3.942,0,0,0,278.706,328.872Z" fill="#1f2e2e"/><path d="M287.525,323.326l1.06,3.885-1.315.358-1.06-3.884-5.181-4.906,1.158-.316a.433.433,0,0,1,.3.012.875.875,0,0,1,.236.17L286,321.832a4.924,4.924,0,0,1,.351.387c.1.124.193.248.28.37.012-.154.028-.31.048-.467a4.009,4.009,0,0,1,.1-.5l1.194-4.4a.909.909,0,0,1,.11-.253.406.406,0,0,1,.249-.175l1.173-.319Z" fill="#1f2e2e"/><path d="M302.835,318.946l1.111,4.076-1.315.359-2.663-9.767,2.76-.752a6.246,6.246,0,0,1,1.652-.25,3.193,3.193,0,0,1,1.263.238,2.264,2.264,0,0,1,.884.678,2.984,2.984,0,0,1,.517,1.064,2.92,2.92,0,0,1,.1,1.012,2.656,2.656,0,0,1-.253.937,2.935,2.935,0,0,1-.591.816,3.861,3.861,0,0,1-.908.658,1.448,1.448,0,0,1,.55.3l3.906,3.1-1.172.319a.6.6,0,0,1-.608-.134l-3.487-2.8a.767.767,0,0,0-.316-.167.947.947,0,0,0-.428.04Zm-.262-.961,1.383-.377a3.492,3.492,0,0,0,.981-.417,2.144,2.144,0,0,0,.628-.6,1.7,1.7,0,0,0,.28-.732,2.057,2.057,0,0,0-.063-.825,1.617,1.617,0,0,0-.935-1.158,2.889,2.889,0,0,0-1.835.024l-1.444.394Z" fill="#1f2e2e"/><path d="M314.832,309.561l.293,1.077-4.689,1.279.885,3.244,3.8-1.035.282,1.035-3.8,1.035.909,3.333,4.689-1.278.294,1.076-6.018,1.641-2.663-9.766Z" fill="#1f2e2e"/><path d="M322.356,309.15a.522.522,0,0,1-.088.188.294.294,0,0,1-.163.1.487.487,0,0,1-.3-.043,4.671,4.671,0,0,0-.458-.15,3.289,3.289,0,0,0-.635-.1,2.518,2.518,0,0,0-.833.1,2.436,2.436,0,0,0-.751.333,1.718,1.718,0,0,0-.48.478,1.369,1.369,0,0,0-.214.575,1.587,1.587,0,0,0,.047.628,1.142,1.142,0,0,0,.386.623,1.793,1.793,0,0,0,.657.315,4.235,4.235,0,0,0,.84.126c.3.017.617.036.937.056s.638.054.951.1a3.122,3.122,0,0,1,.879.269,2.259,2.259,0,0,1,.723.557,2.414,2.414,0,0,1,.48.968,3.43,3.43,0,0,1,.11,1.262,2.871,2.871,0,0,1-.371,1.152,3.089,3.089,0,0,1-.851.935,3.91,3.91,0,0,1-1.321.616,4.372,4.372,0,0,1-1.822.127,4.182,4.182,0,0,1-1.586-.567l.211-.731a.529.529,0,0,1,.1-.162.33.33,0,0,1,.16-.1.561.561,0,0,1,.369.065q.227.1.552.212a3.688,3.688,0,0,0,.76.155,2.735,2.735,0,0,0,1-.108,2.606,2.606,0,0,0,.8-.358,1.835,1.835,0,0,0,.524-.535,1.639,1.639,0,0,0,.239-.669,1.935,1.935,0,0,0-.062-.766,1.271,1.271,0,0,0-.4-.671,1.737,1.737,0,0,0-.658-.33,3.79,3.79,0,0,0-.834-.12l-.933-.039a9.035,9.035,0,0,1-.947-.089,2.914,2.914,0,0,1-.877-.274,2.283,2.283,0,0,1-.728-.588,2.7,2.7,0,0,1-.5-1.033,2.7,2.7,0,0,1,.276-2.074,2.94,2.94,0,0,1,.781-.857,3.6,3.6,0,0,1,1.23-.577,4.277,4.277,0,0,1,1.563-.148,3.576,3.576,0,0,1,1.384.428Z" fill="#1f2e2e"/><path d="M330.384,305.32l.293,1.077-4.689,1.279.885,3.244,3.8-1.035.283,1.035-3.8,1.036.909,3.332,4.689-1.278.294,1.077-6.018,1.641-2.663-9.767Z" fill="#1f2e2e"/><path d="M343.188,312.321l-1.022.279a.451.451,0,0,1-.31-.011.56.56,0,0,1-.225-.18l-1.557-2.109-4.382,1.2-.27,2.607a.556.556,0,0,1-.1.263.45.45,0,0,1-.261.173l-1.022.279,1.242-10.831,1.343-.366Zm-7.388-1.88,3.646-.995-2.617-3.555a7.69,7.69,0,0,1-.544-.84q0,.3-.006.555t-.027.45Z" fill="#1f2e2e"/><path d="M344.966,307.458l1.112,4.075-1.316.359-2.663-9.766,2.76-.753a6.243,6.243,0,0,1,1.653-.249,3.15,3.15,0,0,1,1.262.238,2.238,2.238,0,0,1,.884.678,2.962,2.962,0,0,1,.517,1.063,2.9,2.9,0,0,1,.1,1.012,2.636,2.636,0,0,1-.253.937,2.953,2.953,0,0,1-.59.816,3.874,3.874,0,0,1-.908.658,1.447,1.447,0,0,1,.549.3l3.906,3.1-1.172.32a.6.6,0,0,1-.608-.135l-3.486-2.8a.77.77,0,0,0-.316-.166.938.938,0,0,0-.429.04Zm-.262-.961,1.384-.377a3.5,3.5,0,0,0,.98-.418,2.161,2.161,0,0,0,.629-.6,1.7,1.7,0,0,0,.28-.732,2.073,2.073,0,0,0-.064-.824,1.613,1.613,0,0,0-.934-1.159,2.89,2.89,0,0,0-1.835.025l-1.445.394Z" fill="#1f2e2e"/><path d="M359.628,305.671a.283.283,0,0,1,.222.035l.672.424a4.32,4.32,0,0,1-1.159,1.48,5.137,5.137,0,0,1-1.956.951,5.03,5.03,0,0,1-2.014.158,4.353,4.353,0,0,1-1.744-.623,4.8,4.8,0,0,1-1.371-1.321,6.116,6.116,0,0,1-.886-1.933,5.744,5.744,0,0,1-.194-2.122,4.779,4.779,0,0,1,.574-1.855,4.647,4.647,0,0,1,1.271-1.449,5.464,5.464,0,0,1,1.894-.908,4.615,4.615,0,0,1,3.582.356l-.264.723a.492.492,0,0,1-.078.143.316.316,0,0,1-.165.092.362.362,0,0,1-.206-.013l-.278-.1c-.108-.039-.234-.078-.376-.117a2.873,2.873,0,0,0-.492-.086,3.669,3.669,0,0,0-.63,0,4.2,4.2,0,0,0-.788.145,3.845,3.845,0,0,0-1.361.66,3.334,3.334,0,0,0-.912,1.073,3.619,3.619,0,0,0-.4,1.413,4.794,4.794,0,0,0,.174,1.673,4.878,4.878,0,0,0,.707,1.557,3.732,3.732,0,0,0,1.045,1.015,3.127,3.127,0,0,0,1.279.46,3.561,3.561,0,0,0,1.407-.105,5.754,5.754,0,0,0,.769-.265,3.288,3.288,0,0,0,.6-.336,2.815,2.815,0,0,0,.476-.427,4.292,4.292,0,0,0,.406-.538A.361.361,0,0,1,359.628,305.671Z" fill="#1f2e2e"/><path d="M370.756,304.8l-1.329.362-1.212-4.443-5.262,1.435,1.212,4.443-1.329.363-2.663-9.767,1.329-.362,1.187,4.355,5.262-1.435-1.187-4.355,1.329-.362Z" fill="#1f2e2e"/><rect width="70.642" height="0.733" transform="matrix(0.965, -0.263, 0.263, 0.965, 226.236, 352.023)" fill="#1f2e2e"/><rect width="70.642" height="0.733" transform="matrix(0.965, -0.263, 0.263, 0.965, 304.498, 330.683)" fill="#1f2e2e"/></g></svg>