<svg xmlns="http://www.w3.org/2000/svg" width="162.296" height="44.695" viewBox="0 0 162.296 44.695"><g transform="translate(-1088.955 -2821.598)" opacity="0.6"><path d="M1233.127,2851.213c-4.056-5.254-10.386-8.147-17.824-8.147h-6.087l1.5-6.8h20.952l1.875-11.445h-32.288l-6.556,29.687h20.6c3.671,0,6.678,1.275,8.466,3.591a10.223,10.223,0,0,1,1.71,7.955h11.778A21.182,21.182,0,0,0,1233.127,2851.213Z" fill="#122533" opacity="0.5"/><path d="M1251.251,2824.825h-14.762l-1.875,11.446h4.969l-.145,29.788h11.72Z" fill="#122533" opacity="0.5"/><path d="M1154.351,2822.721a3.316,3.316,0,0,0-2.583-1.123,4.787,4.787,0,0,0-4.584,3.864,3.238,3.238,0,0,0,.688,2.667,3.313,3.313,0,0,0,2.584,1.124,4.785,4.785,0,0,0,4.583-3.864h0A3.24,3.24,0,0,0,1154.351,2822.721Z" fill="#122533" opacity="0.5"/><path d="M1107.789,2824.822h-12.138l-6.7,29.48h7.29l2.118-9.243h5.2c6.369,0,12.567-2.426,14.458-9.521C1119.532,2829.859,1115.955,2824.822,1107.789,2824.822Zm3.437,10.221c-.67,2.837-2.663,4.337-5.764,4.337h-5.793l1.957-8.787h5.73a4.17,4.17,0,0,1,3.438,1.242A3.647,3.647,0,0,1,1111.226,2835.043Zm79.46,1.518h4.891l1.268-5.6h-4.891l1.317-5.8h-7l-1.316,5.8h-2.97l-1.269,5.6h2.971l-2.25,9.748c-.6,2.675-.366,4.695.683,6,1.073,1.339,2.98,1.99,5.83,1.99h3.617l1.316-5.726h-2.376a2.255,2.255,0,0,1-1.841-.582,1.963,1.963,0,0,1-.212-1.7Zm-45.107-5.6-2.52,5.07h2.689l-4.131,18.269h7l5.278-23.339Zm26.078-.255a10.982,10.982,0,0,0-7.985,3.382l-.572.607.836-3.734h-7l-5.278,23.339h7l2.926-12.956.039.005c.771-3.138,3-5,6-5a3.894,3.894,0,0,1,3.177,1.282,4.69,4.69,0,0,1,.569,4.029h0l-2.892,12.642h6.954l3.136-13.725c.73-3.163.385-5.753-1-7.49C1176.327,2831.53,1174.284,2830.708,1171.657,2830.708Zm-31.93,2.848a10.51,10.51,0,0,0-7.739-2.934c-8.465,0-15.133,6.14-15.509,14.282a9.033,9.033,0,0,0,2.334,6.848,10.286,10.286,0,0,0,7.675,2.892c8.514,0,15.218-6.122,15.594-14.239A9.039,9.039,0,0,0,1139.727,2833.556Zm-4.949,7.552c-.172,3.715-2.879,7.724-6.952,7.724a4.035,4.035,0,0,1-3.014-1.159,4.527,4.527,0,0,1-1.075-3.43c.178-3.839,2.8-7.81,6.869-7.81a4.168,4.168,0,0,1,3.068,1.2A4.586,4.586,0,0,1,1134.778,2841.108Z" fill="#122533"/><path d="M1122.135,2866.241h-1.121l-1.333-2.662h-1.2v2.662h-.968v-6.332h2.46a2.186,2.186,0,0,1,1.033.237,1.679,1.679,0,0,1,.691.657,1.886,1.886,0,0,1,.241.958,1.687,1.687,0,0,1-.349,1.089,1.73,1.73,0,0,1-.91.594Zm-1.156-4.471a.936.936,0,0,0-.293-.73,1.124,1.124,0,0,0-.784-.266h-1.42v1.98h1.42a1.128,1.128,0,0,0,.782-.264A.916.916,0,0,0,1120.979,2861.77Z" fill="#122533"/><path d="M1130.147,2866.241h-4.052v-6.332h4.052v.865h-3.084v1.845h2.632v.856h-2.632v1.9h3.084Z" fill="#122533"/><path d="M1138.107,2860.774h-1.742v5.467h-.959v-5.467h-1.746v-.865h4.447Z" fill="#122533"/><path d="M1146.623,2866.241H1145.6l-.434-1.272h-2.5l-.434,1.272h-1.024l2.322-6.332h.772Zm-1.727-2.089-.959-2.81-.985,2.81Z" fill="#122533"/><path d="M1151.239,2866.241h-.969v-6.332h.969Z" fill="#122533"/><path d="M1159.659,2866.241h-4.017v-6.332h.969v5.468h3.048Z" fill="#122533"/><path d="M1172.453,2866.241H1168.4v-6.332h4.052v.865h-3.084v1.845H1172v.856h-2.632v1.9h3.084Z" fill="#122533"/><path d="M1181.294,2866.241h-.881l-2.923-4.456v4.456h-.969v-6.332h.886l2.928,4.447v-4.447h.959Z" fill="#122533"/><path d="M1189.754,2866.241H1185.7v-6.332h4.052v.865h-3.083v1.845h2.631v.856h-2.631v1.9h3.083Z" fill="#122533"/><path d="M1198.444,2866.241h-1.121l-1.333-2.662h-1.2v2.662h-.968v-6.332h2.46a2.184,2.184,0,0,1,1.033.237,1.679,1.679,0,0,1,.691.657,1.886,1.886,0,0,1,.241.958,1.687,1.687,0,0,1-.349,1.089,1.73,1.73,0,0,1-.91.594Zm-1.156-4.471a.935.935,0,0,0-.293-.73,1.123,1.123,0,0,0-.784-.266h-1.42v1.98h1.42a1.129,1.129,0,0,0,.782-.264A.916.916,0,0,0,1197.288,2861.77Z" fill="#122533"/><path d="M1206.769,2863.788a3.6,3.6,0,0,1-.128,1.035,1.892,1.892,0,0,1-.441.75,2.294,2.294,0,0,1-1.742.72,2.456,2.456,0,0,1-.623-.076,2.213,2.213,0,0,1-.562-.232,2.3,2.3,0,0,1-.478-.365,1.894,1.894,0,0,1-.426-.647,2.637,2.637,0,0,1-.16-.745q-.031-.4-.031-1.153,0-.578.015-.916a4.487,4.487,0,0,1,.07-.621,1.994,1.994,0,0,1,.178-.528,1.929,1.929,0,0,1,.354-.48,2.262,2.262,0,0,1,1.663-.673,2.411,2.411,0,0,1,1.136.257,2.044,2.044,0,0,1,.779.7,2.647,2.647,0,0,1,.387,1h-.968a1.62,1.62,0,0,0-.257-.589,1.177,1.177,0,0,0-.449-.379,1.42,1.42,0,0,0-.628-.133,1.333,1.333,0,0,0-.519.1,1.179,1.179,0,0,0-.419.286,1.316,1.316,0,0,0-.306.635,7.773,7.773,0,0,0-.076,1.328q0,.5.015.792a4,4,0,0,0,.059.522,1.387,1.387,0,0,0,.113.371,1.561,1.561,0,0,0,.2.288,1.219,1.219,0,0,0,.415.28,1.362,1.362,0,0,0,.523.1,1.3,1.3,0,0,0,1.03-.446,1.455,1.455,0,0,0,.321-.992v-.355h-1.351v-.817h2.311Z" fill="#122533"/><path d="M1214.907,2859.909l-1.894,3.727v2.6h-.968v-2.6l-1.89-3.727h1.05l1.324,2.784,1.326-2.784Z" fill="#122533"/></g></svg>