<svg xmlns="http://www.w3.org/2000/svg" width="280" height="48.769" viewBox="0 0 280 48.769"><g transform="translate(-546.936 -4189.362)"><rect width="3.145" height="17.962" transform="translate(640.198 4193.549)" fill="#fff"/><path d="M601.885,4220.877l1.877,6.165h-3.753Zm-1.649-4.363-6.012,17.758h3.552l1.294-4.186H604.7l1.295,4.186h3.552l-6.013-17.758Z" fill="#fff"/><path d="M602.57,4201.515a2.359,2.359,0,0,0,0-4.718H599.3v4.718Zm-6.57-7.762h6.7c3.756,0,5.556,2.308,5.556,5.4s-1.8,5.4-5.556,5.4h-3.4v6.951H596Z" fill="#fff"/><path d="M610.689,4207.858v-9.133h3.147v8.194c0,1.522.761,2.107,1.826,2.107,1.522,0,2.917-1.827,2.917-5.2v-5.1h3.147v12.786h-3.147v-2.055a4.835,4.835,0,0,1-3.957,2.258,3.591,3.591,0,0,1-3.933-3.856" fill="#fff"/><path d="M634.056,4205.118c0-2.536-1.318-3.908-2.968-3.908s-2.943,1.372-2.943,3.908,1.294,3.908,2.943,3.908,2.968-1.371,2.968-3.908m-5.631,5.074v1.319h-3.146v-17.962h3.146v6.343a4.176,4.176,0,0,1,3.1-1.37c3.856,0,5.834,2.664,5.834,6.6s-1.978,6.6-5.834,6.6a3.627,3.627,0,0,1-3.1-1.522" fill="#fff"/><path d="M646.894,4198.725h3.146v12.786h-3.146Zm-.456-3.678a2.03,2.03,0,1,1,2.03,2.029,1.989,1.989,0,0,1-2.03-2.029" fill="#fff"/><path d="M652.426,4208.264l2.511-1.345a2.753,2.753,0,0,0,2.538,2.107,1.3,1.3,0,0,0,1.471-1.244c0-.863-1.294-1.4-2.638-1.927-1.776-.711-3.045-1.777-3.045-3.756a3.742,3.742,0,0,1,4.034-3.576,4.537,4.537,0,0,1,4.009,2.079l-1.879,1.725a2.365,2.365,0,0,0-2.055-1.116c-.634,0-1.242.356-1.242.965,0,.558.457,1.014,2.612,1.8,1.829.661,3.12,1.7,3.12,3.6a4.044,4.044,0,0,1-4.362,4.135,5.074,5.074,0,0,1-5.074-3.45" fill="#fff"/><path d="M664.452,4193.549H667.6v7.231a4.7,4.7,0,0,1,4.06-2.258c2.41,0,3.982,1.243,3.982,3.857v9.132h-3.145v-8.017c0-1.547-.61-2.283-1.9-2.283-1.447,0-2.994,1.446-2.994,4.9v5.4h-3.145Z" fill="#fff"/><path d="M687.362,4203.647a2.739,2.739,0,0,0-2.74-2.437,2.844,2.844,0,0,0-2.79,2.437Zm3.222,2.486h-8.828a2.955,2.955,0,0,0,3.043,2.893,3.311,3.311,0,0,0,3.095-1.979l2.538.938a5.784,5.784,0,0,1-5.81,3.729c-4.389,0-6.14-3.576-6.14-6.6s1.751-6.6,6.14-6.6c4.262,0,5.962,3.526,5.962,6.317Z" fill="#fff"/><path d="M693.427,4198.725h3.145v2.08a4.457,4.457,0,0,1,3.781-2.283,5.229,5.229,0,0,1,1.546.253l-.583,2.919a2.427,2.427,0,0,0-1.318-.356c-1.827,0-3.426,1.5-3.426,5.632v4.541h-3.145Z" fill="#fff"/><path d="M702.612,4208.264l2.511-1.345a2.754,2.754,0,0,0,2.537,2.107,1.3,1.3,0,0,0,1.471-1.244c0-.863-1.294-1.4-2.638-1.927-1.776-.711-3.045-1.777-3.045-3.756a3.743,3.743,0,0,1,4.034-3.576,4.534,4.534,0,0,1,4.008,2.079l-1.877,1.725a2.366,2.366,0,0,0-2.054-1.116c-.636,0-1.244.356-1.244.965,0,.558.456,1.014,2.613,1.8,1.827.661,3.121,1.7,3.121,3.6a4.045,4.045,0,0,1-4.365,4.135,5.072,5.072,0,0,1-5.072-3.45" fill="#fff"/><path d="M610.614,4231.025l2.512-1.345a2.754,2.754,0,0,0,2.537,2.1,1.3,1.3,0,0,0,1.471-1.243c0-.862-1.294-1.4-2.638-1.928-1.776-.71-3.044-1.776-3.044-3.755a3.742,3.742,0,0,1,4.033-3.576,4.533,4.533,0,0,1,4.008,2.079l-1.877,1.725a2.364,2.364,0,0,0-2.054-1.116c-.634,0-1.244.356-1.244.964,0,.56.456,1.015,2.613,1.8,1.827.661,3.121,1.7,3.121,3.6a4.045,4.045,0,0,1-4.364,4.135,5.075,5.075,0,0,1-5.074-3.45" fill="#fff"/><path d="M621.575,4231.025l2.511-1.345a2.755,2.755,0,0,0,2.537,2.1,1.3,1.3,0,0,0,1.471-1.243c0-.862-1.293-1.4-2.638-1.928-1.776-.71-3.045-1.776-3.045-3.755a3.743,3.743,0,0,1,4.034-3.576,4.534,4.534,0,0,1,4.009,2.079l-1.877,1.725a2.366,2.366,0,0,0-2.055-1.116c-.635,0-1.244.356-1.244.964,0,.56.457,1.015,2.613,1.8,1.827.661,3.121,1.7,3.121,3.6a4.045,4.045,0,0,1-4.364,4.135,5.073,5.073,0,0,1-5.073-3.45" fill="#fff"/><path d="M642.3,4227.879c0-2.107-1.167-3.908-3.2-3.908s-3.2,1.8-3.2,3.908,1.167,3.906,3.2,3.906,3.2-1.8,3.2-3.906m-9.691,0c0-3.7,2.384-6.6,6.494-6.6s6.494,2.893,6.494,6.6-2.383,6.6-6.494,6.6-6.494-2.894-6.494-6.6" fill="#fff"/><path d="M647.314,4227.879c0-3.6,2.08-6.6,6.24-6.6,2.842,0,4.846,1.243,5.81,3.654l-2.816,1.141a3.191,3.191,0,0,0-2.994-2.106c-1.977,0-2.942,1.65-2.942,3.908s.965,3.906,2.942,3.906a3.19,3.19,0,0,0,2.994-2.1l2.816,1.141c-.964,2.41-2.968,3.655-5.81,3.655-4.16,0-6.24-3-6.24-6.6" fill="#fff"/><path d="M662.054,4221.485H665.2v12.787h-3.146Zm-.456-3.678a2.029,2.029,0,1,1,2.029,2.03,1.989,1.989,0,0,1-2.029-2.03" fill="#fff"/><path d="M675.475,4229.147v-.254h-2.106c-1.343,0-2.18.508-2.18,1.65a1.279,1.279,0,0,0,1.419,1.242,2.733,2.733,0,0,0,2.867-2.638m-7.584,1.446c0-2.536,2.08-4.186,5.353-4.186h2.231v-.558c0-1.345-1.065-1.878-2.231-1.878a2.146,2.146,0,0,0-2.208,1.472l-2.665-.609c.407-2.1,2.31-3.552,4.873-3.552,3.374,0,5.377,1.776,5.377,5.354v7.636h-2.587l-.331-1.623a4.767,4.767,0,0,1-3.931,1.827,3.634,3.634,0,0,1-3.881-3.883" fill="#fff"/><path d="M682.352,4229.756v-5.582h-1.979v-2.689h1.979v-3.2l3.145-1.98v5.176h3.374v2.689H685.5v5.531c0,1.573.61,2.08,1.676,2.08a2.394,2.394,0,0,0,1.216-.3l.737,2.538a4.842,4.842,0,0,1-2.08.456c-2.894,0-4.694-1.548-4.694-4.719" fill="#fff"/><path d="M691.308,4221.485h3.146v12.787h-3.146Zm-.456-3.678a2.03,2.03,0,1,1,2.03,2.03,1.989,1.989,0,0,1-2.03-2.03" fill="#fff"/><path d="M706.936,4227.879c0-2.107-1.166-3.908-3.2-3.908s-3.194,1.8-3.194,3.908,1.165,3.906,3.194,3.906,3.2-1.8,3.2-3.906m-9.691,0c0-3.7,2.385-6.6,6.494-6.6s6.495,2.893,6.495,6.6-2.385,6.6-6.495,6.6-6.494-2.894-6.494-6.6" fill="#fff"/><path d="M713.077,4221.485h3.145v2.055a4.841,4.841,0,0,1,3.958-2.258,3.592,3.592,0,0,1,3.933,3.856v9.134h-3.145v-8.194c0-1.522-.762-2.107-1.828-2.107-1.521,0-2.918,1.827-2.918,5.2v5.1h-3.145Z" fill="#fff"/><path d="M567.448,4193.449a20.513,20.513,0,1,0,20.514,20.512,20.512,20.512,0,0,0-20.514-20.512m-10.8,28.91H554.1v-6.794h2.547ZM561,4225.88h-2.548l1.273-12.276h2.548Zm4.425.929-1.274-18.267H566.7l1.274,18.267Zm7.17,2.285h-2.547l3.865-29.745h2.548Z" fill="#fff"/><path d="M758.787,4208.735h-2.58l-.94-3.042h-4.093l-.94,3.042h-2.581l4.369-12.9h2.4Zm-4.2-5.254L753.22,4199l-1.363,4.479Z" fill="#fff"/><path d="M763.119,4199.3a3.548,3.548,0,0,1,1.687.415,3.224,3.224,0,0,1,1.226,1.1l-1.364,1.254a1.925,1.925,0,0,0-1.549-.811.908.908,0,0,0-.608.2.708.708,0,0,0-.24.572q0,.571.885.9l.664.24.793.276q.128.056.663.351a1.992,1.992,0,0,1,.664.479,2.212,2.212,0,0,1,.571,1.511,2.994,2.994,0,0,1-.922,2.194,3.213,3.213,0,0,1-2.377.9,3.651,3.651,0,0,1-2.3-.755,4.278,4.278,0,0,1-1.383-1.752l1.825-.977a1.946,1.946,0,0,0,1.862,1.53q1.143,0,1.142-1a.756.756,0,0,0-.5-.7,2.557,2.557,0,0,0-.517-.222q-.165-.074-.663-.258l-.645-.24a3.681,3.681,0,0,1-1.411-.976,2.339,2.339,0,0,1-.47-1.531,2.553,2.553,0,0,1,.83-1.916A2.928,2.928,0,0,1,763.119,4199.3Z" fill="#fff"/><path d="M771.359,4199.3a3.551,3.551,0,0,1,1.687.415,3.214,3.214,0,0,1,1.225,1.1l-1.363,1.254a1.926,1.926,0,0,0-1.549-.811.906.906,0,0,0-.608.2.705.705,0,0,0-.24.572q0,.571.885.9l.664.24.792.276q.129.056.664.351a1.975,1.975,0,0,1,.663.479,2.208,2.208,0,0,1,.572,1.511,3,3,0,0,1-.922,2.194,3.215,3.215,0,0,1-2.378.9,3.654,3.654,0,0,1-2.3-.755,4.287,4.287,0,0,1-1.383-1.752l1.825-.977a1.946,1.946,0,0,0,1.862,1.53q1.143,0,1.143-1a.755.755,0,0,0-.5-.7,2.524,2.524,0,0,0-.516-.222q-.167-.074-.664-.258l-.644-.24a3.68,3.68,0,0,1-1.411-.976,2.338,2.338,0,0,1-.47-1.531,2.556,2.556,0,0,1,.829-1.916A2.929,2.929,0,0,1,771.359,4199.3Z" fill="#fff"/><path d="M780.76,4208.882a4.517,4.517,0,0,1-3.447-1.345,5.282,5.282,0,0,1,0-6.876,5.037,5.037,0,0,1,6.894,0,5.282,5.282,0,0,1,0,6.876A4.516,4.516,0,0,1,780.76,4208.882Zm-1.7-6.8a3.138,3.138,0,0,0-.627,2.009,3.217,3.217,0,0,0,.627,2.028,2.179,2.179,0,0,0,3.392,0,3.223,3.223,0,0,0,.627-2.028,3.144,3.144,0,0,0-.627-2.009,2.046,2.046,0,0,0-1.7-.829A2.013,2.013,0,0,0,779.064,4202.08Z" fill="#fff"/><path d="M793.775,4205.4l2.045.83a4.12,4.12,0,0,1-4.221,2.654,4.229,4.229,0,0,1-3.355-1.364,5.574,5.574,0,0,1,0-6.857,4.232,4.232,0,0,1,3.355-1.364,4.119,4.119,0,0,1,4.221,2.654l-2.045.83a2.364,2.364,0,0,0-2.176-1.53,1.837,1.837,0,0,0-1.585.765,4.164,4.164,0,0,0,0,4.147,1.838,1.838,0,0,0,1.585.765A2.364,2.364,0,0,0,793.775,4205.4Z" fill="#fff"/><path d="M798.825,4198.246a1.449,1.449,0,1,1,1.051-.424A1.426,1.426,0,0,1,798.825,4198.246Zm-1.143,10.489v-9.291h2.286v9.291Z" fill="#fff"/><path d="M804.06,4202.32l-1.936-.443a2.925,2.925,0,0,1,1.19-1.87,3.858,3.858,0,0,1,2.35-.71q3.907,0,3.908,3.889v5.549h-1.881l-.239-1.18a3.483,3.483,0,0,1-2.858,1.327,2.809,2.809,0,0,1-2.036-.755,2.732,2.732,0,0,1-.783-2.065,2.634,2.634,0,0,1,1.1-2.212,4.626,4.626,0,0,1,2.866-.83h1.549v-.4q0-1.364-1.622-1.364A1.507,1.507,0,0,0,804.06,4202.32Zm.111,3.705a.874.874,0,0,0,.257.645.95.95,0,0,0,.7.258,2.273,2.273,0,0,0,1.493-.534,1.7,1.7,0,0,0,.664-1.383v-.184h-1.53Q804.17,4204.827,804.171,4206.025Z" fill="#fff"/><path d="M816.705,4206.707l.535,1.844a3.571,3.571,0,0,1-1.512.331,3.088,3.088,0,0,1-3.41-3.428V4201.4H810.88v-1.954h1.438v-2.322l2.286-1.438v3.76h2.451v1.954H814.6v4.019a1.8,1.8,0,0,0,.295,1.161,1.135,1.135,0,0,0,.921.35A1.811,1.811,0,0,0,816.705,4206.707Z" fill="#fff"/><path d="M826.936,4203.887v.94h-6.4a2.186,2.186,0,0,0,.636,1.493,2.087,2.087,0,0,0,1.558.608,2.515,2.515,0,0,0,2.249-1.438l1.843.682a4.259,4.259,0,0,1-4.221,2.71,4.617,4.617,0,0,1-2.037-.433,3.622,3.622,0,0,1-1.4-1.143,5.4,5.4,0,0,1-.765-1.53,5.641,5.641,0,0,1,0-3.373,5.408,5.408,0,0,1,.765-1.53,3.618,3.618,0,0,1,1.4-1.143,4.61,4.61,0,0,1,2.037-.433,4.466,4.466,0,0,1,1.954.415,3.542,3.542,0,0,1,1.382,1.133A5.038,5.038,0,0,1,826.936,4203.887Zm-4.332-2.636a1.884,1.884,0,0,0-1.336.507,2.18,2.18,0,0,0-.673,1.262h4A1.928,1.928,0,0,0,822.6,4201.251Z" fill="#fff"/><path d="M751.617,4230.855h-2.4v-12.9h2.692l3.041,8.055,3.041-8.055h2.692v12.9h-2.4v-7.963l-2.471,6.784h-1.732l-2.47-6.784Z" fill="#fff"/><path d="M771.93,4226.007v.941h-6.4a2.184,2.184,0,0,0,.636,1.493,2.091,2.091,0,0,0,1.558.608,2.515,2.515,0,0,0,2.249-1.438l1.843.682A4.261,4.261,0,0,1,767.6,4231a4.623,4.623,0,0,1-2.037-.433,3.618,3.618,0,0,1-1.4-1.143,5.4,5.4,0,0,1-.765-1.53,5.645,5.645,0,0,1,0-3.374,5.414,5.414,0,0,1,.765-1.53,3.616,3.616,0,0,1,1.4-1.142,4.61,4.61,0,0,1,2.037-.434,4.48,4.48,0,0,1,1.954.415,3.548,3.548,0,0,1,1.382,1.133A5.039,5.039,0,0,1,771.93,4226.007Zm-4.331-2.636a1.886,1.886,0,0,0-1.337.507,2.186,2.186,0,0,0-.673,1.263h4A1.927,1.927,0,0,0,767.6,4223.371Z" fill="#fff"/><path d="M781.792,4227.242v3.613h-2.286v-6.194q0-1.291-1.143-1.29a1.65,1.65,0,0,0-1.456,1.069,6.661,6.661,0,0,0-.553,3v3.41h-2.285v-9.29h2.285v1.493a3.16,3.16,0,0,1,2.673-1.641,2.734,2.734,0,0,1,1.623.5,2.592,2.592,0,0,1,.976,1.42,3.224,3.224,0,0,1,2.839-1.918,2.7,2.7,0,0,1,2.028.756,2.885,2.885,0,0,1,.737,2.1v6.581h-2.286v-6.194q0-1.291-1.142-1.29a1.646,1.646,0,0,0-1.457,1.014A6.058,6.058,0,0,0,781.792,4227.242Z" fill="#fff"/><path d="M794.567,4231a2.859,2.859,0,0,1-1.373-.341,2.107,2.107,0,0,1-.876-.765v.958h-2.286V4217.8h2.286v4.609a2.509,2.509,0,0,1,.958-.71,3.074,3.074,0,0,1,1.291-.286,3.912,3.912,0,0,1,3.133,1.282,6.123,6.123,0,0,1,0,7.023A3.914,3.914,0,0,1,794.567,4231Zm1.235-2.71a3.193,3.193,0,0,0,.608-2.083,3.238,3.238,0,0,0-.608-2.083,1.964,1.964,0,0,0-3.1,0,4,4,0,0,0,0,4.184,1.979,1.979,0,0,0,3.1-.018Z" fill="#fff"/><path d="M809.185,4226.007v.941h-6.4a2.188,2.188,0,0,0,.636,1.493,2.091,2.091,0,0,0,1.558.608,2.515,2.515,0,0,0,2.249-1.438l1.843.682a4.26,4.26,0,0,1-4.221,2.71,4.624,4.624,0,0,1-2.037-.433,3.618,3.618,0,0,1-1.4-1.143,5.4,5.4,0,0,1-.765-1.53,5.645,5.645,0,0,1,0-3.374,5.416,5.416,0,0,1,.765-1.53,3.616,3.616,0,0,1,1.4-1.142,4.61,4.61,0,0,1,2.037-.434,4.48,4.48,0,0,1,1.954.415,3.544,3.544,0,0,1,1.383,1.133A5.046,5.046,0,0,1,809.185,4226.007Zm-4.332-2.636a1.884,1.884,0,0,0-1.336.507,2.18,2.18,0,0,0-.673,1.263h4A1.928,1.928,0,0,0,804.853,4223.371Z" fill="#fff"/><path d="M813.609,4227.556v3.3h-2.286v-9.29h2.286v1.511a3.147,3.147,0,0,1,2.746-1.659,3.648,3.648,0,0,1,1.125.185l-.424,2.12a1.8,1.8,0,0,0-.959-.258,2.072,2.072,0,0,0-1.815,1.023A5.639,5.639,0,0,0,813.609,4227.556Z" fill="#fff"/><line y2="48.769" transform="translate(736.062 4189.362)" fill="#fff"/><rect width="0.658" height="48.769" transform="translate(735.733 4189.362)" fill="#fff"/></g></svg>