<svg xmlns="http://www.w3.org/2000/svg" width="168.875" height="56.032" viewBox="0 0 168.875 56.032"><g transform="translate(-179.626 -2815.93)" opacity="0.6"><g opacity="0.5"><path d="M246.532,2863.219c-1.839,0-3.3-1.134-3.3-2.863V2855h1.751v5.3a1.556,1.556,0,0,0,3.11,0V2855h1.738v5.36C249.831,2862.085,248.37,2863.219,246.532,2863.219Z" fill="#122533"/><path d="M258.409,2860.081h-1.725v3.069h-1.751V2855h3.476c1.863,0,2.959,1.157,2.959,2.543S260.272,2860.081,258.409,2860.081Zm-.088-3.664h-1.637v2.233h1.637c.793,0,1.3-.447,1.3-1.111A1.148,1.148,0,0,0,258.321,2856.417Z" fill="#122533"/><path d="M270.714,2863.15v-3.413h-3.035v3.413h-1.75V2855h1.75v3.333h3.035V2855h1.75v8.154Z" fill="#122533"/><path d="M283.107,2862.36a3.778,3.778,0,0,1-4.8,0c-.894-.813-.907-1.73-.907-3.287s.013-2.473.907-3.287a3.782,3.782,0,0,1,4.8,0c.9.814.92,1.73.92,3.287S284,2861.547,283.107,2862.36Zm-1.271-5.577a1.529,1.529,0,0,0-1.121-.435,1.581,1.581,0,0,0-1.134.435c-.327.344-.428.733-.428,2.29s.1,1.936.428,2.279a1.584,1.584,0,0,0,1.134.447,1.531,1.531,0,0,0,1.121-.447c.327-.343.44-.722.44-2.279S282.163,2857.127,281.836,2856.783Z" fill="#122533"/><path d="M288.965,2863.15V2855h1.75v6.734h4.068v1.42Z" fill="#122533"/><path d="M301.824,2863.219a4.457,4.457,0,0,1-3.274-1.077l1.133-1.03a3.109,3.109,0,0,0,2.154.687c1.045,0,1.6-.367,1.6-1.019a.871.871,0,0,0-.277-.676,1.348,1.348,0,0,0-.806-.275l-1.07-.149a3.112,3.112,0,0,1-1.738-.675,2.031,2.031,0,0,1-.642-1.6c0-1.454,1.183-2.473,3.123-2.473a4.072,4.072,0,0,1,2.9.95l-1.108,1a2.64,2.64,0,0,0-1.839-.561c-.932,0-1.372.469-1.372,1.03a.722.722,0,0,0,.252.584,1.52,1.52,0,0,0,.818.309l1.07.149a3,3,0,0,1,1.713.641,2.117,2.117,0,0,1,.693,1.718C305.149,2862.325,303.713,2863.219,301.824,2863.219Z" fill="#122533"/><path d="M313.373,2856.417v6.733h-1.75v-6.733h-2.342V2855h6.435v1.421Z" fill="#122533"/><path d="M320.289,2863.15V2855H326.2v1.421H322.04v1.912h3.538v1.42H322.04v1.981H326.2v1.42Z" fill="#122533"/><path d="M335.818,2863.15l-1.75-3.252h-1.26v3.252h-1.75V2855h3.513a2.606,2.606,0,0,1,2.909,2.5,2.222,2.222,0,0,1-1.637,2.141l2,3.516Zm-1.36-6.733h-1.65v2.152h1.65a1.091,1.091,0,1,0,0-2.152Z" fill="#122533"/><path d="M345.806,2859.806v3.344h-1.738v-3.344l-2.7-4.81h1.9l1.675,3.287L346.6,2855h1.9Z" fill="#122533"/></g><path d="M246.943,2824.751a18.8,18.8,0,0,1,5.292-.674c5.688,0,9.249,3.372,9.249,8.767v12.725a.349.349,0,0,1-.4.36H259.95a.348.348,0,0,1-.4-.36v-2.383c-.05-.585-.446-.5-.841,0-1.78,2.113-4.4,3.192-8.359,3.192-4.8,0-7.616-2.427-7.616-6.339,0-3.777,2.869-6.385,8.507-6.43h8.111v-.765c0-4.361-2.572-6.924-7.172-6.924a20.265,20.265,0,0,0-4.747.54l-1.731.539c-.248.045-.446-.045-.495-.27l-.4-1.034a.344.344,0,0,1,.3-.449Zm4.3,10.656c-4.4,0-6.43,1.889-6.43,4.587,0,2.877,1.979,4.586,5.589,4.586,5.638,0,8.952-3.148,8.952-8.408v-.765Z" fill="#122533"/><path d="M267.716,2828.034c0,.4.3.494.544.09a9.185,9.185,0,0,1,7.913-4.047c6.232,0,9.891,4.226,9.891,11.151s-3.857,11.15-10.435,11.15a14.467,14.467,0,0,1-6.232-1.214l-1.583-.674v7.54a.348.348,0,0,1-.395.359h-1.286a.348.348,0,0,1-.4-.359v-27.144a.349.349,0,0,1,.4-.36h1.187a.349.349,0,0,1,.4.36Zm2.324,15.467a12.793,12.793,0,0,0,5.589,1.034c5.242,0,8.358-3.507,8.358-9.307s-2.918-9.308-7.913-9.308c-5.539,0-8.26,4.362-8.26,10.117v6.475Z" fill="#122533"/><path d="M303.919,2845.659a19.866,19.866,0,0,1-5.49.719c-6.528,0-10.485-4.271-10.485-11.15s4.006-11.151,10.485-11.151c5.441,0,8.655,2.383,8.655,6.429,0,2.968-2.077,4.767-6.281,5.441l-10.584,1.619c.693,4.451,3.66,6.969,8.21,6.969a16.927,16.927,0,0,0,4.9-.584l1.186-.36a.458.458,0,0,1,.545.27l.346,1.034a.3.3,0,0,1-.247.449Zm-3.511-11.465c3.016-.5,4.6-1.754,4.6-3.688,0-2.922-2.423-4.586-6.578-4.586-5.292,0-8.358,3.327-8.408,9.892Z" fill="#122533"/><path d="M320.587,2834.059c-.445.539-.594.719-.841.854-.2.135-.2.315,0,.36.247.089.446.314.841.854l7.419,9.352c.2.27.1.45-.248.45h-1.582a.569.569,0,0,1-.495-.225l-7.22-9.173q-.3-.4-.594,0l-7.221,9.173a.568.568,0,0,1-.494.225h-1.534c-.346,0-.445-.18-.247-.45l7.369-9.352c.3-.36.495-.585.594-.72.148-.089.346-.134.346-.269v-.045c0-.09-.2-.225-.3-.315a6.154,6.154,0,0,1-.593-.719l-7.221-9.083c-.2-.27-.1-.45.247-.45H310.4a.566.566,0,0,1,.494.225l6.974,8.9a.346.346,0,0,0,.594,0l7.022-8.9a.569.569,0,0,1,.495-.225h1.533c.346,0,.445.18.247.45Z" fill="#122533"/><path d="M229.707,2861.2a28.006,28.006,0,1,0-8.227,7.1l-19.968-34.67,6.162-10.673Z" fill="#122533"/><path d="M187.771,2857.433H204.6l-8.415-14.574Z" fill="#fff" opacity="0.4"/></g></svg>