<svg xmlns="http://www.w3.org/2000/svg" width="243.465" height="69.502" viewBox="0 0 243.465 69.502"><g transform="translate(-746.357 -2809.195)" opacity="0.6"><path d="M752.2,2839.276c0-3.833,0-4.521-.05-5.308-.049-.835-.245-1.228-1.056-1.4a4.611,4.611,0,0,0-.836-.074c-.1,0-.2-.049-.2-.147,0-.148.123-.2.393-.2,1.106,0,2.654.074,2.776.074.295,0,1.843-.074,3.318-.074,2.432,0,6.929-.221,9.853,2.8a8.785,8.785,0,0,1,2.383,6.242,10.045,10.045,0,0,1-2.653,6.929c-1.057,1.106-3.268,2.825-7.445,2.825-1.057,0-2.359-.074-3.416-.147-1.081-.074-1.917-.148-2.04-.148-.049,0-.466,0-.982.025-.492,0-1.057.049-1.425.049-.271,0-.393-.049-.393-.2,0-.073.048-.147.2-.147a3.8,3.8,0,0,0,.737-.1c.492-.1.614-.639.713-1.352.123-1.032.123-2.973.123-5.332Zm2.063,2.654c0,2.6.025,4.865.05,5.332a5.363,5.363,0,0,0,.27,1.867c.319.467,1.278.983,4.177.983a8.25,8.25,0,0,0,5.848-2.285c1.278-1.253,1.966-3.612,1.966-5.873a8.789,8.789,0,0,0-2.359-6.192c-2.31-2.432-5.111-2.776-8.035-2.776a6.538,6.538,0,0,0-1.6.172.445.445,0,0,0-.295.491c-.025.836-.025,3.342-.025,5.234Z" fill="#122533"/><path d="M773.993,2844.657c0,2.015,0,3.661.1,4.521.074.614.148,1.008.786,1.106a8.833,8.833,0,0,0,.983.1.167.167,0,0,1,.172.173c0,.1-.1.171-.344.171-1.2,0-2.6-.074-2.7-.074-.122,0-1.474.074-2.137.074-.221,0-.344-.049-.344-.171a.167.167,0,0,1,.172-.173,3.093,3.093,0,0,0,.663-.1c.418-.1.491-.492.565-1.106.1-.86.123-2.506.123-4.521v-3.686c0-3.243,0-3.833-.049-4.5-.049-.713-.221-1.032-.688-1.131a3.963,3.963,0,0,0-.663-.073.185.185,0,0,1-.173-.172c0-.123.1-.172.344-.172.713,0,2.065.049,2.187.049.1,0,1.5-.049,2.163-.049.246,0,.344.049.344.172a.208.208,0,0,1-.172.172,2.417,2.417,0,0,0-.541.049c-.59.123-.713.418-.762,1.155-.024.663-.024,1.253-.024,4.5Z" fill="#122533"/><path d="M777.9,2850.431c-.295-.147-.319-.221-.319-.786,0-1.032.1-1.868.123-2.211,0-.222.049-.345.172-.345s.2.074.2.246a3.122,3.122,0,0,0,.074.762c.344,1.523,1.966,2.064,3.416,2.064,2.137,0,3.243-1.2,3.243-2.777,0-1.5-.811-2.211-2.727-3.636l-.983-.737c-2.334-1.745-3.1-3.022-3.1-4.472,0-2.457,1.941-3.932,4.791-3.932a10.451,10.451,0,0,1,2.236.246,2.818,2.818,0,0,0,.762.1c.172,0,.221.025.221.148,0,.1-.1.786-.1,2.211,0,.32-.025.467-.172.467s-.172-.1-.2-.27a3.832,3.832,0,0,0-.319-1.032c-.148-.246-.86-1.032-2.8-1.032-1.572,0-2.874.786-2.874,2.26,0,1.327.663,2.089,2.8,3.539l.614.418c2.629,1.793,3.539,3.243,3.539,5.036a4.073,4.073,0,0,1-2.015,3.563,6.629,6.629,0,0,1-3.441.737A7.937,7.937,0,0,1,777.9,2850.431Z" fill="#122533"/><path d="M790.9,2848.76a7.837,7.837,0,0,1-2.63-6.192,8.252,8.252,0,0,1,2.433-5.7c1.3-1.253,3.268-2.236,6.585-2.236a21.231,21.231,0,0,1,3.145.246,15.442,15.442,0,0,0,2.212.319c.221,0,.27.1.27.221,0,.172-.049.418-.1,1.18-.025.688-.025,1.843-.049,2.137-.025.32-.123.443-.246.443-.147,0-.172-.148-.172-.443a2.722,2.722,0,0,0-.909-2.088,7.036,7.036,0,0,0-4.251-1.155c-2.777,0-4.1.737-4.865,1.45-1.6,1.474-1.942,3.342-1.942,5.454a7.59,7.59,0,0,0,7.79,7.568c1.622,0,2.7-.123,3.563-.982a3.9,3.9,0,0,0,.835-1.745c.049-.221.074-.3.221-.3.1,0,.2.147.2.3a21.937,21.937,0,0,1-.516,2.678c-.123.394-.172.467-.541.614a12.781,12.781,0,0,1-3.907.467C794.78,2851,792.593,2850.235,790.9,2848.76Z" fill="#122533"/><path d="M812.152,2834.632c4.865,0,8.551,2.973,8.551,7.838a8.369,8.369,0,0,1-8.674,8.526,8.01,8.01,0,0,1-8.452-8.207A8.272,8.272,0,0,1,812.152,2834.632Zm.492,15.5c1.941,0,5.847-1.032,5.847-7.076,0-5.013-3.046-7.642-6.462-7.642-3.612,0-6.216,2.261-6.216,6.806C805.813,2847.089,808.736,2850.136,812.644,2850.136Z" fill="#122533"/><path d="M828.542,2848c1.253-2.8,4.079-9.927,4.546-11.426a3.6,3.6,0,0,0,.2-.786.439.439,0,0,0-.295-.443,2.527,2.527,0,0,0-.737-.073c-.123,0-.246-.074-.246-.172,0-.123.148-.172.492-.172.86,0,1.843.049,2.113.049.123,0,1.056-.049,1.7-.049.221,0,.343.049.343.147s-.073.2-.245.2a2,2,0,0,0-1.032.246c-.295.2-.639.491-1.2,1.916-.246.59-1.3,3.1-2.408,5.651-1.327,3.047-2.285,5.308-2.777,6.34-.59,1.253-.713,1.572-.934,1.572-.245,0-.393-.27-.81-1.277l-5.308-12.8c-.492-1.179-.786-1.4-1.5-1.573a4.21,4.21,0,0,0-.835-.073.187.187,0,0,1-.172-.2c0-.123.221-.147.565-.147,1.032,0,2.26.049,2.531.049.221,0,1.179-.049,2.015-.049q.59,0,.589.147a.2.2,0,0,1-.221.2,2.671,2.671,0,0,0-.786.1.345.345,0,0,0-.246.369,8.657,8.657,0,0,0,.59,1.744Z" fill="#122533"/><path d="M837.977,2840.971c0-3.243,0-3.833-.049-4.5-.049-.713-.172-1.057-.884-1.155a7.075,7.075,0,0,0-.737-.049.209.209,0,0,1-.173-.172c0-.123.1-.172.344-.172.983,0,2.384.049,2.507.049.147,0,4.668.024,5.16,0,.418-.025.811-.1.982-.123.1-.024.2-.1.3-.1.073,0,.1.1.1.2,0,.148-.123.393-.172.983-.025.2-.074,1.131-.123,1.376-.025.1-.1.222-.2.222-.123,0-.172-.1-.172-.271a2.274,2.274,0,0,0-.123-.737c-.147-.344-.368-.491-1.547-.639-.369-.049-2.875-.074-3.121-.074-.1,0-.123.074-.123.222v5.676c0,.147,0,.221.123.221.27,0,3.121,0,3.612-.049.516-.05.835-.074,1.056-.3.148-.148.246-.271.32-.271s.123.05.123.172a11.367,11.367,0,0,0-.172,1.155c-.049.418-.1,1.2-.1,1.351,0,.172-.049.393-.2.393-.1,0-.147-.073-.147-.2a1.839,1.839,0,0,0-.1-.688c-.073-.295-.27-.541-1.1-.639-.59-.074-2.9-.1-3.269-.1a.129.129,0,0,0-.147.147v1.745c0,.712-.024,3.145,0,3.563.049,1.4.442,1.67,2.58,1.67a7.2,7.2,0,0,0,2.162-.221,1.582,1.582,0,0,0,.983-1.449c.049-.246.1-.32.221-.32s.148.172.148.32a17.332,17.332,0,0,1-.295,2.015c-.148.541-.369.541-1.2.541-1.622,0-2.875-.05-3.76-.074-.909-.05-1.474-.05-1.793-.05-.05,0-.467,0-.934.025-.418.025-.909.049-1.253.049-.221,0-.344-.049-.344-.171a.167.167,0,0,1,.172-.173,6.022,6.022,0,0,0,.663-.1c.418-.074.467-.492.565-1.106a42.592,42.592,0,0,0,.123-4.521Z" fill="#122533"/><path d="M849.649,2840.971c0-3.243,0-3.833-.049-4.5-.049-.713-.172-1.057-.885-1.155a7.057,7.057,0,0,0-.737-.049.208.208,0,0,1-.172-.172c0-.123.1-.172.344-.172.983,0,2.433.049,2.555.049.222,0,2.04-.049,2.7-.049a7.084,7.084,0,0,1,4.03.909,3.664,3.664,0,0,1,1.5,2.85c0,1.548-.639,3.047-2.654,4.767,1.769,2.212,3.268,4.1,4.521,5.406a3.96,3.96,0,0,0,2.408,1.45,4.016,4.016,0,0,0,.762.073.191.191,0,0,1,.2.173c0,.122-.123.171-.516.171H862.3a4.369,4.369,0,0,1-2.31-.417,11.067,11.067,0,0,1-2.948-3.072c-.909-1.13-1.868-2.482-2.335-3.047a.33.33,0,0,0-.294-.123l-2.752-.049c-.1,0-.148.049-.148.172v.491c0,2.015,0,3.637.1,4.5.073.614.2,1.008.86,1.106a7.92,7.92,0,0,0,.958.1.154.154,0,0,1,.172.173c0,.1-.1.171-.344.171-1.18,0-2.556-.074-2.654-.074-.024,0-1.474.074-2.138.074-.221,0-.344-.049-.344-.171a.168.168,0,0,1,.173-.173,3.1,3.1,0,0,0,.663-.1c.417-.1.467-.492.565-1.106a42.592,42.592,0,0,0,.123-4.521Zm1.867,1.769a.309.309,0,0,0,.148.271,7.322,7.322,0,0,0,2.383.319,2.81,2.81,0,0,0,1.622-.369,3.726,3.726,0,0,0,1.3-3.194c0-2.6-1.425-4.1-3.735-4.1a9.436,9.436,0,0,0-1.548.123.267.267,0,0,0-.172.246Z" fill="#122533"/><path d="M866.308,2845.3a3.73,3.73,0,0,0-.466-2.138c-.172-.319-3.1-4.963-3.834-6.069a5.419,5.419,0,0,0-1.425-1.523,2.118,2.118,0,0,0-.909-.295.216.216,0,0,1-.221-.2c0-.1.074-.147.27-.147.418,0,2.04.049,2.138.049.147,0,1.032-.049,1.867-.049.246,0,.295.049.295.147,0,.074-.147.148-.344.222-.172.073-.27.171-.27.343a1.708,1.708,0,0,0,.295.811l3.931,6.511c.443-.884,3.145-5.356,3.537-6.044a2.221,2.221,0,0,0,.369-1.081c0-.295-.1-.467-.344-.54-.2-.05-.319-.148-.319-.246,0-.074.123-.123.344-.123.565,0,1.327.049,1.5.049.148,0,1.7-.049,2.114-.049.147,0,.27.049.27.123a.251.251,0,0,1-.27.221,2.211,2.211,0,0,0-1.008.27,3.758,3.758,0,0,0-1.08,1.032c-.714.836-3.759,5.749-4.2,6.634a4.176,4.176,0,0,0-.271,2.089v1.793c0,.345,0,1.229.074,2.089.049.614.2,1.008.835,1.106a8.279,8.279,0,0,0,.983.1.167.167,0,0,1,.172.173c0,.1-.123.171-.344.171-1.2,0-2.605-.074-2.727-.074-.1,0-1.475.074-2.114.074-.245,0-.343-.049-.343-.171a.167.167,0,0,1,.171-.173,2.889,2.889,0,0,0,.64-.1c.442-.1.589-.492.638-1.106.049-.86.049-1.744.049-2.089Z" fill="#122533"/><path d="M924.364,2844.46c0-1.99-.123-2.26-1.106-2.53a4.615,4.615,0,0,0-.835-.074c-.1,0-.2-.049-.2-.147,0-.148.123-.2.393-.2,1.106,0,2.654.074,2.777.074s1.671-.074,2.408-.074c.27,0,.393.049.393.2,0,.1-.1.147-.2.147a3.692,3.692,0,0,0-.614.074c-.663.123-.86.54-.909,1.4-.049.786-.049,1.523-.049,2.555v2.752c0,1.106-.025,1.155-.319,1.327a13.381,13.381,0,0,1-13.294-1.523,9.591,9.591,0,0,1-2.924-7,9.316,9.316,0,0,1,4.1-8.084,12.069,12.069,0,0,1,6.536-1.548,20.943,20.943,0,0,1,3.76.418,12.284,12.284,0,0,0,1.99.246c.246.024.295.122.295.221a31.1,31.1,0,0,0-.172,3.489c0,.393-.049.516-.221.516-.123,0-.148-.147-.172-.369a3.76,3.76,0,0,0-.516-1.621c-.614-.934-2.605-1.991-5.774-1.991a7.856,7.856,0,0,0-5.259,1.622c-1.425,1.13-2.432,3.366-2.432,6.241a10.025,10.025,0,0,0,2.6,6.806,8.947,8.947,0,0,0,6.438,2.63,6.713,6.713,0,0,0,2.8-.516.894.894,0,0,0,.492-.861Z" fill="#122533"/><path d="M931.44,2840.971c0-3.243,0-3.833-.049-4.5-.049-.713-.172-1.057-.884-1.155a7.076,7.076,0,0,0-.738-.049.209.209,0,0,1-.172-.172c0-.123.1-.172.345-.172.982,0,2.432.049,2.555.049.221,0,2.039-.049,2.7-.049a7.081,7.081,0,0,1,4.029.909,3.662,3.662,0,0,1,1.5,2.85c0,1.548-.64,3.047-2.654,4.767,1.769,2.212,3.268,4.1,4.521,5.406a3.957,3.957,0,0,0,2.408,1.45,4.013,4.013,0,0,0,.761.073.19.19,0,0,1,.2.173c0,.122-.123.171-.516.171h-1.351a4.369,4.369,0,0,1-2.31-.417,11.053,11.053,0,0,1-2.948-3.072c-.909-1.13-1.868-2.482-2.335-3.047a.331.331,0,0,0-.3-.123l-2.752-.049c-.1,0-.147.049-.147.172v.491c0,2.015,0,3.637.1,4.5.074.614.2,1.008.86,1.106a7.938,7.938,0,0,0,.958.1.153.153,0,0,1,.172.173c0,.1-.1.171-.343.171-1.18,0-2.556-.074-2.655-.074-.024,0-1.474.074-2.137.074-.221,0-.344-.049-.344-.171a.167.167,0,0,1,.172-.173,3.1,3.1,0,0,0,.663-.1c.418-.1.467-.492.565-1.106a42.592,42.592,0,0,0,.123-4.521Zm1.868,1.769a.31.31,0,0,0,.147.271,7.329,7.329,0,0,0,2.384.319,2.805,2.805,0,0,0,1.621-.369,3.723,3.723,0,0,0,1.3-3.194c0-2.6-1.425-4.1-3.734-4.1a9.425,9.425,0,0,0-1.548.123.266.266,0,0,0-.172.246Z" fill="#122533"/><path d="M952.548,2834.632c4.864,0,8.55,2.973,8.55,7.838a8.369,8.369,0,0,1-8.674,8.526,8.012,8.012,0,0,1-8.453-8.207A8.273,8.273,0,0,1,952.548,2834.632Zm.491,15.5c1.941,0,5.848-1.032,5.848-7.076,0-5.013-3.047-7.642-6.463-7.642-3.612,0-6.217,2.261-6.217,6.806C946.207,2847.089,949.132,2850.136,953.039,2850.136Z" fill="#122533"/><path d="M963.31,2840.971c0-3.243,0-3.833-.05-4.5s-.172-1.057-.885-1.155a7.037,7.037,0,0,0-.737-.049.208.208,0,0,1-.171-.172c0-.123.1-.172.343-.172.983,0,2.286.049,2.482.049s1.549-.049,2.187-.049c.246,0,.369.049.369.172a.211.211,0,0,1-.2.172,2.524,2.524,0,0,0-.54.049c-.566.1-.688.467-.737,1.155-.05.663-.05,1.253-.05,4.5v2.924c0,3.022.664,4.276,1.6,5.111a4.214,4.214,0,0,0,3.22,1.13,4.439,4.439,0,0,0,3.341-1.474c1.007-1.2,1.229-2.924,1.229-5.062v-2.629c0-3.243-.025-3.833-.05-4.5s-.147-1.057-.859-1.155a7.094,7.094,0,0,0-.738-.049.184.184,0,0,1-.171-.172c0-.123.1-.172.343-.172.959,0,2.212.049,2.335.049.147,0,1.179-.049,1.818-.049.246,0,.344.049.344.172a.185.185,0,0,1-.172.172,2.532,2.532,0,0,0-.541.049c-.589.123-.712.467-.762,1.155-.049.663-.024,1.253-.024,4.5v2.236c0,2.261-.295,4.792-2.015,6.266A6.544,6.544,0,0,1,969.7,2851a6.748,6.748,0,0,1-4.5-1.474c-1.056-.983-1.891-2.433-1.891-5.48Z" fill="#122533"/><path d="M980.534,2840.971c0-3.243,0-3.833-.049-4.5-.049-.713-.172-1.057-.885-1.155a7.055,7.055,0,0,0-.737-.049.209.209,0,0,1-.172-.172c0-.123.1-.172.344-.172.983,0,2.334.049,2.507.049.466,0,2.088-.049,3.071-.049,2.776,0,3.759.86,4.128,1.179a3.525,3.525,0,0,1,1.081,2.506c0,3-2.26,4.988-5.578,4.988a5.216,5.216,0,0,1-.614-.024.236.236,0,0,1-.221-.2c0-.172.123-.221.565-.221,2.334,0,4.006-1.474,4.006-3.366a4.247,4.247,0,0,0-1.23-3.17,3.677,3.677,0,0,0-2.923-1.007,7.316,7.316,0,0,0-1.2.147c-.123.025-.172.172-.172.393v8.5c0,2.015,0,3.661.1,4.521.074.614.2,1.008.86,1.106a7.938,7.938,0,0,0,.958.1.167.167,0,0,1,.172.173c0,.1-.1.171-.344.171-1.179,0-2.6-.074-2.7-.074-.073,0-1.474.074-2.137.074-.222,0-.345-.049-.345-.171a.168.168,0,0,1,.173-.173,3.093,3.093,0,0,0,.663-.1c.418-.1.467-.492.565-1.106a42.592,42.592,0,0,0,.123-4.521Z" fill="#122533"/><path d="M904.914,2839.467c-1.088-10.882-14.328-25.81-32.007-29.984a42.967,42.967,0,0,1,8.385,22.194c1.4,15.981-5.848,30.205-17.28,36.514a71.681,71.681,0,0,0,24.409-8.336c-9.528,7.268-23.961,13.228-40.788,16.053a117.578,117.578,0,0,1-23.054,1.621,96.469,96.469,0,0,0,31.644-.289C886.529,2872.152,906.617,2856.491,904.914,2839.467Zm-59.855,31.706a56.534,56.534,0,0,0,17.107-2.48,86.223,86.223,0,0,1-20.146.685c-13.826-.954-24.468-3.342-34.759-5.651-11.622-2.606-22.6-5.071-35.953-4.67-15.787.47-24.951,4.81-24.951,4.81s6.168-2.35,21.543-2.808c12.99-.384,23.506,2.939,38.721,5.949C831.489,2871.93,843.591,2871.173,845.059,2871.173Z" fill="#122533"/><path d="M873.931,2815.988l.072-.02a44.754,44.754,0,0,0-3.5-6.743c-.351-.017-.706-.03-1.069-.03a14.375,14.375,0,0,0-7.2,1.613C868.182,2811.4,872.806,2813.434,873.931,2815.988Z" fill="#122533" opacity="0.5"/></g></svg>