<svg xmlns="http://www.w3.org/2000/svg" xmlns:xlink="http://www.w3.org/1999/xlink" width="185.613" height="185.613" viewBox="0 0 185.613 185.613">
  <defs>
    <linearGradient id="linear-gradient" x1="0.018" y1="0.982" x2="0.982" y2="0.018" gradientUnits="objectBoundingBox">
      <stop offset="0" stop-color="#4fb8a4"/>
      <stop offset="0.463" stop-color="#38a8ad"/>
      <stop offset="0.936" stop-color="#0e93b5"/>
      <stop offset="1" stop-color="#0c91b5"/>
    </linearGradient>
  </defs>
  <g id="Group_2" data-name="Group 2" transform="translate(-973 -630)">
    <g id="Group_1" data-name="Group 1" transform="translate(-1 -3)">
      <rect id="Rectangle_1" data-name="Rectangle 1" width="151.191" height="151.191" transform="matrix(0.965, -0.263, 0.263, 0.965, 974, 672.738)" fill="url(#linear-gradient)"/>
    </g>
    <path id="Path_1" data-name="Path 1" d="M226.343,236.555a13.2,13.2,0,0,1-.872,4.846,11.5,11.5,0,0,1-2.452,3.859,11.107,11.107,0,0,1-3.8,2.542,13.735,13.735,0,0,1-9.848,0,11.174,11.174,0,0,1-3.818-2.542,11.424,11.424,0,0,1-2.46-3.859,13.9,13.9,0,0,1,0-9.692,11.414,11.414,0,0,1,2.46-3.859,11.177,11.177,0,0,1,3.818-2.543,12.9,12.9,0,0,1,4.928-.913,12.71,12.71,0,0,1,4.92.922,11.265,11.265,0,0,1,3.8,2.542,11.4,11.4,0,0,1,2.452,3.851,13.192,13.192,0,0,1,.872,4.846Zm-4.542,0a11.1,11.1,0,0,0-.518-3.514,7.442,7.442,0,0,0-1.49-2.641,6.421,6.421,0,0,0-2.361-1.662,8.841,8.841,0,0,0-6.278,0,6.492,6.492,0,0,0-2.378,1.662,7.484,7.484,0,0,0-1.505,2.641,11.976,11.976,0,0,0,0,7.027,7.386,7.386,0,0,0,1.505,2.633,6.532,6.532,0,0,0,2.378,1.654,8.841,8.841,0,0,0,6.278,0,6.46,6.46,0,0,0,2.361-1.654,7.345,7.345,0,0,0,1.49-2.633,11.1,11.1,0,0,0,.517-3.513Z" transform="translate(794.63 494.439)" fill="#fff"/>
    <path id="Path_2" data-name="Path 2" d="M234.406,239.155v9.3h-4.427v-23.8h7.257a15.19,15.19,0,0,1,4.172.5,7.956,7.956,0,0,1,2.846,1.407,5.428,5.428,0,0,1,1.629,2.164,7.574,7.574,0,0,1,.165,5.044,6.592,6.592,0,0,1-1.02,1.942,6.9,6.9,0,0,1-1.646,1.53,8.613,8.613,0,0,1-2.23,1.053,4.377,4.377,0,0,1,1.449,1.366l5.956,8.787h-3.982a1.95,1.95,0,0,1-.979-.23,2,2,0,0,1-.683-.659l-5-7.619a1.768,1.768,0,0,0-.617-.608,2.16,2.16,0,0,0-1-.181Zm0-3.176h2.764a6.839,6.839,0,0,0,2.181-.313,4.212,4.212,0,0,0,1.53-.864,3.473,3.473,0,0,0,.9-1.308,4.532,4.532,0,0,0,.3-1.662,3.381,3.381,0,0,0-1.193-2.781,5.709,5.709,0,0,0-3.645-.971h-2.83Z" transform="translate(794.63 494.439)" fill="#fff"/>
    <path id="Path_3" data-name="Path 3" d="M256.374,248.452h-4.443V224.657h4.443Z" transform="translate(794.63 494.439)" fill="#fff"/>
    <path id="Path_4" data-name="Path 4" d="M276.729,224.657v3.522H266.181v6.6h8.31v3.407h-8.31v6.73h10.548v3.538H261.721v-23.8Z" transform="translate(794.63 494.439)" fill="#fff"/>
    <path id="Path_5" data-name="Path 5" d="M284.989,244.8h9.528v3.653H280.563v-23.8h4.426Z" transform="translate(794.63 494.439)" fill="#fff"/>
    <path id="Path_6" data-name="Path 6" d="M236.527,259.929a1.215,1.215,0,0,1-.42.51,1.051,1.051,0,0,1-.567.148,1.433,1.433,0,0,1-.741-.255q-.411-.255-.971-.567a7.882,7.882,0,0,0-1.308-.568,5.5,5.5,0,0,0-1.769-.255,5.2,5.2,0,0,0-1.6.222,3.4,3.4,0,0,0-1.152.617,2.457,2.457,0,0,0-.7.946,3.1,3.1,0,0,0-.231,1.21,2.1,2.1,0,0,0,.469,1.4,3.915,3.915,0,0,0,1.243.955,11.587,11.587,0,0,0,1.76.708q.988.312,2.016.666a19.411,19.411,0,0,1,2.016.823,6.984,6.984,0,0,1,1.761,1.184,5.4,5.4,0,0,1,1.242,1.753,6.079,6.079,0,0,1,.469,2.518,8.211,8.211,0,0,1-.551,3.019,6.963,6.963,0,0,1-1.613,2.452,7.572,7.572,0,0,1-2.592,1.645,9.525,9.525,0,0,1-3.505.6,11.308,11.308,0,0,1-2.238-.222,11.719,11.719,0,0,1-2.114-.634,11.017,11.017,0,0,1-1.893-.987,9.341,9.341,0,0,1-1.571-1.283l1.283-2.123a1.639,1.639,0,0,1,.437-.387,1.065,1.065,0,0,1,.567-.156,1.57,1.57,0,0,1,.889.337q.477.337,1.127.749a8.66,8.66,0,0,0,1.53.749,5.916,5.916,0,0,0,2.115.337,4.34,4.34,0,0,0,2.929-.9,3.22,3.22,0,0,0,1.037-2.575,2.4,2.4,0,0,0-.469-1.53,3.791,3.791,0,0,0-1.243-1,9.28,9.28,0,0,0-1.76-.683q-.989-.279-2.008-.609a17.087,17.087,0,0,1-2.007-.79,6.47,6.47,0,0,1-1.761-1.2,5.463,5.463,0,0,1-1.243-1.851,7.071,7.071,0,0,1-.468-2.74,6.548,6.548,0,0,1,2.032-4.723,7.472,7.472,0,0,1,2.443-1.53,8.9,8.9,0,0,1,3.308-.576,11.113,11.113,0,0,1,3.883.658,8.769,8.769,0,0,1,3.028,1.843Z" transform="translate(794.63 494.439)" fill="#fff"/>
    <path id="Path_7" data-name="Path 7" d="M264.254,267.5a13.832,13.832,0,0,1-.329,3.052,12.482,12.482,0,0,1-.946,2.724,11.389,11.389,0,0,1-1.506,2.328,10.72,10.72,0,0,1-2.024,1.868l6.039,6.582h-3.653a4.448,4.448,0,0,1-1.423-.214,2.779,2.779,0,0,1-1.16-.79l-3.489-3.851a12.7,12.7,0,0,1-1.719.346,14.107,14.107,0,0,1-1.835.115,12.888,12.888,0,0,1-4.929-.913,11.17,11.17,0,0,1-3.817-2.542,11.409,11.409,0,0,1-2.46-3.859,13.9,13.9,0,0,1,0-9.692,11.4,11.4,0,0,1,2.46-3.859,11.172,11.172,0,0,1,3.817-2.543,12.907,12.907,0,0,1,4.929-.913,12.71,12.71,0,0,1,4.92.922,11.26,11.26,0,0,1,3.8,2.542,11.4,11.4,0,0,1,2.452,3.851A13.192,13.192,0,0,1,264.254,267.5Zm-4.541,0a11.071,11.071,0,0,0-.519-3.514,7.431,7.431,0,0,0-1.489-2.641,6.428,6.428,0,0,0-2.361-1.662,8.841,8.841,0,0,0-6.278,0,6.483,6.483,0,0,0-2.378,1.662,7.445,7.445,0,0,0-1.5,2.641,11.976,11.976,0,0,0,0,7.027,7.357,7.357,0,0,0,1.505,2.633,6.509,6.509,0,0,0,2.378,1.653,8.841,8.841,0,0,0,6.278,0,6.454,6.454,0,0,0,2.361-1.653,7.342,7.342,0,0,0,1.489-2.633A11.069,11.069,0,0,0,259.713,267.5Z" transform="translate(794.63 494.439)" fill="#fff"/>
    <path id="Path_8" data-name="Path 8" d="M277.32,275.825a5.826,5.826,0,0,0,2.3-.428,4.782,4.782,0,0,0,1.712-1.2,5.245,5.245,0,0,0,1.069-1.876,7.72,7.72,0,0,0,.371-2.468V255.6h4.426v14.251a10.99,10.99,0,0,1-.683,3.924,8.867,8.867,0,0,1-1.966,3.11,8.967,8.967,0,0,1-3.11,2.041,11.927,11.927,0,0,1-8.228,0,8.718,8.718,0,0,1-5.06-5.151,10.967,10.967,0,0,1-.683-3.924V255.6h4.426v14.234a7.722,7.722,0,0,0,.371,2.469,5.4,5.4,0,0,0,1.061,1.884,4.663,4.663,0,0,0,1.7,1.209,5.834,5.834,0,0,0,2.3.429Z" transform="translate(794.63 494.439)" fill="#fff"/>
    <path id="Path_9" data-name="Path 9" d="M311.761,279.4h-3.423a1.5,1.5,0,0,1-.946-.288,1.635,1.635,0,0,1-.535-.716l-1.777-4.854h-9.856l-1.778,4.854a1.551,1.551,0,0,1-.518.691,1.454,1.454,0,0,1-.946.313h-3.439l9.346-23.795h4.526Zm-15.4-8.985h7.586l-2.9-7.915q-.2-.527-.436-1.242t-.469-1.555q-.231.838-.453,1.563t-.436,1.267Z" transform="translate(794.63 494.439)" fill="#fff"/>
    <path id="Path_10" data-name="Path 10" d="M318.787,270.1v9.3h-4.426V255.6h7.257a15.179,15.179,0,0,1,4.171.5,7.969,7.969,0,0,1,2.847,1.407,5.446,5.446,0,0,1,1.629,2.164,7.581,7.581,0,0,1,.164,5.044,6.59,6.59,0,0,1-1.02,1.942,6.893,6.893,0,0,1-1.645,1.53,8.613,8.613,0,0,1-2.23,1.053,4.374,4.374,0,0,1,1.448,1.366l5.957,8.787h-3.982a1.938,1.938,0,0,1-.979-.231,1.982,1.982,0,0,1-.683-.658l-5-7.619a1.752,1.752,0,0,0-.617-.608,2.158,2.158,0,0,0-1-.181Zm0-3.176h2.765a6.838,6.838,0,0,0,2.18-.313,4.208,4.208,0,0,0,1.531-.864,3.46,3.46,0,0,0,.9-1.308,4.516,4.516,0,0,0,.3-1.662A3.379,3.379,0,0,0,325.271,260a5.711,5.711,0,0,0-3.645-.971H318.8Z" transform="translate(794.63 494.439)" fill="#fff"/>
    <path id="Path_11" data-name="Path 11" d="M350.776,255.6v3.522H340.229v6.6h8.31v3.407h-8.31v6.73h10.547V279.4H335.769V255.6Z" transform="translate(794.63 494.439)" fill="#fff"/>
  </g>
</svg>
