<svg xmlns="http://www.w3.org/2000/svg" width="217.769" height="50.563" viewBox="0 0 217.769 50.563"><g transform="translate(-1363.231 -2818.664)" opacity="0.6"><path d="M1394.607,2818.664h-9.6a21.8,21.8,0,0,0-21.78,21.78V2853.2c0,.125.007.248.019.369v5.288a10.372,10.372,0,0,0,20.745,0v-.716a3.594,3.594,0,0,0,.048-.563v-14.9a2.351,2.351,0,0,1,2.321-2.32h9.169a3.586,3.586,0,0,0,0-7.172h-9.169a9.5,9.5,0,0,0-9.492,9.492v7.345a3.584,3.584,0,0,0-.049.561v8.276a3.2,3.2,0,1,1-6.4,0v-8.276c0-.125-.007-.248-.019-.369v-9.766a14.624,14.624,0,0,1,14.608-14.608h9.6a10.752,10.752,0,0,1,0,21.5,3.586,3.586,0,1,0,0,7.172,17.923,17.923,0,0,0,0-35.847Z" fill="#122533" opacity="0.5"/><path d="M1436.405,2830.064a6.056,6.056,0,0,1-.317,2,3.868,3.868,0,0,1-1.02,1.576,4.841,4.841,0,0,1-1.823,1.03,8.762,8.762,0,0,1-2.727.37h-6.512v4.588h-3.921v-14.524h10.433a8.893,8.893,0,0,1,2.727.364,4.781,4.781,0,0,1,1.823,1.026,3.866,3.866,0,0,1,1.02,1.57A6.014,6.014,0,0,1,1436.405,2830.064Zm-3.964.064a2.393,2.393,0,0,0-.142-.872,1.292,1.292,0,0,0-.471-.6,2.277,2.277,0,0,0-.856-.344,6.453,6.453,0,0,0-1.3-.111h-5.666v3.742h5.666a7.908,7.908,0,0,0,1.3-.09,2.211,2.211,0,0,0,.856-.307,1.218,1.218,0,0,0,.471-.565A2.268,2.268,0,0,0,1432.441,2830.128Z" fill="#122533"/><path d="M1441.84,2839.631h-3.921v-14.524h9.83a9.577,9.577,0,0,1,2.69.327,4.76,4.76,0,0,1,1.8.931,3.485,3.485,0,0,1,1,1.453,5.479,5.479,0,0,1,.312,1.9,4.535,4.535,0,0,1-.259,1.606,3.736,3.736,0,0,1-.7,1.179,4.173,4.173,0,0,1-1.021.83,6.926,6.926,0,0,1-1.226.56l4.757,5.74h-4.588l-4.4-5.349h-4.281Zm7.748-9.937a2.053,2.053,0,0,0-.111-.718.984.984,0,0,0-.386-.481,1.938,1.938,0,0,0-.734-.27,6.531,6.531,0,0,0-1.147-.084h-5.37v3.107h5.37a6.555,6.555,0,0,0,1.147-.084,1.959,1.959,0,0,0,.734-.27.985.985,0,0,0,.386-.481A2.055,2.055,0,0,0,1449.588,2829.694Z" fill="#122533"/><path d="M1456.186,2839.631v-14.524h14.7v3.1h-10.676v2.4h10.127v3.1h-10.127v2.833h10.824v3.1Z" fill="#122533"/><path d="M1491.556,2839.631v-10.2l-5.391,10.2H1482.4l-5.391-10.2v10.2h-3.921v-14.524h5.327l5.867,10.993,5.866-10.993h5.307v14.524Z" fill="#122533"/><g opacity="0.5"><path d="M1498.27,2839.631v-14.524h14.7v3.1H1502.3v2.4h10.126v3.1H1502.3v2.833h10.824v3.1Z" fill="#122533"/><path d="M1528.556,2829.2q-.413-.2-1.089-.455t-1.533-.481a17.68,17.68,0,0,0-1.86-.38,13.543,13.543,0,0,0-2.061-.153q-.846,0-1.443.052a8.921,8.921,0,0,0-1,.138,3.008,3.008,0,0,0-.645.2,1.435,1.435,0,0,0-.365.228.564.564,0,0,0-.164.232.73.73,0,0,0-.037.211.684.684,0,0,0,.318.555,3.08,3.08,0,0,0,.866.423q.551.185,1.279.349t1.549.338q.819.174,1.691.38t1.691.482a11.98,11.98,0,0,1,1.549.639,5.927,5.927,0,0,1,1.279.851,3.71,3.71,0,0,1,.867,1.12,3.2,3.2,0,0,1,.317,1.448,4.028,4.028,0,0,1-.37,1.8,3.852,3.852,0,0,1-.989,1.268,4.968,4.968,0,0,1-1.432.83,9.952,9.952,0,0,1-1.707.481,14.343,14.343,0,0,1-1.808.222q-.914.052-1.738.053a21.073,21.073,0,0,1-3.991-.355,19.984,19.984,0,0,1-3.239-.882v-3.467a13.319,13.319,0,0,0,3.3,1.257,16.593,16.593,0,0,0,3.969.455,12.726,12.726,0,0,0,2.035-.132,4.979,4.979,0,0,0,1.231-.338,1.42,1.42,0,0,0,.6-.45.861.861,0,0,0,.158-.465.765.765,0,0,0-.317-.607,2.916,2.916,0,0,0-.866-.455,11.115,11.115,0,0,0-1.28-.359q-.729-.164-1.548-.328t-1.686-.354q-.867-.19-1.686-.449a12.331,12.331,0,0,1-1.549-.6,5.675,5.675,0,0,1-1.279-.814,3.55,3.55,0,0,1-.866-1.089,3.085,3.085,0,0,1-.317-1.432,3.76,3.76,0,0,1,.338-1.659,3.607,3.607,0,0,1,.914-1.189,4.837,4.837,0,0,1,1.332-.8,8.887,8.887,0,0,1,1.591-.475,13.424,13.424,0,0,1,1.691-.233q.856-.063,1.628-.063.844,0,1.739.084t1.76.238q.866.153,1.675.354t1.5.423Z" fill="#122533"/><path d="M1539.878,2828.268v11.363h-3.921v-11.363h-6.163v-3.161h16.258v3.161Z" fill="#122533"/><path d="M1546.909,2839.631v-14.524h14.7v3.1h-10.676v2.4h10.126v3.1h-10.126v2.833h10.824v3.1Z" fill="#122533"/><path d="M1567.734,2839.631h-3.921v-14.524h9.83a9.578,9.578,0,0,1,2.69.327,4.754,4.754,0,0,1,1.8.931,3.476,3.476,0,0,1,1,1.453,5.479,5.479,0,0,1,.312,1.9,4.535,4.535,0,0,1-.259,1.606,3.717,3.717,0,0,1-.7,1.179,4.186,4.186,0,0,1-1.02.83,7,7,0,0,1-1.226.56l4.756,5.74h-4.587l-4.4-5.349h-4.282Zm7.748-9.937a2.052,2.052,0,0,0-.111-.718.987.987,0,0,0-.385-.481,1.949,1.949,0,0,0-.735-.27,6.53,6.53,0,0,0-1.147-.084h-5.37v3.107h5.37a6.554,6.554,0,0,0,1.147-.084,1.97,1.97,0,0,0,.735-.27.988.988,0,0,0,.385-.481A2.054,2.054,0,0,0,1575.482,2829.694Z" fill="#122533"/></g><path d="M1422.94,2853.862h-3.057V2846.3h2.94a2.03,2.03,0,0,1,2.282,2.07,1.711,1.711,0,0,1-1.019,1.6,1.8,1.8,0,0,1,1.136,1.752A2.048,2.048,0,0,1,1422.94,2853.862Zm-.213-6.528h-1.7v2.166h1.7c.733,0,1.232-.382,1.232-1.083S1423.46,2847.334,1422.727,2847.334Zm.107,3.2h-1.8v2.3h1.8a1.155,1.155,0,1,0,0-2.3Z" fill="#122533"/><path d="M1432.122,2853.862V2846.3h1.146v7.557Z" fill="#122533"/><path d="M1444.838,2853.162a2.878,2.878,0,0,1-3.906,0c-.743-.743-.764-1.5-.764-3.078s.021-2.336.764-3.079a2.878,2.878,0,0,1,3.906,0c.743.743.764,1.5.764,3.079S1445.581,2852.419,1444.838,2853.162Zm-.828-5.435a1.588,1.588,0,0,0-2.25,0c-.371.4-.446.86-.446,2.357s.075,1.942.446,2.345a1.563,1.563,0,0,0,2.25,0c.382-.393.446-.849.446-2.345S1444.392,2848.12,1444.01,2847.727Z" fill="#122533"/><path d="M1457.3,2852.907a2.528,2.528,0,0,1-2.144.955H1452.5V2846.3h2.653a2.528,2.528,0,0,1,2.144.955,7.243,7.243,0,0,1,0,5.647Zm-.976-5.063a1.6,1.6,0,0,0-1.295-.52h-1.38v5.519h1.38a1.6,1.6,0,0,0,1.295-.52c.371-.414.4-1.114.4-2.239S1456.695,2848.258,1456.324,2847.844Z" fill="#122533"/><path d="M1464.773,2853.862V2846.3h1.147v7.557Z" fill="#122533"/><path d="M1473.1,2853.862V2846.3h4.829v1.029h-3.683v2.208h3.141v1.019h-3.141v2.272h3.683v1.029Z" fill="#122533"/><path d="M1486.7,2853.926a3.437,3.437,0,0,1-2.674-1l.753-.754a2.542,2.542,0,0,0,1.943.733c1,0,1.56-.425,1.56-1.168a.966.966,0,0,0-.3-.785,1.489,1.489,0,0,0-.828-.319l-.892-.127a2.553,2.553,0,0,1-1.422-.6,1.88,1.88,0,0,1-.562-1.454,2.227,2.227,0,0,1,2.526-2.208,3.129,3.129,0,0,1,2.345.86l-.722.722a2.251,2.251,0,0,0-1.666-.584c-.891,0-1.369.488-1.369,1.178a.876.876,0,0,0,.276.7,1.468,1.468,0,0,0,.828.339l.9.138a2.457,2.457,0,0,1,1.4.563,2.013,2.013,0,0,1,.616,1.549C1489.421,2853.1,1488.3,2853.926,1486.7,2853.926Z" fill="#122533"/><path d="M1496.162,2853.862V2846.3h4.829v1.029h-3.683v2.208h3.142v1.019h-3.142v2.272h3.683v1.029Z" fill="#122533"/><path d="M1507.764,2853.862V2846.3h1.146v6.528h3.64v1.029Z" fill="#122533"/></g></svg>