<svg xmlns="http://www.w3.org/2000/svg" width="20" height="20" viewBox="0 0 20 20">
  <g id="linkedin-dark" transform="translate(-490.251 -1702.393)">
    <rect id="linkedin-dark-old" width="20" height="20" transform="translate(490.251 1702.393)" fill="#1d1d1b"/>
    <path id="Path_1" data-name="Path 1" d="M495.12,1705.273a1.453,1.453,0,1,0-.037,2.9h.018a1.454,1.454,0,1,0,.019-2.9Zm-1.412,12.426h2.787v-8.384h-2.787Zm9.627-8.581a2.769,2.769,0,0,0-2.512,1.385v.028H500.8l.018-.028v-1.188h-2.786c.036.787,0,8.384,0,8.384h2.786v-4.682a1.924,1.924,0,0,1,.092-.68,1.526,1.526,0,0,1,1.43-1.019c1.009,0,1.412.769,1.412,1.9v4.485h2.786v-4.807C506.543,1710.317,505.169,1709.118,503.335,1709.118Z" fill="#0fd1c7"/>
  </g>
</svg>
