<svg xmlns="http://www.w3.org/2000/svg" width="19.47" height="13.426" viewBox="0 0 19.47 13.426"><path d="M1553.783,24.529a4.75,4.75,0,0,1-2.206-.224,2.363,2.363,0,0,0,2.121-1.263,3.479,3.479,0,0,1-2.3.255c-.034-.159-.07-.31-.107-.447a4.188,4.188,0,0,0-4.127-3.235q.224-.09.453-.168c.2-.072,1.4-.267,1.209-.688-.16-.372-1.618.279-1.893.365.363-.136.963-.371,1.026-.788a2.891,2.891,0,0,0-1.521.721,1.051,1.051,0,0,0,.292-.578c-1.482.948-2.347,2.857-3.047,4.71A7.317,7.317,0,0,0,1542.213,22a38.661,38.661,0,0,0-4.995-2.2,2.648,2.648,0,0,0,1.664,2.45,4.074,4.074,0,0,0-1.2.144c.166.874.709,1.594,2.18,1.941a1.781,1.781,0,0,0-1.334.527,2.259,2.259,0,0,0,2.4,1.176c-1.495.645-.61,1.839.606,1.661a5.158,5.158,0,0,1-7.221.193c4.9,6.687,15.559,3.954,17.147-2.486A2.954,2.954,0,0,0,1553.783,24.529Z" transform="translate(-1534.313 -18.336)" fill="#0ed3b1"/></svg>