<svg xmlns="http://www.w3.org/2000/svg" width="34.599" height="23.858" viewBox="0 0 34.599 23.858"><path d="M1298.5,3111.1a8.418,8.418,0,0,1-3.92-.4,4.2,4.2,0,0,0,3.769-2.245,6.185,6.185,0,0,1-4.078.454c-.06-.283-.125-.551-.191-.794-.914-3.365-4.05-6.077-7.333-5.749q.4-.161.805-.3c.359-.13,2.481-.476,2.147-1.224-.282-.66-2.874.5-3.362.648.644-.241,1.71-.658,1.823-1.4a5.137,5.137,0,0,0-2.7,1.281,1.846,1.846,0,0,0,.519-1.027c-2.633,1.684-4.171,5.076-5.415,8.37a12.963,12.963,0,0,0-2.621-2.111,68.376,68.376,0,0,0-8.877-3.91c-.125,1.354.67,3.157,2.958,4.354a7.258,7.258,0,0,0-2.126.255c.295,1.554,1.26,2.833,3.874,3.45a3.175,3.175,0,0,0-2.372.937,4.013,4.013,0,0,0,4.259,2.089c-2.655,1.147-1.083,3.269,1.079,2.952a9.168,9.168,0,0,1-12.833.343c8.711,11.883,27.65,7.027,30.471-4.418A5.242,5.242,0,0,0,1298.5,3111.1Z" transform="translate(-1263.901 -3100.099)" fill="#0092b6"/></svg>